<svg xmlns="http://www.w3.org/2000/svg">
<defs>
<font id="Ribosoma-Roman" horiz-adv-x="956" >
  <font-face 
    font-family="Ribosoma Roman"
    font-weight="400"
    font-stretch="normal"
    units-per-em="1000"
    panose-1="0 0 5 0 0 0 0 0 0 0"
    ascent="800"
    descent="-200"
    x-height="700"
    cap-height="700"
    bbox="-24 -230 1458 929"
    underline-thickness="50"
    underline-position="-100"
    stemh="148"
    stemv="168"
    unicode-range="U+0020-2122"
  />
<missing-glyph horiz-adv-x="729" 
d="M659 320c0 -52 -13 -91 -32 -114c21 -63 15 -135 -23 -206c-30 -25 -115 -50 -195 -50c-75 0 -145 20 -175 60c-50 70 -65 210 -55 255c3 10 5 20 10 30c-11 3 -23 13 -38 43c-132 258 -112 334 -64 359c23 11 58 7 93 -71l51 -112c15 -33 21 -48 27 -46c5 2 4 22 0 49
c-36 247 17 275 50 275c44 0 79 -13 75 -257c0 -24 -1 -44 5 -45s12 7 27 46l41 103c33 82 70 90 100 76c19 -9 66 -42 -2 -207c-10 -24 -20 -36 -30 -41c9 -10 17 -24 23 -41c6 15 16 24 37 24c25 0 75 -30 75 -130zM205 325l2 -4c19 20 50 41 107 64c36 16 86 23 114 8
c-13 63 17 97 51 97c7 0 15 -2 23 -5c49 130 61 183 40 195c-13 8 -30 -4 -50 -51l-67 -153c-9 -21 -28 -29 -42 -29c-15 0 -34 13 -34 51l-1 78c-2 137 -18 179 -36 178c-21 -1 -35 -16 -22 -192l6 -80c2 -31 -9 -48 -30 -52c-20 -4 -37 3 -55 41l-62 133
c-22 46 -35 64 -49 56c-30 -17 -8 -108 105 -335zM454 265c0 -20 10 -35 30 -35c30 0 35 65 35 115c0 55 -20 105 -45 105c-15 0 -20 -10 -20 -25v-160zM559 365v-105c0 -20 0 -40 25 -40s35 60 35 100c0 50 -20 90 -40 90s-20 -25 -20 -45zM584 35c8 45 16 107 14 147
c-5 -1 -10 -2 -14 -2c-27 0 -42 15 -47 50c-14 -26 -33 -40 -53 -40c-45 0 -65 35 -65 75c0 12 3 25 7 37c-13 -15 -33 -32 -62 -52l-15 -10c-25 -20 -45 -10 -55 10c40 25 140 85 120 110c-5 10 -25 15 -90 -15c-75 -40 -95 -55 -105 -85c-15 -41 5 -155 40 -220
c45 25 107 40 170 40c60 0 115 -15 155 -45zM429 0c30 0 35 10 35 20s-5 20 -35 20c-40 0 -45 -10 -45 -20s5 -20 45 -20z" />
    <glyph glyph-name=".notdef" horiz-adv-x="729" 
d="M659 320c0 -52 -13 -91 -32 -114c21 -63 15 -135 -23 -206c-30 -25 -115 -50 -195 -50c-75 0 -145 20 -175 60c-50 70 -65 210 -55 255c3 10 5 20 10 30c-11 3 -23 13 -38 43c-132 258 -112 334 -64 359c23 11 58 7 93 -71l51 -112c15 -33 21 -48 27 -46c5 2 4 22 0 49
c-36 247 17 275 50 275c44 0 79 -13 75 -257c0 -24 -1 -44 5 -45s12 7 27 46l41 103c33 82 70 90 100 76c19 -9 66 -42 -2 -207c-10 -24 -20 -36 -30 -41c9 -10 17 -24 23 -41c6 15 16 24 37 24c25 0 75 -30 75 -130zM205 325l2 -4c19 20 50 41 107 64c36 16 86 23 114 8
c-13 63 17 97 51 97c7 0 15 -2 23 -5c49 130 61 183 40 195c-13 8 -30 -4 -50 -51l-67 -153c-9 -21 -28 -29 -42 -29c-15 0 -34 13 -34 51l-1 78c-2 137 -18 179 -36 178c-21 -1 -35 -16 -22 -192l6 -80c2 -31 -9 -48 -30 -52c-20 -4 -37 3 -55 41l-62 133
c-22 46 -35 64 -49 56c-30 -17 -8 -108 105 -335zM454 265c0 -20 10 -35 30 -35c30 0 35 65 35 115c0 55 -20 105 -45 105c-15 0 -20 -10 -20 -25v-160zM559 365v-105c0 -20 0 -40 25 -40s35 60 35 100c0 50 -20 90 -40 90s-20 -25 -20 -45zM584 35c8 45 16 107 14 147
c-5 -1 -10 -2 -14 -2c-27 0 -42 15 -47 50c-14 -26 -33 -40 -53 -40c-45 0 -65 35 -65 75c0 12 3 25 7 37c-13 -15 -33 -32 -62 -52l-15 -10c-25 -20 -45 -10 -55 10c40 25 140 85 120 110c-5 10 -25 15 -90 -15c-75 -40 -95 -55 -105 -85c-15 -41 5 -155 40 -220
c45 25 107 40 170 40c60 0 115 -15 155 -45zM429 0c30 0 35 10 35 20s-5 20 -35 20c-40 0 -45 -10 -45 -20s5 -20 45 -20z" />
    <glyph glyph-name="space" unicode=" " horiz-adv-x="400" 
 />
    <glyph glyph-name="A" unicode="A" horiz-adv-x="942" 
d="M829 363l43 -363h-173l-18 173h-420l-18 -173h-173l43 363c31 263 144 347 358 347s327 -84 358 -347zM276 321h390l-18 179c-4 43 -27 52 -67 52h-220c-40 0 -63 -9 -67 -52z" />
    <glyph glyph-name="Aacute" unicode="&#xc1;" horiz-adv-x="942" 
d="M619 929l49 -100c-84 -37 -164 -64 -267 -85l-30 84c85 22 182 61 248 101zM829 363l43 -363h-173l-18 173h-420l-18 -173h-173l43 363c31 263 144 347 358 347s327 -84 358 -347zM276 321h390l-18 179c-4 43 -27 52 -67 52h-220c-40 0 -63 -9 -67 -52z" />
    <glyph glyph-name="Aacute" unicode="&#xe1;" horiz-adv-x="942" 
d="M619 929l49 -100c-84 -37 -164 -64 -267 -85l-30 84c85 22 182 61 248 101zM829 363l43 -363h-173l-18 173h-420l-18 -173h-173l43 363c31 263 144 347 358 347s327 -84 358 -347zM276 321h390l-18 179c-4 43 -27 52 -67 52h-220c-40 0 -63 -9 -67 -52z" />
    <glyph glyph-name="Acircumflex" unicode="&#xc2;" horiz-adv-x="942" 
d="M471 809c-48 -26 -96 -49 -157 -65l-30 84c64 22 137 57 187 101c50 -44 123 -79 187 -101l-30 -84c-61 16 -109 39 -157 65zM829 363l43 -363h-173l-18 173h-420l-18 -173h-173l43 363c31 263 144 347 358 347s327 -84 358 -347zM276 321h390l-18 179
c-4 43 -27 52 -67 52h-220c-40 0 -63 -9 -67 -52z" />
    <glyph glyph-name="Acircumflex" unicode="&#xe2;" horiz-adv-x="942" 
d="M471 809c-48 -26 -96 -49 -157 -65l-30 84c64 22 137 57 187 101c50 -44 123 -79 187 -101l-30 -84c-61 16 -109 39 -157 65zM829 363l43 -363h-173l-18 173h-420l-18 -173h-173l43 363c31 263 144 347 358 347s327 -84 358 -347zM276 321h390l-18 179
c-4 43 -27 52 -67 52h-220c-40 0 -63 -9 -67 -52z" />
    <glyph glyph-name="Adieresis" unicode="&#xc4;" horiz-adv-x="942" 
d="M353 754c-54 0 -83 29 -83 83c0 55 29 84 83 84c55 0 82 -29 82 -84c0 -54 -27 -83 -82 -83zM591 754c-55 0 -83 29 -83 83c0 55 28 84 83 84s82 -29 82 -84c0 -54 -27 -83 -82 -83zM829 363l43 -363h-173l-18 173h-420l-18 -173h-173l43 363c31 263 144 347 358 347
s327 -84 358 -347zM276 321h390l-18 179c-4 43 -27 52 -67 52h-220c-40 0 -63 -9 -67 -52z" />
    <glyph glyph-name="Adieresis" unicode="&#xe4;" horiz-adv-x="942" 
d="M353 754c-54 0 -83 29 -83 83c0 55 29 84 83 84c55 0 82 -29 82 -84c0 -54 -27 -83 -82 -83zM591 754c-55 0 -83 29 -83 83c0 55 28 84 83 84s82 -29 82 -84c0 -54 -27 -83 -82 -83zM829 363l43 -363h-173l-18 173h-420l-18 -173h-173l43 363c31 263 144 347 358 347
s327 -84 358 -347zM276 321h390l-18 179c-4 43 -27 52 -67 52h-220c-40 0 -63 -9 -67 -52z" />
    <glyph glyph-name="Agrave" unicode="&#xc0;" horiz-adv-x="942" 
d="M582 828l-30 -84c-103 21 -183 48 -267 85l49 100c66 -40 163 -79 248 -101zM829 363l43 -363h-173l-18 173h-420l-18 -173h-173l43 363c31 263 144 347 358 347s327 -84 358 -347zM276 321h390l-18 179c-4 43 -27 52 -67 52h-220c-40 0 -63 -9 -67 -52z" />
    <glyph glyph-name="Agrave" unicode="&#xe0;" horiz-adv-x="942" 
d="M582 828l-30 -84c-103 21 -183 48 -267 85l49 100c66 -40 163 -79 248 -101zM829 363l43 -363h-173l-18 173h-420l-18 -173h-173l43 363c31 263 144 347 358 347s327 -84 358 -347zM276 321h390l-18 179c-4 43 -27 52 -67 52h-220c-40 0 -63 -9 -67 -52z" />
    <glyph glyph-name="Aring" unicode="&#xc5;" horiz-adv-x="942" 
d="M829 363l43 -363h-173l-18 173h-420l-18 -173h-173l43 363c26 217 107 312 255 339c-15 18 -23 44 -23 75c0 78 44 118 126 118c84 0 125 -40 125 -118c0 -31 -7 -57 -22 -75c148 -27 229 -122 255 -339zM471 825c-37 0 -56 -21 -56 -58c0 -35 19 -56 56 -56s55 21 55 56
c0 37 -18 58 -55 58zM276 321h390l-18 179c-4 43 -27 52 -67 52h-220c-40 0 -63 -9 -67 -52z" />
    <glyph glyph-name="Aring" unicode="&#xe5;" horiz-adv-x="942" 
d="M829 363l43 -363h-173l-18 173h-420l-18 -173h-173l43 363c26 217 107 312 255 339c-15 18 -23 44 -23 75c0 78 44 118 126 118c84 0 125 -40 125 -118c0 -31 -7 -57 -22 -75c148 -27 229 -122 255 -339zM471 825c-37 0 -56 -21 -56 -58c0 -35 19 -56 56 -56s55 21 55 56
c0 37 -18 58 -55 58zM276 321h390l-18 179c-4 43 -27 52 -67 52h-220c-40 0 -63 -9 -67 -52z" />
    <glyph glyph-name="Atilde" unicode="&#xc3;" horiz-adv-x="942" 
d="M397 761c-90 0 -122 49 -140 152h98c18 -58 27 -68 47 -68c29 0 59 78 144 78c90 0 122 -49 140 -152h-98c-18 58 -27 68 -47 68c-29 0 -59 -78 -144 -78zM829 363l43 -363h-173l-18 173h-420l-18 -173h-173l43 363c31 263 144 347 358 347s327 -84 358 -347zM276 321
h390l-18 179c-4 43 -27 52 -67 52h-220c-40 0 -63 -9 -67 -52z" />
    <glyph glyph-name="Atilde" unicode="&#xe3;" horiz-adv-x="942" 
d="M397 761c-90 0 -122 49 -140 152h98c18 -58 27 -68 47 -68c29 0 59 78 144 78c90 0 122 -49 140 -152h-98c-18 58 -27 68 -47 68c-29 0 -59 -78 -144 -78zM829 363l43 -363h-173l-18 173h-420l-18 -173h-173l43 363c31 263 144 347 358 347s327 -84 358 -347zM276 321
h390l-18 179c-4 43 -27 52 -67 52h-220c-40 0 -63 -9 -67 -52z" />
    <glyph glyph-name="AE" unicode="&#xc6;" horiz-adv-x="1366" 
d="M789 276l15 -128h477v-148h-632l-18 173h-370l-18 -173h-173l43 363c29 255 134 337 333 337h825v-148h-515l17 -138h458v-138h-442zM276 321h340l-18 169c-4 43 -27 52 -67 52h-170c-40 0 -63 -9 -67 -52z" />
    <glyph glyph-name="AE" unicode="&#xe6;" horiz-adv-x="1366" 
d="M789 276l15 -128h477v-148h-632l-18 173h-370l-18 -173h-173l43 363c29 255 134 337 333 337h825v-148h-515l17 -138h458v-138h-442zM276 321h340l-18 169c-4 43 -27 52 -67 52h-170c-40 0 -63 -9 -67 -52z" />
    <glyph glyph-name="B" unicode="B" horiz-adv-x="946" 
d="M660 359c0 -15 6 -27 25 -27c18 0 46 4 86 3c59 -1 105 -42 105 -123c0 -143 -72 -212 -268 -212h-508v700h458c196 0 268 -65 268 -178c0 -70 -16 -130 -117 -136c-36 -2 -49 -8 -49 -27zM616 552h-348v-139h316c51 0 75 17 74 51l-1 45c-1 23 -10 43 -41 43zM268 148
h388c39 0 52 25 52 47v24c0 43 -27 68 -100 68h-340v-139z" />
    <glyph glyph-name="C" unicode="C" horiz-adv-x="914" 
d="M558 138c56 0 73 19 106 126h180c-37 -205 -130 -274 -376 -274c-279 0 -398 97 -398 360s119 360 398 360c258 7 345 -65 376 -274h-180c-27 88 -46 126 -106 126h-221c-52 0 -87 -34 -87 -86v-252c0 -52 35 -86 87 -86h221z" />
    <glyph glyph-name="Ccedilla" unicode="&#xc7;" horiz-adv-x="914" 
d="M558 138c56 0 73 19 106 126h180c-34 -188 -115 -262 -318 -273l-24 -55c28 16 50 22 82 22c63 0 84 -38 84 -75c0 -81 -65 -113 -216 -113c-134 0 -185 38 -205 149h98c18 -58 27 -68 58 -68h133c23 0 34 10 34 28c0 22 -9 30 -31 30c-16 0 -34 -8 -49 -25h-87l42 106
c-263 6 -375 104 -375 360c0 263 119 360 398 360c258 7 345 -65 376 -274h-180c-27 88 -46 126 -106 126h-221c-52 0 -87 -34 -87 -86v-252c0 -52 35 -86 87 -86h221z" />
    <glyph glyph-name="Ccedilla" unicode="&#xe7;" horiz-adv-x="914" 
d="M558 138c56 0 73 19 106 126h180c-34 -188 -115 -262 -318 -273l-24 -55c28 16 50 22 82 22c63 0 84 -38 84 -75c0 -81 -65 -113 -216 -113c-134 0 -185 38 -205 149h98c18 -58 27 -68 58 -68h133c23 0 34 10 34 28c0 22 -9 30 -31 30c-16 0 -34 -8 -49 -25h-87l42 106
c-263 6 -375 104 -375 360c0 263 119 360 398 360c258 7 345 -65 376 -274h-180c-27 88 -46 126 -106 126h-221c-52 0 -87 -34 -87 -86v-252c0 -52 35 -86 87 -86h221z" />
    <glyph glyph-name="D" unicode="D" horiz-adv-x="966" 
d="M438 700c338 0 458 -87 458 -350s-120 -350 -458 -350h-338v700h338zM268 148h173c232 0 275 14 275 202s-46 202 -278 202h-170v-404z" />
    <glyph glyph-name="E" unicode="E" horiz-adv-x="886" 
d="M268 276v-128h533v-148h-701v700h691v-148h-523v-138h483v-138h-483z" />
    <glyph glyph-name="Eacute" unicode="&#xc9;" horiz-adv-x="886" 
d="M377 744l-30 84c85 22 182 61 248 101l49 -100c-84 -37 -164 -64 -267 -85zM268 276v-128h533v-148h-701v700h691v-148h-523v-138h483v-138h-483z" />
    <glyph glyph-name="Eacute" unicode="&#xe9;" horiz-adv-x="886" 
d="M377 744l-30 84c85 22 182 61 248 101l49 -100c-84 -37 -164 -64 -267 -85zM268 276v-128h533v-148h-701v700h691v-148h-523v-138h483v-138h-483z" />
    <glyph glyph-name="Ecircumflex" unicode="&#xca;" horiz-adv-x="886" 
d="M447 809c-48 -26 -96 -49 -157 -65l-30 84c64 22 137 57 187 101c50 -44 123 -79 187 -101l-30 -84c-61 16 -109 39 -157 65zM268 276v-128h533v-148h-701v700h691v-148h-523v-138h483v-138h-483z" />
    <glyph glyph-name="Ecircumflex" unicode="&#xea;" horiz-adv-x="886" 
d="M447 809c-48 -26 -96 -49 -157 -65l-30 84c64 22 137 57 187 101c50 -44 123 -79 187 -101l-30 -84c-61 16 -109 39 -157 65zM268 276v-128h533v-148h-701v700h691v-148h-523v-138h483v-138h-483z" />
    <glyph glyph-name="Edieresis" unicode="&#xcb;" horiz-adv-x="886" 
d="M329 754c-54 0 -83 29 -83 83c0 55 29 84 83 84c55 0 82 -29 82 -84c0 -54 -27 -83 -82 -83zM567 754c-55 0 -83 29 -83 83c0 55 28 84 83 84s82 -29 82 -84c0 -54 -27 -83 -82 -83zM268 276v-128h533v-148h-701v700h691v-148h-523v-138h483v-138h-483z" />
    <glyph glyph-name="Edieresis" unicode="&#xeb;" horiz-adv-x="886" 
d="M329 754c-54 0 -83 29 -83 83c0 55 29 84 83 84c55 0 82 -29 82 -84c0 -54 -27 -83 -82 -83zM567 754c-55 0 -83 29 -83 83c0 55 28 84 83 84s82 -29 82 -84c0 -54 -27 -83 -82 -83zM268 276v-128h533v-148h-701v700h691v-148h-523v-138h483v-138h-483z" />
    <glyph glyph-name="Egrave" unicode="&#xc8;" horiz-adv-x="886" 
d="M558 828l-30 -84c-103 21 -183 48 -267 85l49 100c66 -40 163 -79 248 -101zM268 276v-128h533v-148h-701v700h691v-148h-523v-138h483v-138h-483z" />
    <glyph glyph-name="Egrave" unicode="&#xe8;" horiz-adv-x="886" 
d="M558 828l-30 -84c-103 21 -183 48 -267 85l49 100c66 -40 163 -79 248 -101zM268 276v-128h533v-148h-701v700h691v-148h-523v-138h483v-138h-483z" />
    <glyph glyph-name="F" unicode="F" horiz-adv-x="861" 
d="M791 700v-148h-523v-158h483v-138h-483v-256h-168v700h691z" />
    <glyph glyph-name="G" unicode="G" horiz-adv-x="976" 
d="M369 263v138h522v-401h-82l-53 251c-2 10 -5 12 -16 12c-9 0 -10 0 -20 -19c-105 -209 -156 -254 -367 -254c-176 6 -283 117 -283 360c0 263 114 360 401 360c268 0 351 -65 390 -178l19 -56h-183c-20 52 -39 86 -111 86h-249c-52 0 -87 -34 -87 -86v-260
c0 -45 28 -78 71 -78h130c40 0 82 20 104 50l56 75h-242z" />
    <glyph glyph-name="H" unicode="H" horiz-adv-x="1042" 
d="M774 431v269h168v-700h-168v283h-506v-283h-168v700h168v-269h506z" />
    <glyph glyph-name="I" unicode="I" horiz-adv-x="368" 
d="M100 0v700h168v-700h-168z" />
    <glyph glyph-name="Iacute" unicode="&#xcd;" horiz-adv-x="368" 
d="M114 744l-30 84c85 22 182 61 248 101l49 -100c-84 -37 -164 -64 -267 -85zM100 0v700h168v-700h-168z" />
    <glyph glyph-name="Iacute" unicode="&#xed;" horiz-adv-x="368" 
d="M114 744l-30 84c85 22 182 61 248 101l49 -100c-84 -37 -164 -64 -267 -85zM100 0v700h168v-700h-168z" />
    <glyph glyph-name="Icircumflex" unicode="&#xce;" horiz-adv-x="368" 
d="M184 929c50 -44 123 -79 187 -101l-30 -84c-61 16 -109 39 -157 65c-48 -26 -96 -49 -157 -65l-30 84c64 22 137 57 187 101zM268 0h-168v700h168v-700z" />
    <glyph glyph-name="Icircumflex" unicode="&#xee;" horiz-adv-x="368" 
d="M184 929c50 -44 123 -79 187 -101l-30 -84c-61 16 -109 39 -157 65c-48 -26 -96 -49 -157 -65l-30 84c64 22 137 57 187 101zM268 0h-168v700h168v-700z" />
    <glyph glyph-name="Idieresis" unicode="&#xcf;" horiz-adv-x="368" 
d="M66 754c-54 0 -83 29 -83 83c0 55 29 84 83 84c55 0 82 -29 82 -84c0 -54 -27 -83 -82 -83zM304 754c-55 0 -83 29 -83 83c0 55 28 84 83 84s82 -29 82 -84c0 -54 -27 -83 -82 -83zM100 0v700h168v-700h-168z" />
    <glyph glyph-name="Idieresis" unicode="&#xef;" horiz-adv-x="368" 
d="M66 754c-54 0 -83 29 -83 83c0 55 29 84 83 84c55 0 82 -29 82 -84c0 -54 -27 -83 -82 -83zM304 754c-55 0 -83 29 -83 83c0 55 28 84 83 84s82 -29 82 -84c0 -54 -27 -83 -82 -83zM100 0v700h168v-700h-168z" />
    <glyph glyph-name="Igrave" unicode="&#xcc;" horiz-adv-x="368" 
d="M295 828l-30 -84c-103 21 -183 48 -267 85l49 100c66 -40 163 -79 248 -101zM100 0v700h168v-700h-168z" />
    <glyph glyph-name="Igrave" unicode="&#xec;" horiz-adv-x="368" 
d="M295 828l-30 -84c-103 21 -183 48 -267 85l49 100c66 -40 163 -79 248 -101zM100 0v700h168v-700h-168z" />
    <glyph glyph-name="J" unicode="J" horiz-adv-x="408" 
d="M150 207v493h168v-450c0 -163 -80 -249 -268 -249v158l56 1c38 0 44 9 44 47z" />
    <glyph glyph-name="K" unicode="K" horiz-adv-x="947" 
d="M869 19v-19h-185l-80 220c-15 42 -14 47 -48 47h-288v-267h-168v700h168v-316h32c72 0 95 4 134 47l242 269h216v-19l-190 -206c-44 -47 -101 -67 -143 -76c-27 -6 -35 -15 -30 -35c5 -22 15 -24 31 -24c19 0 37 12 75 12c67 0 105 -30 141 -114z" />
    <glyph glyph-name="L" unicode="L" horiz-adv-x="773" 
d="M713 0h-613v700h168v-552h445v-148z" />
    <glyph glyph-name="M" unicode="M" horiz-adv-x="1360" 
d="M1226 530l64 -530h-175l-52 515c-2 22 -8 27 -26 27h-39c-14 0 -21 -10 -25 -26l-106 -388c-22 -81 -71 -138 -187 -138s-165 57 -187 138l-106 388c-4 16 -11 26 -25 26h-39c-18 0 -24 -5 -26 -27l-52 -515h-175l64 530c16 133 110 180 204 180c79 0 166 -31 197 -148
l107 -406c2 -7 8 -11 14 -11h48c6 0 12 4 14 11l107 406c31 117 118 148 197 148c94 0 188 -47 204 -180z" />
    <glyph glyph-name="N" unicode="N" horiz-adv-x="1083" 
d="M815 183v517h168v-528c0 -144 -103 -182 -197 -182c-77 0 -134 22 -208 150l-218 375c-11 20 -13 27 -27 27h-44c-14 0 -21 -9 -21 -23v-519h-168v530c0 144 101 182 195 182c77 0 148 -19 208 -125l219 -388c11 -20 19 -39 43 -39h29c14 0 21 9 21 23z" />
    <glyph glyph-name="Ntilde" unicode="&#xd1;" horiz-adv-x="1083" 
d="M322 913h98c18 -58 27 -68 47 -68c29 0 59 78 144 78c90 0 122 -49 140 -152h-98c-18 58 -27 68 -47 68c-29 0 -59 -78 -144 -78c-90 0 -122 49 -140 152zM815 183v517h168v-528c0 -144 -103 -182 -197 -182c-77 0 -134 22 -208 150l-218 375c-11 20 -13 27 -27 27h-44
c-14 0 -21 -9 -21 -23v-519h-168v530c0 144 101 182 195 182c77 0 148 -19 208 -125l219 -388c11 -20 19 -39 43 -39h29c14 0 21 9 21 23z" />
    <glyph glyph-name="Ntilde" unicode="&#xf1;" horiz-adv-x="1083" 
d="M322 913h98c18 -58 27 -68 47 -68c29 0 59 78 144 78c90 0 122 -49 140 -152h-98c-18 58 -27 68 -47 68c-29 0 -59 -78 -144 -78c-90 0 -122 49 -140 152zM815 183v517h168v-528c0 -144 -103 -182 -197 -182c-77 0 -134 22 -208 150l-218 375c-11 20 -13 27 -27 27h-44
c-14 0 -21 -9 -21 -23v-519h-168v530c0 144 101 182 195 182c77 0 148 -19 208 -125l219 -388c11 -20 19 -39 43 -39h29c14 0 21 9 21 23z" />
    <glyph glyph-name="O" unicode="O" 
d="M478 710c288 0 408 -97 408 -360s-120 -360 -408 -360s-408 97 -408 360s120 360 408 360zM478 138c182 0 228 24 228 212s-46 212 -228 212s-228 -24 -228 -212s46 -212 228 -212z" />
    <glyph glyph-name="Oacute" unicode="&#xd3;" 
d="M626 929l49 -100c-84 -37 -164 -64 -267 -85l-30 84c85 22 182 61 248 101zM478 710c288 0 408 -97 408 -360s-120 -360 -408 -360s-408 97 -408 360s120 360 408 360zM478 138c182 0 228 24 228 212s-46 212 -228 212s-228 -24 -228 -212s46 -212 228 -212z" />
    <glyph glyph-name="Oacute" unicode="&#xf3;" 
d="M626 929l49 -100c-84 -37 -164 -64 -267 -85l-30 84c85 22 182 61 248 101zM478 710c288 0 408 -97 408 -360s-120 -360 -408 -360s-408 97 -408 360s120 360 408 360zM478 138c182 0 228 24 228 212s-46 212 -228 212s-228 -24 -228 -212s46 -212 228 -212z" />
    <glyph glyph-name="Ocircumflex" unicode="&#xd4;" 
d="M478 809c-48 -26 -96 -49 -157 -65l-30 84c64 22 137 57 187 101c50 -44 123 -79 187 -101l-30 -84c-61 16 -109 39 -157 65zM478 710c288 0 408 -97 408 -360s-120 -360 -408 -360s-408 97 -408 360s120 360 408 360zM478 138c182 0 228 24 228 212s-46 212 -228 212
s-228 -24 -228 -212s46 -212 228 -212z" />
    <glyph glyph-name="Ocircumflex" unicode="&#xf4;" 
d="M478 809c-48 -26 -96 -49 -157 -65l-30 84c64 22 137 57 187 101c50 -44 123 -79 187 -101l-30 -84c-61 16 -109 39 -157 65zM478 710c288 0 408 -97 408 -360s-120 -360 -408 -360s-408 97 -408 360s120 360 408 360zM478 138c182 0 228 24 228 212s-46 212 -228 212
s-228 -24 -228 -212s46 -212 228 -212z" />
    <glyph glyph-name="Odieresis" unicode="&#xd6;" 
d="M360 754c-54 0 -83 29 -83 83c0 55 29 84 83 84c55 0 82 -29 82 -84c0 -54 -27 -83 -82 -83zM598 754c-55 0 -83 29 -83 83c0 55 28 84 83 84s82 -29 82 -84c0 -54 -27 -83 -82 -83zM478 710c288 0 408 -97 408 -360s-120 -360 -408 -360s-408 97 -408 360
s120 360 408 360zM478 138c182 0 228 24 228 212s-46 212 -228 212s-228 -24 -228 -212s46 -212 228 -212z" />
    <glyph glyph-name="Odieresis" unicode="&#xf6;" 
d="M360 754c-54 0 -83 29 -83 83c0 55 29 84 83 84c55 0 82 -29 82 -84c0 -54 -27 -83 -82 -83zM598 754c-55 0 -83 29 -83 83c0 55 28 84 83 84s82 -29 82 -84c0 -54 -27 -83 -82 -83zM478 710c288 0 408 -97 408 -360s-120 -360 -408 -360s-408 97 -408 360
s120 360 408 360zM478 138c182 0 228 24 228 212s-46 212 -228 212s-228 -24 -228 -212s46 -212 228 -212z" />
    <glyph glyph-name="Ograve" unicode="&#xd2;" 
d="M589 828l-30 -84c-103 21 -183 48 -267 85l49 100c66 -40 163 -79 248 -101zM478 710c288 0 408 -97 408 -360s-120 -360 -408 -360s-408 97 -408 360s120 360 408 360zM478 138c182 0 228 24 228 212s-46 212 -228 212s-228 -24 -228 -212s46 -212 228 -212z" />
    <glyph glyph-name="Ograve" unicode="&#xf2;" 
d="M589 828l-30 -84c-103 21 -183 48 -267 85l49 100c66 -40 163 -79 248 -101zM478 710c288 0 408 -97 408 -360s-120 -360 -408 -360s-408 97 -408 360s120 360 408 360zM478 138c182 0 228 24 228 212s-46 212 -228 212s-228 -24 -228 -212s46 -212 228 -212z" />
    <glyph glyph-name="Otilde" unicode="&#xd5;" 
d="M404 761c-90 0 -122 49 -140 152h98c18 -58 27 -68 47 -68c29 0 59 78 144 78c90 0 122 -49 140 -152h-98c-18 58 -27 68 -47 68c-29 0 -59 -78 -144 -78zM478 710c288 0 408 -97 408 -360s-120 -360 -408 -360s-408 97 -408 360s120 360 408 360zM478 138
c182 0 228 24 228 212s-46 212 -228 212s-228 -24 -228 -212s46 -212 228 -212z" />
    <glyph glyph-name="Otilde" unicode="&#xf5;" 
d="M404 761c-90 0 -122 49 -140 152h98c18 -58 27 -68 47 -68c29 0 59 78 144 78c90 0 122 -49 140 -152h-98c-18 58 -27 68 -47 68c-29 0 -59 -78 -144 -78zM478 710c288 0 408 -97 408 -360s-120 -360 -408 -360s-408 97 -408 360s120 360 408 360zM478 138
c182 0 228 24 228 212s-46 212 -228 212s-228 -24 -228 -212s46 -212 228 -212z" />
    <glyph glyph-name="OE" unicode="&#x152;" horiz-adv-x="1384" 
d="M816 276v-128h483v-148h-771c-338 0 -458 87 -458 350s120 350 458 350h761v-148h-473v-138h433v-138h-433zM528 148h120v404h-120c-232 0 -278 -14 -278 -202s46 -202 278 -202z" />
    <glyph glyph-name="OE" unicode="&#x153;" horiz-adv-x="1384" 
d="M816 276v-128h483v-148h-771c-338 0 -458 87 -458 350s120 350 458 350h761v-148h-473v-138h433v-138h-433zM528 148h120v404h-120c-232 0 -278 -14 -278 -202s46 -202 278 -202z" />
    <glyph glyph-name="P" unicode="P" horiz-adv-x="906" 
d="M100 700h468c196 0 268 -56 268 -243c0 -118 -38 -241 -246 -241h-322v-216h-168v700zM268 363h331c45 0 69 0 69 94c0 82 -24 95 -69 95h-331v-189z" />
    <glyph glyph-name="Q" unicode="Q" 
d="M886 350c0 -131 -41 -225 -120 -285l90 -147v-19h-167l-61 106c-45 -10 -95 -15 -150 -15c-288 0 -408 97 -408 360s120 360 408 360s408 -97 408 -360zM478 562c-160 0 -215 -19 -226 -152h166c121 0 166 -48 214 -126l56 -92c15 33 18 83 18 158
c0 188 -46 212 -228 212zM478 128c29 0 55 0 78 2l-73 125c-15 27 -31 42 -60 42h-172c9 -149 63 -169 227 -169z" />
    <glyph glyph-name="R" unicode="R" horiz-adv-x="937" 
d="M268 0h-168v700h468c196 0 268 -46 268 -212c0 -90 -50 -178 -171 -180c-38 0 -86 12 -105 12c-16 0 -26 -2 -31 -24c-5 -20 3 -29 30 -35c42 -9 96 -32 143 -76l190 -166v-19h-226l-213 209c-34 34 -62 47 -117 47h-68v-256zM268 552v-149h351c34 0 48 4 48 47v58
c0 36 -15 44 -48 44h-351z" />
    <glyph glyph-name="S" unicode="S" horiz-adv-x="901" 
d="M355 434l235 -49c200 -41 231 -105 231 -197c0 -135 -132 -198 -350 -198c-208 0 -349 57 -383 168l-18 58h182c28 -52 35 -87 165 -87h161c59 0 63 12 63 49s-7 45 -78 61l-225 50c-171 38 -252 96 -252 200c0 143 103 221 374 221c209 0 304 -73 334 -178l16 -56h-181
c-17 62 -46 85 -103 85l-207 -1c-45 0 -55 -12 -55 -53c0 -35 9 -56 91 -73z" />
    <glyph glyph-name="uni1E9E" unicode="&#x1e9e;" horiz-adv-x="1108" 
d="M413 462l329 71v34h-424c-42 0 -50 -11 -50 -52v-515h-168v500c0 136 69 200 203 200h589v-249l-329 -72v-32h156c270 0 329 -79 329 -179c0 -122 -117 -178 -310 -178c-208 0 -338 53 -373 153l-13 38h182c36 -51 50 -67 160 -67h111c50 0 63 7 63 54
c0 41 -19 51 -78 51h-377v243z" />
    <glyph glyph-name="T" unicode="T" horiz-adv-x="853" 
d="M60 700h733v-148h-282v-552h-168v552h-283v148z" />
    <glyph glyph-name="U" unicode="U" horiz-adv-x="936" 
d="M678 350v350h168v-350c0 -263 -120 -360 -378 -360s-378 97 -378 360v350h168v-350c0 -188 46 -212 210 -212s210 24 210 212z" />
    <glyph glyph-name="Uacute" unicode="&#xda;" horiz-adv-x="936" 
d="M609 929l49 -100c-84 -37 -164 -64 -267 -85l-30 84c85 22 182 61 248 101zM678 350v350h168v-350c0 -263 -120 -360 -378 -360s-378 97 -378 360v350h168v-350c0 -188 46 -212 210 -212s210 24 210 212z" />
    <glyph glyph-name="Uacute" unicode="&#xfa;" horiz-adv-x="936" 
d="M609 929l49 -100c-84 -37 -164 -64 -267 -85l-30 84c85 22 182 61 248 101zM678 350v350h168v-350c0 -263 -120 -360 -378 -360s-378 97 -378 360v350h168v-350c0 -188 46 -212 210 -212s210 24 210 212z" />
    <glyph glyph-name="Ucircumflex" unicode="&#xdb;" horiz-adv-x="936" 
d="M461 809c-48 -26 -96 -49 -157 -65l-30 84c64 22 137 57 187 101c50 -44 123 -79 187 -101l-30 -84c-61 16 -109 39 -157 65zM678 350v350h168v-350c0 -263 -120 -360 -378 -360s-378 97 -378 360v350h168v-350c0 -188 46 -212 210 -212s210 24 210 212z" />
    <glyph glyph-name="Ucircumflex" unicode="&#xfb;" horiz-adv-x="936" 
d="M461 809c-48 -26 -96 -49 -157 -65l-30 84c64 22 137 57 187 101c50 -44 123 -79 187 -101l-30 -84c-61 16 -109 39 -157 65zM678 350v350h168v-350c0 -263 -120 -360 -378 -360s-378 97 -378 360v350h168v-350c0 -188 46 -212 210 -212s210 24 210 212z" />
    <glyph glyph-name="Udieresis" unicode="&#xdc;" horiz-adv-x="936" 
d="M343 754c-54 0 -83 29 -83 83c0 55 29 84 83 84c55 0 82 -29 82 -84c0 -54 -27 -83 -82 -83zM581 754c-55 0 -83 29 -83 83c0 55 28 84 83 84s82 -29 82 -84c0 -54 -27 -83 -82 -83zM678 350v350h168v-350c0 -263 -120 -360 -378 -360s-378 97 -378 360v350h168v-350
c0 -188 46 -212 210 -212s210 24 210 212z" />
    <glyph glyph-name="Udieresis" unicode="&#xfc;" horiz-adv-x="936" 
d="M343 754c-54 0 -83 29 -83 83c0 55 29 84 83 84c55 0 82 -29 82 -84c0 -54 -27 -83 -82 -83zM581 754c-55 0 -83 29 -83 83c0 55 28 84 83 84s82 -29 82 -84c0 -54 -27 -83 -82 -83zM678 350v350h168v-350c0 -263 -120 -360 -378 -360s-378 97 -378 360v350h168v-350
c0 -188 46 -212 210 -212s210 24 210 212z" />
    <glyph glyph-name="Ugrave" unicode="&#xd9;" horiz-adv-x="936" 
d="M572 828l-30 -84c-103 21 -183 48 -267 85l49 100c66 -40 163 -79 248 -101zM678 350v350h168v-350c0 -263 -120 -360 -378 -360s-378 97 -378 360v350h168v-350c0 -188 46 -212 210 -212s210 24 210 212z" />
    <glyph glyph-name="Ugrave" unicode="&#xf9;" horiz-adv-x="936" 
d="M572 828l-30 -84c-103 21 -183 48 -267 85l49 100c66 -40 163 -79 248 -101zM678 350v350h168v-350c0 -263 -120 -360 -378 -360s-378 97 -378 360v350h168v-350c0 -188 46 -212 210 -212s210 24 210 212z" />
    <glyph glyph-name="V" unicode="V" horiz-adv-x="880" 
d="M486 156l196 544h168v-19l-226 -578c-22 -56 -64 -113 -180 -113c-121 0 -165 57 -197 137l-217 554v19h178l192 -541c4 -10 10 -14 19 -14h53c6 0 12 4 14 11z" />
    <glyph glyph-name="W" unicode="W" horiz-adv-x="1360" 
d="M1063 185l52 515h175l-64 -530c-16 -133 -110 -180 -204 -180c-79 0 -166 31 -197 148l-107 406c-2 7 -8 11 -14 11h-48c-6 0 -12 -4 -14 -11l-107 -406c-31 -117 -118 -148 -197 -148c-94 0 -188 47 -204 180l-64 530h175l52 -515c2 -22 8 -27 26 -27h39
c14 0 21 10 25 26l106 388c22 81 71 138 187 138s165 -57 187 -138l106 -388c4 -16 11 -26 25 -26h39c18 0 24 5 26 27z" />
    <glyph glyph-name="X" unicode="X" horiz-adv-x="983" 
d="M289 255l-46 -255h-173l41 200c27 130 35 140 110 145c42 3 52 7 52 27c0 15 -8 21 -34 32c-113 48 -114 67 -146 249l-9 47h174l21 -119c12 -67 16 -75 72 -96l244 -91c41 -15 48 -7 58 44l51 262h175l-53 -245c-14 -64 -26 -69 -72 -69c-27 0 -37 0 -41 -14
c-6 -19 3 -24 26 -34l39 -17c70 -31 89 -66 107 -165l28 -156h-173l-28 153c-9 49 -11 50 -54 66l-242 89c-91 33 -115 13 -127 -53z" />
    <glyph glyph-name="Y" unicode="Y" horiz-adv-x="942" 
d="M688 429l32 271h172l-18 -143c-29 -232 -123 -325 -320 -343l1 -214h-168v214c-201 18 -291 111 -319 343l-18 143h172l32 -271c6 -53 34 -71 94 -71h246c60 0 88 18 94 71z" />
    <glyph glyph-name="Yacute" unicode="&#xdd;" horiz-adv-x="942" 
d="M609 929l49 -100c-84 -37 -164 -64 -267 -85l-30 84c85 22 182 61 248 101zM688 429l32 271h172l-18 -143c-29 -232 -123 -325 -320 -343l1 -214h-168v214c-201 18 -291 111 -319 343l-18 143h172l32 -271c6 -53 34 -71 94 -71h246c60 0 88 18 94 71z" />
    <glyph glyph-name="Yacute" unicode="&#xfd;" horiz-adv-x="942" 
d="M609 929l49 -100c-84 -37 -164 -64 -267 -85l-30 84c85 22 182 61 248 101zM688 429l32 271h172l-18 -143c-29 -232 -123 -325 -320 -343l1 -214h-168v214c-201 18 -291 111 -319 343l-18 143h172l32 -271c6 -53 34 -71 94 -71h246c60 0 88 18 94 71z" />
    <glyph glyph-name="Ycircumflex" unicode="&#x176;" horiz-adv-x="942" 
d="M461 809c-48 -26 -96 -49 -157 -65l-30 84c64 22 137 57 187 101c50 -44 123 -79 187 -101l-30 -84c-61 16 -109 39 -157 65zM688 429l32 271h172l-18 -143c-29 -232 -123 -325 -320 -343l1 -214h-168v214c-201 18 -291 111 -319 343l-18 143h172l32 -271
c6 -53 34 -71 94 -71h246c60 0 88 18 94 71z" />
    <glyph glyph-name="Ycircumflex" unicode="&#x177;" horiz-adv-x="942" 
d="M461 809c-48 -26 -96 -49 -157 -65l-30 84c64 22 137 57 187 101c50 -44 123 -79 187 -101l-30 -84c-61 16 -109 39 -157 65zM688 429l32 271h172l-18 -143c-29 -232 -123 -325 -320 -343l1 -214h-168v214c-201 18 -291 111 -319 343l-18 143h172l32 -271
c6 -53 34 -71 94 -71h246c60 0 88 18 94 71z" />
    <glyph glyph-name="Ydieresis" unicode="&#xff;" horiz-adv-x="942" 
d="M343 754c-54 0 -83 29 -83 83c0 55 29 84 83 84c55 0 82 -29 82 -84c0 -54 -27 -83 -82 -83zM581 754c-55 0 -83 29 -83 83c0 55 28 84 83 84s82 -29 82 -84c0 -54 -27 -83 -82 -83zM688 429l32 271h172l-18 -143c-29 -232 -123 -325 -320 -343l1 -214h-168v214
c-201 18 -291 111 -319 343l-18 143h172l32 -271c6 -53 34 -71 94 -71h246c60 0 88 18 94 71z" />
    <glyph glyph-name="Ydieresis" unicode="&#x178;" horiz-adv-x="942" 
d="M343 754c-54 0 -83 29 -83 83c0 55 29 84 83 84c55 0 82 -29 82 -84c0 -54 -27 -83 -82 -83zM581 754c-55 0 -83 29 -83 83c0 55 28 84 83 84s82 -29 82 -84c0 -54 -27 -83 -82 -83zM688 429l32 271h172l-18 -143c-29 -232 -123 -325 -320 -343l1 -214h-168v214
c-201 18 -291 111 -319 343l-18 143h172l32 -271c6 -53 34 -71 94 -71h246c60 0 88 18 94 71z" />
    <glyph glyph-name="Ygrave" unicode="&#x1ef2;" horiz-adv-x="942" 
d="M572 828l-30 -84c-103 21 -183 48 -267 85l49 100c66 -40 163 -79 248 -101zM688 429l32 271h172l-18 -143c-29 -232 -123 -325 -320 -343l1 -214h-168v214c-201 18 -291 111 -319 343l-18 143h172l32 -271c6 -53 34 -71 94 -71h246c60 0 88 18 94 71z" />
    <glyph glyph-name="Ygrave" unicode="&#x1ef3;" horiz-adv-x="942" 
d="M572 828l-30 -84c-103 21 -183 48 -267 85l49 100c66 -40 163 -79 248 -101zM688 429l32 271h172l-18 -143c-29 -232 -123 -325 -320 -343l1 -214h-168v214c-201 18 -291 111 -319 343l-18 143h172l32 -271c6 -53 34 -71 94 -71h246c60 0 88 18 94 71z" />
    <glyph glyph-name="Z" unicode="Z" horiz-adv-x="900" 
d="M104 0v313l538 180v59h-542v148h696v-313l-538 -180v-59h542v-148h-696z" />
    <glyph glyph-name="A.ss01" horiz-adv-x="986" 
d="M213 0h-183l190 523c51 138 140 187 273 187s223 -49 273 -187l190 -523h-183l-162 496c-14 44 -22 46 -51 46c-33 0 -42 -9 -42 -144c0 -161 86 -219 86 -317c0 -68 -41 -92 -111 -92s-111 24 -111 92c0 98 86 156 86 317c0 135 -9 144 -42 144c-29 0 -37 -2 -51 -46z
" />
    <glyph glyph-name="Aacute.ss01" horiz-adv-x="986" 
d="M423 744l-30 84c85 22 182 61 248 101l49 -100c-84 -37 -164 -64 -267 -85zM213 0h-183l190 523c51 138 140 187 273 187s223 -49 273 -187l190 -523h-183l-162 496c-14 44 -22 46 -51 46c-33 0 -42 -9 -42 -144c0 -161 86 -219 86 -317c0 -68 -41 -92 -111 -92
s-111 24 -111 92c0 98 86 156 86 317c0 135 -9 144 -42 144c-29 0 -37 -2 -51 -46z" />
    <glyph glyph-name="Acircumflex.ss01" horiz-adv-x="986" 
d="M493 809c-48 -26 -96 -49 -157 -65l-30 84c64 22 137 57 187 101c50 -44 123 -79 187 -101l-30 -84c-61 16 -109 39 -157 65zM766 523l190 -523h-183l-162 496c-14 44 -22 46 -51 46c-33 0 -42 -9 -42 -144c0 -161 86 -219 86 -317c0 -68 -41 -92 -111 -92
s-111 24 -111 92c0 98 86 156 86 317c0 135 -9 144 -42 144c-29 0 -37 -2 -51 -46l-162 -496h-183l190 523c51 138 140 187 273 187s223 -49 273 -187z" />
    <glyph glyph-name="Adieresis.ss01" horiz-adv-x="986" 
d="M375 754c-54 0 -83 29 -83 83c0 55 29 84 83 84c55 0 82 -29 82 -84c0 -54 -27 -83 -82 -83zM613 754c-55 0 -83 29 -83 83c0 55 28 84 83 84s82 -29 82 -84c0 -54 -27 -83 -82 -83zM213 0h-183l190 523c51 138 140 187 273 187s223 -49 273 -187l190 -523h-183l-162 496
c-14 44 -22 46 -51 46c-33 0 -42 -9 -42 -144c0 -161 86 -219 86 -317c0 -68 -41 -92 -111 -92s-111 24 -111 92c0 98 86 156 86 317c0 135 -9 144 -42 144c-29 0 -37 -2 -51 -46z" />
    <glyph glyph-name="Agrave.ss01" horiz-adv-x="986" 
d="M597 828l-30 -84c-103 21 -183 48 -267 85l49 100c66 -40 163 -79 248 -101zM213 0h-183l190 523c51 138 140 187 273 187s223 -49 273 -187l190 -523h-183l-162 496c-14 44 -22 46 -51 46c-33 0 -42 -9 -42 -144c0 -161 86 -219 86 -317c0 -68 -41 -92 -111 -92
s-111 24 -111 92c0 98 86 156 86 317c0 135 -9 144 -42 144c-29 0 -37 -2 -51 -46z" />
    <glyph glyph-name="Aring.ss01" horiz-adv-x="986" 
d="M766 523l190 -523h-183l-162 496c-14 44 -22 46 -51 46c-33 0 -42 -9 -42 -144c0 -161 86 -219 86 -317c0 -68 -41 -92 -111 -92s-111 24 -111 92c0 98 86 156 86 317c0 135 -9 144 -42 144c-29 0 -37 -2 -51 -46l-162 -496h-183l190 523c37 100 94 153 173 175
c-17 19 -26 45 -26 79c0 78 44 118 126 118c84 0 125 -40 125 -118c0 -34 -8 -60 -25 -79c79 -22 137 -75 173 -175zM493 825c-37 0 -56 -21 -56 -58c0 -35 19 -56 56 -56s55 21 55 56c0 37 -18 58 -55 58z" />
    <glyph glyph-name="Atilde.ss01" horiz-adv-x="986" 
d="M279 913h98c18 -58 27 -68 47 -68c29 0 59 78 144 78c90 0 122 -49 140 -152h-98c-18 58 -27 68 -47 68c-29 0 -59 -78 -144 -78c-90 0 -122 49 -140 152zM213 0h-183l190 523c51 138 140 187 273 187s223 -49 273 -187l190 -523h-183l-162 496c-14 44 -22 46 -51 46
c-33 0 -42 -9 -42 -144c0 -161 86 -219 86 -317c0 -68 -41 -92 -111 -92s-111 24 -111 92c0 98 86 156 86 317c0 135 -9 144 -42 144c-29 0 -37 -2 -51 -46z" />
    <glyph glyph-name="AE.ss01" horiz-adv-x="1366" 
d="M760 148h521v-148h-540c-87 0 -168 43 -148 132c8 36 2 61 -27 61c-41 0 -109 -20 -235 -20h-70l-18 -173h-173l43 373c29 255 134 337 333 337c115 0 165 -50 185 -50c25 0 35 40 125 40h515v-148h-511c-16 0 -23 -10 -14 -29l45 -92c4 -9 11 -12 22 -12h418v-138h-418
c-11 0 -18 -3 -22 -12l-45 -92c-9 -19 -2 -29 14 -29zM645 301c23 0 31 11 31 40c0 25 -1 34 -22 46c-59 34 -78 74 -85 111c-8 43 -17 54 -38 54h-170c-40 0 -63 -9 -67 -52l-18 -179h177c81 0 132 -20 192 -20z" />
    <glyph glyph-name="B.ss01" horiz-adv-x="914" 
d="M521 318h158c117 0 165 -42 165 -128c0 -134 -89 -190 -368 -190h-376v700h346c259 0 378 -31 378 -185c0 -89 -52 -137 -179 -138l-126 -1c-36 0 -45 -6 -45 -28c0 -27 12 -30 47 -30zM268 148h309c60 0 87 11 87 42c0 33 -15 40 -87 40h-69c-123 0 -180 17 -180 118
c0 92 51 114 118 115l127 1c58 0 71 10 71 43c0 38 -20 45 -87 45h-289v-404z" />
    <glyph glyph-name="E.ss01" horiz-adv-x="870" 
d="M785 552h-521c-16 0 -23 -10 -14 -29l45 -92c4 -9 11 -12 22 -12h428v-138h-428c-11 0 -18 -3 -22 -12l-45 -92c-9 -19 -2 -29 14 -29h521v-148h-540c-107 0 -175 60 -175 158c0 44 5 108 94 158c15 8 16 18 16 34s-1 26 -16 34c-89 50 -94 114 -94 158
c0 98 68 158 175 158h540v-148z" />
    <glyph glyph-name="Eacute.ss01" horiz-adv-x="870" 
d="M395 744l-30 84c85 22 182 61 248 101l49 -100c-84 -37 -164 -64 -267 -85zM785 552h-521c-16 0 -23 -10 -14 -29l45 -92c4 -9 11 -12 22 -12h428v-138h-428c-11 0 -18 -3 -22 -12l-45 -92c-9 -19 -2 -29 14 -29h521v-148h-540c-107 0 -175 60 -175 158
c0 44 5 108 94 158c15 8 16 18 16 34s-1 26 -16 34c-89 50 -94 114 -94 158c0 98 68 158 175 158h540v-148z" />
    <glyph glyph-name="Ecircumflex.ss01" horiz-adv-x="870" 
d="M465 809c-48 -26 -96 -49 -157 -65l-30 84c64 22 137 57 187 101c50 -44 123 -79 187 -101l-30 -84c-61 16 -109 39 -157 65zM785 552h-521c-16 0 -23 -10 -14 -29l45 -92c4 -9 11 -12 22 -12h428v-138h-428c-11 0 -18 -3 -22 -12l-45 -92c-9 -19 -2 -29 14 -29h521v-148
h-540c-107 0 -175 60 -175 158c0 44 5 108 94 158c15 8 16 18 16 34s-1 26 -16 34c-89 50 -94 114 -94 158c0 98 68 158 175 158h540v-148z" />
    <glyph glyph-name="Edieresis.ss01" horiz-adv-x="870" 
d="M347 754c-54 0 -83 29 -83 83c0 55 29 84 83 84c55 0 82 -29 82 -84c0 -54 -27 -83 -82 -83zM585 754c-55 0 -83 29 -83 83c0 55 28 84 83 84s82 -29 82 -84c0 -54 -27 -83 -82 -83zM785 552h-521c-16 0 -23 -10 -14 -29l45 -92c4 -9 11 -12 22 -12h428v-138h-428
c-11 0 -18 -3 -22 -12l-45 -92c-9 -19 -2 -29 14 -29h521v-148h-540c-107 0 -175 60 -175 158c0 44 5 108 94 158c15 8 16 18 16 34s-1 26 -16 34c-89 50 -94 114 -94 158c0 98 68 158 175 158h540v-148z" />
    <glyph glyph-name="Egrave.ss01" horiz-adv-x="870" 
d="M576 828l-30 -84c-103 21 -183 48 -267 85l49 100c66 -40 163 -79 248 -101zM785 552h-521c-16 0 -23 -10 -14 -29l45 -92c4 -9 11 -12 22 -12h428v-138h-428c-11 0 -18 -3 -22 -12l-45 -92c-9 -19 -2 -29 14 -29h521v-148h-540c-107 0 -175 60 -175 158
c0 44 5 108 94 158c15 8 16 18 16 34s-1 26 -16 34c-89 50 -94 114 -94 158c0 98 68 158 175 158h540v-148z" />
    <glyph glyph-name="G.ss01" horiz-adv-x="986" 
d="M882 261l44 -261h-151l-37 231c-2 10 -3 16 -13 16c-11 0 -14 -6 -19 -14l-65 -101c-80 -124 -155 -142 -254 -142c-204 0 -317 110 -317 360c0 263 114 360 421 360c248 0 323 -65 361 -178l19 -76h-183c-20 64 -39 106 -111 106h-240c-52 0 -87 -34 -87 -86v-260
c0 -45 28 -78 71 -78h85c51 0 60 10 81 38l69 91c66 87 114 114 190 114c81 0 125 -52 136 -120z" />
    <glyph glyph-name="I.ss01" horiz-adv-x="354" 
d="M251 1h-148v396c0 57 40 70 40 99c0 34 -68 45 -68 120c0 66 45 94 102 94s102 -28 102 -94c0 -75 -68 -86 -68 -120c0 -29 40 -42 40 -99v-396z" />
    <glyph glyph-name="Iacute.ss01" horiz-adv-x="368" 
d="M114 744l-30 84c85 22 182 61 248 101l49 -100c-84 -37 -164 -64 -267 -85zM251 1h-148v396c0 57 40 70 40 99c0 34 -68 45 -68 120c0 66 45 94 102 94s102 -28 102 -94c0 -75 -68 -86 -68 -120c0 -29 40 -42 40 -99v-396z" />
    <glyph glyph-name="Icircumflex.ss01" horiz-adv-x="368" 
d="M184 929c50 -44 123 -79 187 -101l-30 -84c-61 16 -109 39 -157 65c-48 -26 -96 -49 -157 -65l-30 84c64 22 137 57 187 101zM279 616c0 -75 -68 -86 -68 -120c0 -29 40 -42 40 -99v-396h-148v396c0 57 40 70 40 99c0 34 -68 45 -68 120c0 66 45 94 102 94
s102 -28 102 -94z" />
    <glyph glyph-name="Idieresis.ss01" horiz-adv-x="368" 
d="M66 754c-54 0 -83 29 -83 83c0 55 29 84 83 84c55 0 82 -29 82 -84c0 -54 -27 -83 -82 -83zM304 754c-55 0 -83 29 -83 83c0 55 28 84 83 84s82 -29 82 -84c0 -54 -27 -83 -82 -83zM251 1h-148v396c0 57 40 70 40 99c0 34 -68 45 -68 120c0 66 45 94 102 94
s102 -28 102 -94c0 -75 -68 -86 -68 -120c0 -29 40 -42 40 -99v-396z" />
    <glyph glyph-name="Igrave.ss01" horiz-adv-x="368" 
d="M295 828l-30 -84c-103 21 -183 48 -267 85l49 100c66 -40 163 -79 248 -101zM251 1h-148v396c0 57 40 70 40 99c0 34 -68 45 -68 120c0 66 45 94 102 94s102 -28 102 -94c0 -75 -68 -86 -68 -120c0 -29 40 -42 40 -99v-396z" />
    <glyph glyph-name="K.ss01" horiz-adv-x="971" 
d="M268 0h-168v700h168v-700zM506 386c-35 -2 -39 -15 -39 -36s4 -34 39 -36c102 -6 139 -10 191 -61l239 -234v-19h-232l-111 129c-48 53 -80 66 -160 85c-85 20 -119 76 -120 136c1 60 35 116 120 136c80 19 112 32 160 85l111 129h232v-19l-239 -234
c-52 -51 -89 -55 -191 -61z" />
    <glyph glyph-name="M.ss01" horiz-adv-x="1282" 
d="M1148 530l64 -530h-175l-49 515c-2 22 -8 27 -26 27h-44c-25 0 -35 -7 -39 -42c-9 -71 11 -185 -50 -262c-44 -56 -73 -48 -79 -132c-6 -81 -21 -116 -109 -116c-91 0 -98 36 -109 116c-12 84 -35 76 -79 132c-61 77 -41 191 -50 262c-4 35 -14 42 -39 42h-44
c-18 0 -24 -5 -26 -27l-49 -515h-175l64 530c16 133 115 180 213 180c134 0 204 -89 216 -206l28 -265c3 -32 16 -43 50 -43s47 11 50 43l28 265c12 117 82 206 216 206c98 0 197 -47 213 -180z" />
    <glyph glyph-name="N.ss01" horiz-adv-x="1075" 
d="M980 699v-380c0 -78 -10 -104 -57 -118c-28 -8 -34 -27 -34 -92c0 -77 -33 -119 -105 -119c-74 0 -90 25 -114 106c-25 82 -31 101 -62 108c-77 17 -99 52 -134 112l-119 204c-12 20 -27 22 -43 22h-20c-16 0 -24 -9 -24 -23v-519h-168v530c0 144 96 182 203 182
c79 0 149 -23 212 -125l211 -341c15 -25 23 -35 49 -35s37 7 37 41v448z" />
    <glyph glyph-name="Ntilde.ss01" horiz-adv-x="1075" 
d="M353 913h98c18 -58 27 -68 47 -68c29 0 59 78 144 78c90 0 122 -49 140 -152h-98c-18 58 -27 68 -47 68c-29 0 -59 -78 -144 -78c-90 0 -122 49 -140 152zM980 699v-380c0 -78 -10 -104 -57 -118c-28 -8 -34 -27 -34 -92c0 -77 -33 -119 -105 -119c-74 0 -90 25 -114 106
c-25 82 -31 101 -62 108c-77 17 -99 52 -134 112l-119 204c-12 20 -27 22 -43 22h-20c-16 0 -24 -9 -24 -23v-519h-168v530c0 144 96 182 203 182c79 0 149 -23 212 -125l211 -341c15 -25 23 -35 49 -35s37 7 37 41v448z" />
    <glyph glyph-name="O.ss01" 
d="M478 710c288 0 408 -97 408 -360s-120 -360 -408 -360s-408 97 -408 360s120 360 408 360zM478 133c186 0 233 25 233 217s-47 217 -233 217s-233 -25 -233 -217s47 -217 233 -217zM479 456c70 0 104 -36 104 -106c0 -68 -34 -105 -104 -105c-68 0 -105 37 -105 105
c0 70 37 106 105 106z" />
    <glyph glyph-name="Oacute.ss01" 
d="M626 929l49 -100c-84 -37 -164 -64 -267 -85l-30 84c85 22 182 61 248 101zM478 710c288 0 408 -97 408 -360s-120 -360 -408 -360s-408 97 -408 360s120 360 408 360zM478 133c186 0 233 25 233 217s-47 217 -233 217s-233 -25 -233 -217s47 -217 233 -217zM479 456
c70 0 104 -36 104 -106c0 -68 -34 -105 -104 -105c-68 0 -105 37 -105 105c0 70 37 106 105 106z" />
    <glyph glyph-name="Ocircumflex.ss01" 
d="M478 809c-48 -26 -96 -49 -157 -65l-30 84c64 22 137 57 187 101c50 -44 123 -79 187 -101l-30 -84c-61 16 -109 39 -157 65zM478 710c288 0 408 -97 408 -360s-120 -360 -408 -360s-408 97 -408 360s120 360 408 360zM478 133c186 0 233 25 233 217s-47 217 -233 217
s-233 -25 -233 -217s47 -217 233 -217zM479 456c70 0 104 -36 104 -106c0 -68 -34 -105 -104 -105c-68 0 -105 37 -105 105c0 70 37 106 105 106z" />
    <glyph glyph-name="Odieresis.ss01" 
d="M360 754c-54 0 -83 29 -83 83c0 55 29 84 83 84c55 0 82 -29 82 -84c0 -54 -27 -83 -82 -83zM598 754c-55 0 -83 29 -83 83c0 55 28 84 83 84s82 -29 82 -84c0 -54 -27 -83 -82 -83zM478 710c288 0 408 -97 408 -360s-120 -360 -408 -360s-408 97 -408 360
s120 360 408 360zM478 133c186 0 233 25 233 217s-47 217 -233 217s-233 -25 -233 -217s47 -217 233 -217zM479 456c70 0 104 -36 104 -106c0 -68 -34 -105 -104 -105c-68 0 -105 37 -105 105c0 70 37 106 105 106z" />
    <glyph glyph-name="Ograve.ss01" 
d="M589 828l-30 -84c-103 21 -183 48 -267 85l49 100c66 -40 163 -79 248 -101zM478 710c288 0 408 -97 408 -360s-120 -360 -408 -360s-408 97 -408 360s120 360 408 360zM478 133c186 0 233 25 233 217s-47 217 -233 217s-233 -25 -233 -217s47 -217 233 -217zM479 456
c70 0 104 -36 104 -106c0 -68 -34 -105 -104 -105c-68 0 -105 37 -105 105c0 70 37 106 105 106z" />
    <glyph glyph-name="Otilde.ss01" 
d="M404 761c-90 0 -122 49 -140 152h98c18 -58 27 -68 47 -68c29 0 59 78 144 78c90 0 122 -49 140 -152h-98c-18 58 -27 68 -47 68c-29 0 -59 -78 -144 -78zM478 710c288 0 408 -97 408 -360s-120 -360 -408 -360s-408 97 -408 360s120 360 408 360zM478 133
c186 0 233 25 233 217s-47 217 -233 217s-233 -25 -233 -217s47 -217 233 -217zM479 456c70 0 104 -36 104 -106c0 -68 -34 -105 -104 -105c-68 0 -105 37 -105 105c0 70 37 106 105 106z" />
    <glyph glyph-name="OE.ss01" horiz-adv-x="1384" 
d="M70 350c0 263 120 360 391 360c126 0 148 -64 188 -64c41 0 79 54 159 54h491v-148h-491c-16 0 -23 -10 -14 -29l45 -92c4 -9 11 -12 22 -12h398v-138h-398c-11 0 -18 -3 -22 -12l-45 -92c-9 -19 -2 -29 14 -29h491v-148h-491c-80 0 -118 54 -159 54
c-40 0 -62 -64 -188 -64c-271 0 -391 97 -391 360zM250 350c0 -188 46 -212 252 -212c87 0 101 36 125 97c11 27 36 57 81 81c15 8 16 18 16 34s-1 26 -16 34c-45 24 -70 54 -81 81c-25 61 -38 97 -125 97c-206 0 -252 -24 -252 -212z" />
    <glyph glyph-name="Q.ss01" 
d="M712 143c10 -9 15 -14 31 -40l113 -185v-19h-172l-105 184c-18 31 -21 33 -35 33c-18 0 -24 -2 -28 -23c-10 -57 -34 -103 -148 -103c-215 0 -306 97 -298 360c0 263 120 360 408 360s408 -97 408 -360c0 -123 -65 -174 -143 -168c-16 1 -25 -3 -30 -10
c-8 -11 -11 -20 -1 -29zM685 206c13 0 21 7 21 144c0 188 -46 212 -228 212c-160 0 -215 -19 -226 -152h166c121 0 173 -45 214 -126l30 -59c8 -16 12 -19 23 -19zM428 138c95 0 109 11 89 47l-39 70c-15 27 -31 42 -60 42h-167c8 -140 50 -159 177 -159z" />
    <glyph glyph-name="R.ss01" horiz-adv-x="915" 
d="M572 195l36 -42c11 -13 17 -14 35 -14h7c13 0 22 2 25 13l23 77h147l-25 -89c-34 -120 -96 -150 -175 -150c-90 0 -144 41 -210 119l-111 130c-20 24 -43 43 -56 47v-286h-168v700h468c196 0 268 -46 268 -212c0 -95 -24 -211 -164 -211c-134 0 -173 53 -222 53
c-16 0 -26 -2 -31 -24c-5 -20 3 -29 30 -35c42 -9 79 -25 123 -76zM268 552v-149h351c34 0 48 4 48 47v58c0 36 -15 44 -48 44h-351z" />
    <glyph glyph-name="S.ss01" horiz-adv-x="902" 
d="M417 129h113c110 0 155 29 155 83c0 41 -23 68 -63 74c-69 9 -84 -57 -180 -43c-112 16 -102 158 -190 158c-35 0 -60 -41 -98 -41s-68 49 -68 136c0 134 112 214 374 214c209 0 304 -73 334 -178l16 -56h-181c-17 62 -46 85 -103 85l-176 -1c-54 0 -85 -15 -86 -60
c-1 -31 21 -53 103 -71l310 -63c77 -16 145 -77 145 -166c0 -123 -77 -213 -351 -210c-208 0 -349 57 -383 168l-18 58h182c28 -52 35 -87 165 -87z" />
    <glyph glyph-name="U.ss01" horiz-adv-x="936" 
d="M678 700h168v-259c0 -94 -103 -126 -103 -187c0 -45 79 -52 79 -122c0 -75 -107 -142 -354 -142s-354 67 -354 142c0 70 79 77 79 122c0 61 -103 93 -103 187v259h168v-453c0 -79 46 -109 210 -109s210 30 210 109v453z" />
    <glyph glyph-name="Uacute.ss01" horiz-adv-x="936" 
d="M609 929l49 -100c-84 -37 -164 -64 -267 -85l-30 84c85 22 182 61 248 101zM678 700h168v-259c0 -94 -103 -126 -103 -187c0 -45 79 -52 79 -122c0 -75 -107 -142 -354 -142s-354 67 -354 142c0 70 79 77 79 122c0 61 -103 93 -103 187v259h168v-453
c0 -79 46 -109 210 -109s210 30 210 109v453z" />
    <glyph glyph-name="Ucircumflex.ss01" horiz-adv-x="936" 
d="M461 809c-48 -26 -96 -49 -157 -65l-30 84c64 22 137 57 187 101c50 -44 123 -79 187 -101l-30 -84c-61 16 -109 39 -157 65zM678 700h168v-259c0 -94 -103 -126 -103 -187c0 -45 79 -52 79 -122c0 -75 -107 -142 -354 -142s-354 67 -354 142c0 70 79 77 79 122
c0 61 -103 93 -103 187v259h168v-453c0 -79 46 -109 210 -109s210 30 210 109v453z" />
    <glyph glyph-name="Udieresis.ss01" horiz-adv-x="936" 
d="M343 754c-54 0 -83 29 -83 83c0 55 29 84 83 84c55 0 82 -29 82 -84c0 -54 -27 -83 -82 -83zM581 754c-55 0 -83 29 -83 83c0 55 28 84 83 84s82 -29 82 -84c0 -54 -27 -83 -82 -83zM678 700h168v-259c0 -94 -103 -126 -103 -187c0 -45 79 -52 79 -122
c0 -75 -107 -142 -354 -142s-354 67 -354 142c0 70 79 77 79 122c0 61 -103 93 -103 187v259h168v-453c0 -79 46 -109 210 -109s210 30 210 109v453z" />
    <glyph glyph-name="Ugrave.ss01" horiz-adv-x="936" 
d="M572 828l-30 -84c-103 21 -183 48 -267 85l49 100c66 -40 163 -79 248 -101zM678 700h168v-259c0 -94 -103 -126 -103 -187c0 -45 79 -52 79 -122c0 -75 -107 -142 -354 -142s-354 67 -354 142c0 70 79 77 79 122c0 61 -103 93 -103 187v259h168v-453
c0 -79 46 -109 210 -109s210 30 210 109v453z" />
    <glyph glyph-name="V.ss01" horiz-adv-x="896" 
d="M519 311l165 389h192v-19l-157 -329c-34 -71 -57 -100 -101 -121c-71 -34 -30 -43 -40 -142c-7 -59 -59 -98 -130 -99c-71 1 -123 40 -130 99c-10 99 32 109 -40 142c-44 20 -67 50 -101 121l-157 329v19h194l163 -389c26 -62 12 -121 71 -121s44 59 71 121z" />
    <glyph glyph-name="W.ss01" horiz-adv-x="1282" 
d="M988 185l49 515h175l-64 -530c-16 -133 -115 -180 -213 -180c-134 0 -204 89 -216 206l-28 265c-3 32 -16 43 -50 43s-47 -11 -50 -43l-28 -265c-12 -117 -82 -206 -216 -206c-98 0 -197 47 -213 180l-64 530h175l49 -515c2 -22 8 -27 26 -27h44c25 0 35 7 39 42
c9 71 -11 185 50 262c44 56 73 48 79 132c6 81 21 116 109 116c91 0 98 -36 109 -116c12 -84 35 -76 79 -132c61 -77 41 -191 50 -262c4 -35 14 -42 39 -42h44c18 0 24 5 26 27z" />
    <glyph glyph-name="X.ss01" horiz-adv-x="935" 
d="M452 224c-21 0 -25 -2 -43 -31c-98 -152 -172 -203 -245 -203c-64 0 -104 40 -104 112c0 78 47 111 142 111h118c58 0 66 19 66 113v82c0 95 -45 124 -173 124h-131v168h95c216 0 238 -55 283 -191c10 -30 14 -33 33 -33c21 0 24 3 43 31c94 152 162 203 235 203
c64 0 104 -40 104 -112c0 -78 -47 -111 -142 -111h-108c-58 0 -66 -19 -66 -113v-84c0 -107 42 -122 174 -122h130v-168h-95c-196 0 -211 22 -275 184c-13 33 -20 40 -41 40z" />
    <glyph glyph-name="Y.ss01" horiz-adv-x="942" 
d="M688 429l32 271h172l-18 -143c-26 -209 -84 -324 -202 -324c-66 0 -89 39 -117 39c-17 0 -25 -7 -25 -23c0 -27 25 -52 25 -148v-101h-168v101c0 96 25 121 25 148c0 16 -8 23 -25 23c-28 0 -51 -39 -117 -39c-118 0 -176 115 -202 324l-18 143h172l32 -271
c6 -53 34 -71 94 -71h246c60 0 88 18 94 71z" />
    <glyph glyph-name="Yacute.ss01" horiz-adv-x="942" 
d="M609 929l49 -100c-84 -37 -164 -64 -267 -85l-30 84c85 22 182 61 248 101zM688 429l32 271h172l-18 -143c-26 -209 -84 -324 -202 -324c-66 0 -89 39 -117 39c-17 0 -25 -7 -25 -23c0 -27 25 -52 25 -148v-101h-168v101c0 96 25 121 25 148c0 16 -8 23 -25 23
c-28 0 -51 -39 -117 -39c-118 0 -176 115 -202 324l-18 143h172l32 -271c6 -53 34 -71 94 -71h246c60 0 88 18 94 71z" />
    <glyph glyph-name="Ycircumflex.ss01" horiz-adv-x="942" 
d="M461 809c-48 -26 -96 -49 -157 -65l-30 84c64 22 137 57 187 101c50 -44 123 -79 187 -101l-30 -84c-61 16 -109 39 -157 65zM688 429l32 271h172l-18 -143c-26 -209 -84 -324 -202 -324c-66 0 -89 39 -117 39c-17 0 -25 -7 -25 -23c0 -27 25 -52 25 -148v-101h-168v101
c0 96 25 121 25 148c0 16 -8 23 -25 23c-28 0 -51 -39 -117 -39c-118 0 -176 115 -202 324l-18 143h172l32 -271c6 -53 34 -71 94 -71h246c60 0 88 18 94 71z" />
    <glyph glyph-name="Ydieresis.ss01" horiz-adv-x="942" 
d="M343 754c-54 0 -83 29 -83 83c0 55 29 84 83 84c55 0 82 -29 82 -84c0 -54 -27 -83 -82 -83zM581 754c-55 0 -83 29 -83 83c0 55 28 84 83 84s82 -29 82 -84c0 -54 -27 -83 -82 -83zM688 429l32 271h172l-18 -143c-26 -209 -84 -324 -202 -324c-66 0 -89 39 -117 39
c-17 0 -25 -7 -25 -23c0 -27 25 -52 25 -148v-101h-168v101c0 96 25 121 25 148c0 16 -8 23 -25 23c-28 0 -51 -39 -117 -39c-118 0 -176 115 -202 324l-18 143h172l32 -271c6 -53 34 -71 94 -71h246c60 0 88 18 94 71z" />
    <glyph glyph-name="Ygrave.ss01" horiz-adv-x="942" 
d="M572 828l-30 -84c-103 21 -183 48 -267 85l49 100c66 -40 163 -79 248 -101zM688 429l32 271h172l-18 -143c-26 -209 -84 -324 -202 -324c-66 0 -89 39 -117 39c-17 0 -25 -7 -25 -23c0 -27 25 -52 25 -148v-101h-168v101c0 96 25 121 25 148c0 16 -8 23 -25 23
c-28 0 -51 -39 -117 -39c-118 0 -176 115 -202 324l-18 143h172l32 -271c6 -53 34 -71 94 -71h246c60 0 88 18 94 71z" />
    <glyph glyph-name="Z.ss01" horiz-adv-x="932" 
d="M273 148h537v-148h-538c-144 0 -182 87 -182 167c0 77 6 144 150 188l415 125c23 7 27 13 27 27v24c0 14 -9 21 -23 21h-519v148h520c144 0 182 -85 182 -165c0 -77 -6 -153 -125 -188l-428 -126c-28 -8 -39 -19 -39 -43v-9c0 -14 9 -21 23 -21z" />
    <glyph glyph-name="A.ss02" horiz-adv-x="1036" 
d="M842 340l164 -321v-19h-192l-188 424c-12 27 -20 32 -42 32c-32 0 -41 -16 -41 -58c0 -161 86 -219 86 -317c0 -68 -41 -92 -111 -92s-111 24 -111 92c0 98 86 156 86 317c0 42 -9 58 -41 58c-22 0 -30 -5 -42 -32l-188 -424h-192v19l164 321c37 73 62 117 160 139
c55 12 68 17 68 35c0 29 -27 58 -27 97c0 59 37 98 123 99c86 -1 123 -40 123 -99c0 -39 -27 -68 -27 -97c0 -18 13 -23 68 -35c98 -22 123 -66 160 -139z" />
    <glyph glyph-name="Aacute.ss02" horiz-adv-x="1036" 
d="M666 929l49 -100c-84 -37 -164 -64 -267 -85l-30 84c85 22 182 61 248 101zM842 340l164 -321v-19h-192l-188 424c-12 27 -20 32 -42 32c-32 0 -41 -16 -41 -58c0 -161 86 -219 86 -317c0 -68 -41 -92 -111 -92s-111 24 -111 92c0 98 86 156 86 317c0 42 -9 58 -41 58
c-22 0 -30 -5 -42 -32l-188 -424h-192v19l164 321c37 73 62 117 160 139c55 12 68 17 68 35c0 29 -27 58 -27 97c0 59 37 98 123 99c86 -1 123 -40 123 -99c0 -39 -27 -68 -27 -97c0 -18 13 -23 68 -35c98 -22 123 -66 160 -139z" />
    <glyph glyph-name="Acircumflex.ss02" horiz-adv-x="1036" 
d="M518 809c-48 -26 -96 -49 -157 -65l-30 84c64 22 137 57 187 101c50 -44 123 -79 187 -101l-30 -84c-61 16 -109 39 -157 65zM842 340l164 -321v-19h-192l-188 424c-12 27 -20 32 -42 32c-32 0 -41 -16 -41 -58c0 -161 86 -219 86 -317c0 -68 -41 -92 -111 -92
s-111 24 -111 92c0 98 86 156 86 317c0 42 -9 58 -41 58c-22 0 -30 -5 -42 -32l-188 -424h-192v19l164 321c37 73 62 117 160 139c55 12 68 17 68 35c0 29 -27 58 -27 97c0 59 37 98 123 99c86 -1 123 -40 123 -99c0 -39 -27 -68 -27 -97c0 -18 13 -23 68 -35
c98 -22 123 -66 160 -139z" />
    <glyph glyph-name="Adieresis.ss02" horiz-adv-x="1036" 
d="M400 754c-54 0 -83 29 -83 83c0 55 29 84 83 84c55 0 82 -29 82 -84c0 -54 -27 -83 -82 -83zM638 754c-55 0 -83 29 -83 83c0 55 28 84 83 84s82 -29 82 -84c0 -54 -27 -83 -82 -83zM842 340l164 -321v-19h-192l-188 424c-12 27 -20 32 -42 32c-32 0 -41 -16 -41 -58
c0 -161 86 -219 86 -317c0 -68 -41 -92 -111 -92s-111 24 -111 92c0 98 86 156 86 317c0 42 -9 58 -41 58c-22 0 -30 -5 -42 -32l-188 -424h-192v19l164 321c37 73 62 117 160 139c55 12 68 17 68 35c0 29 -27 58 -27 97c0 59 37 98 123 99c86 -1 123 -40 123 -99
c0 -39 -27 -68 -27 -97c0 -18 13 -23 68 -35c98 -22 123 -66 160 -139z" />
    <glyph glyph-name="Agrave.ss02" horiz-adv-x="1036" 
d="M629 828l-30 -84c-103 21 -183 48 -267 85l49 100c66 -40 163 -79 248 -101zM842 340l164 -321v-19h-192l-188 424c-12 27 -20 32 -42 32c-32 0 -41 -16 -41 -58c0 -161 86 -219 86 -317c0 -68 -41 -92 -111 -92s-111 24 -111 92c0 98 86 156 86 317c0 42 -9 58 -41 58
c-22 0 -30 -5 -42 -32l-188 -424h-192v19l164 321c37 73 62 117 160 139c55 12 68 17 68 35c0 29 -27 58 -27 97c0 59 37 98 123 99c86 -1 123 -40 123 -99c0 -39 -27 -68 -27 -97c0 -18 13 -23 68 -35c98 -22 123 -66 160 -139z" />
    <glyph glyph-name="Aring.ss02" horiz-adv-x="1036" 
d="M842 340l164 -321v-19h-192l-188 424c-12 27 -20 32 -42 32c-32 0 -41 -16 -41 -58c0 -161 86 -219 86 -317c0 -68 -41 -92 -111 -92s-111 24 -111 92c0 98 86 156 86 317c0 42 -9 58 -41 58c-22 0 -30 -5 -42 -32l-188 -424h-192v19l164 321c37 73 62 117 160 139
c55 12 68 17 68 35c0 29 -27 58 -27 97c0 32 11 59 35 76c-25 19 -38 49 -38 90c0 78 44 118 126 118c84 0 125 -40 125 -118c0 -41 -12 -71 -37 -90c24 -18 35 -44 35 -76c0 -39 -27 -68 -27 -97c0 -18 13 -23 68 -35c98 -22 123 -66 160 -139zM518 825
c-37 0 -56 -21 -56 -58c0 -35 19 -56 56 -56s55 21 55 56c0 37 -18 58 -55 58z" />
    <glyph glyph-name="Atilde.ss02" horiz-adv-x="1036" 
d="M444 761c-90 0 -122 49 -140 152h98c18 -58 27 -68 47 -68c29 0 59 78 144 78c90 0 122 -49 140 -152h-98c-18 58 -27 68 -47 68c-29 0 -59 -78 -144 -78zM842 340l164 -321v-19h-192l-188 424c-12 27 -20 32 -42 32c-32 0 -41 -16 -41 -58c0 -161 86 -219 86 -317
c0 -68 -41 -92 -111 -92s-111 24 -111 92c0 98 86 156 86 317c0 42 -9 58 -41 58c-22 0 -30 -5 -42 -32l-188 -424h-192v19l164 321c37 73 62 117 160 139c55 12 68 17 68 35c0 29 -27 58 -27 97c0 59 37 98 123 99c86 -1 123 -40 123 -99c0 -39 -27 -68 -27 -97
c0 -18 13 -23 68 -35c98 -22 123 -66 160 -139z" />
    <glyph glyph-name="AE.ss02" horiz-adv-x="1366" 
d="M760 148h521v-148h-540c-87 0 -168 43 -148 132c8 36 2 61 -27 61c-41 0 -109 -20 -235 -20h-70l-18 -173h-173l43 373c29 255 134 337 333 337c115 0 165 -50 185 -50c25 0 35 40 125 40h515v-148h-511c-16 0 -23 -10 -14 -29l45 -93c12 -24 24 -46 65 -49
c139 -10 167 78 269 78c67 0 108 -49 108 -107s-41 -107 -108 -107c-102 0 -130 88 -269 78c-39 -2 -46 -14 -65 -53l-45 -93c-9 -19 -2 -29 14 -29zM706 301c23 0 31 11 31 40c0 35 -3 43 -22 48c-79 19 -136 53 -143 109c-7 53 -20 54 -41 54h-170c-40 0 -63 -9 -67 -52
l-18 -179h238c81 0 132 -20 192 -20z" />
    <glyph glyph-name="B.ss02" horiz-adv-x="914" 
d="M659 328c85 -4 185 -23 185 -151c0 -121 -89 -177 -368 -177h-376v700h346c259 0 378 -31 378 -178c0 -86 -71 -129 -167 -141c-36 -4 -45 -6 -45 -27s12 -24 47 -26zM268 148h309c52 0 87 11 87 59c0 65 -48 98 -83 98c-58 0 -76 -55 -153 -55c-43 0 -100 14 -100 98
c0 76 51 94 100 94c64 1 84 -43 155 -43c29 0 61 27 61 90c0 56 -20 63 -87 63h-289v-404z" />
    <glyph glyph-name="E.ss02" horiz-adv-x="870" 
d="M70 158c0 83 40 128 154 154c13 3 16 8 16 38s-3 35 -16 38c-114 26 -154 71 -154 154c0 98 68 158 175 158h540v-148h-521c-16 0 -23 -10 -14 -29l45 -93c12 -24 24 -46 65 -49c139 -10 177 78 279 78c67 0 108 -49 108 -107s-41 -107 -108 -107c-102 0 -140 88 -279 78
c-33 -2 -47 -17 -58 -35l-52 -111c-9 -19 -2 -29 14 -29h521v-148h-540c-107 0 -175 60 -175 158z" />
    <glyph glyph-name="Eacute.ss02" horiz-adv-x="870" 
d="M395 744l-30 84c85 22 182 61 248 101l49 -100c-84 -37 -164 -64 -267 -85zM70 158c0 83 40 128 154 154c13 3 16 8 16 38s-3 35 -16 38c-114 26 -154 71 -154 154c0 98 68 158 175 158h540v-148h-521c-16 0 -23 -10 -14 -29l45 -93c12 -24 24 -46 65 -49
c139 -10 177 78 279 78c67 0 108 -49 108 -107s-41 -107 -108 -107c-102 0 -140 88 -279 78c-33 -2 -47 -17 -58 -35l-52 -111c-9 -19 -2 -29 14 -29h521v-148h-540c-107 0 -175 60 -175 158z" />
    <glyph glyph-name="Ecircumflex.ss02" horiz-adv-x="870" 
d="M465 809c-48 -26 -96 -49 -157 -65l-30 84c64 22 137 57 187 101c50 -44 123 -79 187 -101l-30 -84c-61 16 -109 39 -157 65zM785 552h-521c-16 0 -23 -10 -14 -29l45 -93c12 -24 24 -46 65 -49c139 -10 177 78 279 78c67 0 108 -49 108 -107s-41 -107 -108 -107
c-102 0 -140 88 -279 78c-33 -2 -47 -17 -58 -35l-52 -111c-9 -19 -2 -29 14 -29h521v-148h-540c-107 0 -175 60 -175 158c0 83 40 128 154 154c13 3 16 8 16 38s-3 35 -16 38c-114 26 -154 71 -154 154c0 98 68 158 175 158h540v-148z" />
    <glyph glyph-name="Edieresis.ss02" horiz-adv-x="870" 
d="M347 754c-54 0 -83 29 -83 83c0 55 29 84 83 84c55 0 82 -29 82 -84c0 -54 -27 -83 -82 -83zM585 754c-55 0 -83 29 -83 83c0 55 28 84 83 84s82 -29 82 -84c0 -54 -27 -83 -82 -83zM70 158c0 83 40 128 154 154c13 3 16 8 16 38s-3 35 -16 38c-114 26 -154 71 -154 154
c0 98 68 158 175 158h540v-148h-521c-16 0 -23 -10 -14 -29l45 -93c12 -24 24 -46 65 -49c139 -10 177 78 279 78c67 0 108 -49 108 -107s-41 -107 -108 -107c-102 0 -140 88 -279 78c-33 -2 -47 -17 -58 -35l-52 -111c-9 -19 -2 -29 14 -29h521v-148h-540
c-107 0 -175 60 -175 158z" />
    <glyph glyph-name="Egrave.ss02" horiz-adv-x="870" 
d="M576 828l-30 -84c-103 21 -183 48 -267 85l49 100c66 -40 163 -79 248 -101zM70 158c0 83 40 128 154 154c13 3 16 8 16 38s-3 35 -16 38c-114 26 -154 71 -154 154c0 98 68 158 175 158h540v-148h-521c-16 0 -23 -10 -14 -29l45 -93c12 -24 24 -46 65 -49
c139 -10 177 78 279 78c67 0 108 -49 108 -107s-41 -107 -108 -107c-102 0 -140 88 -279 78c-33 -2 -47 -17 -58 -35l-52 -111c-9 -19 -2 -29 14 -29h521v-148h-540c-107 0 -175 60 -175 158z" />
    <glyph glyph-name="I.ss02" horiz-adv-x="354" 
d="M177 -10c-57 0 -102 28 -102 94c0 75 68 86 68 120c0 29 -40 42 -40 99v94c0 57 40 70 40 99c0 34 -68 45 -68 120c0 66 45 94 102 94s102 -28 102 -94c0 -75 -68 -86 -68 -120c0 -29 40 -42 40 -99v-94c0 -57 -40 -70 -40 -99c0 -34 68 -45 68 -120
c0 -66 -45 -94 -102 -94z" />
    <glyph glyph-name="Iacute.ss02" horiz-adv-x="354" 
d="M107 744l-30 84c85 22 182 61 248 101l49 -100c-84 -37 -164 -64 -267 -85zM177 -10c-57 0 -102 28 -102 94c0 75 68 86 68 120c0 29 -40 42 -40 99v94c0 57 40 70 40 99c0 34 -68 45 -68 120c0 66 45 94 102 94s102 -28 102 -94c0 -75 -68 -86 -68 -120
c0 -29 40 -42 40 -99v-94c0 -57 -40 -70 -40 -99c0 -34 68 -45 68 -120c0 -66 -45 -94 -102 -94z" />
    <glyph glyph-name="Icircumflex.ss02" horiz-adv-x="354" 
d="M177 929c50 -44 123 -79 187 -101l-30 -84c-61 16 -109 39 -157 65c-48 -26 -96 -49 -157 -65l-30 84c64 22 137 57 187 101zM279 616c0 -75 -68 -86 -68 -120c0 -29 40 -42 40 -99v-94c0 -57 -40 -70 -40 -99c0 -34 68 -45 68 -120c0 -66 -45 -94 -102 -94
s-102 28 -102 94c0 75 68 86 68 120c0 29 -40 42 -40 99v94c0 57 40 70 40 99c0 34 -68 45 -68 120c0 66 45 94 102 94s102 -28 102 -94z" />
    <glyph glyph-name="Idieresis.ss02" horiz-adv-x="354" 
d="M59 754c-54 0 -83 29 -83 83c0 55 29 84 83 84c55 0 82 -29 82 -84c0 -54 -27 -83 -82 -83zM297 754c-55 0 -83 29 -83 83c0 55 28 84 83 84s82 -29 82 -84c0 -54 -27 -83 -82 -83zM177 -10c-57 0 -102 28 -102 94c0 75 68 86 68 120c0 29 -40 42 -40 99v94
c0 57 40 70 40 99c0 34 -68 45 -68 120c0 66 45 94 102 94s102 -28 102 -94c0 -75 -68 -86 -68 -120c0 -29 40 -42 40 -99v-94c0 -57 -40 -70 -40 -99c0 -34 68 -45 68 -120c0 -66 -45 -94 -102 -94z" />
    <glyph glyph-name="Igrave.ss02" horiz-adv-x="354" 
d="M288 828l-30 -84c-103 21 -183 48 -267 85l49 100c66 -40 163 -79 248 -101zM177 -10c-57 0 -102 28 -102 94c0 75 68 86 68 120c0 29 -40 42 -40 99v94c0 57 40 70 40 99c0 34 -68 45 -68 120c0 66 45 94 102 94s102 -28 102 -94c0 -75 -68 -86 -68 -120
c0 -29 40 -42 40 -99v-94c0 -57 -40 -70 -40 -99c0 -34 68 -45 68 -120c0 -66 -45 -94 -102 -94z" />
    <glyph glyph-name="M.ss02" horiz-adv-x="1284" 
d="M1150 530l64 -530h-175l-52 515c-2 22 -8 27 -26 27h-53c-34 0 -42 -19 -44 -42c-10 -111 30 -185 -16 -242c-49 -60 -121 -28 -135 -67c-14 -40 28 -70 28 -123c0 -52 -32 -78 -99 -78s-99 26 -99 78c0 53 42 83 28 123c-14 39 -86 7 -135 67c-46 57 -6 131 -16 242
c-2 23 -10 42 -44 42h-53c-18 0 -24 -5 -26 -27l-52 -515h-175l64 530c16 133 115 180 213 180c132 0 205 -89 217 -206l22 -208c4 -37 16 -50 56 -50s52 13 56 50l22 208c12 117 85 206 217 206c98 0 197 -47 213 -180z" />
    <glyph glyph-name="N.ss02" horiz-adv-x="1080" 
d="M885 242c0 -42 121 -50 121 -149c0 -62 -59 -103 -125 -103c-65 0 -111 36 -112 103c0 41 27 65 13 90c-35 62 -144 -69 -292 143l-135 194c-14 20 -27 22 -43 22h-20c-16 0 -24 -9 -24 -23v-519h-168v510c0 144 86 202 193 202c83 0 151 -27 219 -124l214 -306
c22 -31 38 -40 56 -40c19 0 30 8 30 46v412l168 -1v-340c0 -105 -95 -47 -95 -117z" />
    <glyph glyph-name="Ntilde.ss02" horiz-adv-x="1080" 
d="M353 913h98c18 -58 27 -68 47 -68c29 0 59 78 144 78c90 0 122 -49 140 -152h-98c-18 58 -27 68 -47 68c-29 0 -59 -78 -144 -78c-90 0 -122 49 -140 152zM885 242c0 -42 121 -50 121 -149c0 -62 -59 -103 -125 -103c-65 0 -111 36 -112 103c0 41 27 65 13 90
c-35 62 -144 -69 -292 143l-135 194c-14 20 -27 22 -43 22h-20c-16 0 -24 -9 -24 -23v-519h-168v510c0 144 86 202 193 202c83 0 151 -27 219 -124l214 -306c22 -31 38 -40 56 -40c19 0 30 8 30 46v412l168 -1v-340c0 -105 -95 -47 -95 -117z" />
    <glyph glyph-name="O.ss02" 
d="M478 710c288 0 408 -97 408 -360s-120 -360 -408 -360s-408 97 -408 360s120 360 408 360zM478 133c186 0 233 25 233 217s-47 217 -233 217s-233 -25 -233 -217s47 -217 233 -217zM479 456c70 0 104 -36 104 -106c0 -68 -34 -105 -104 -105c-68 0 -105 37 -105 105
c0 70 37 106 105 106z" />
    <glyph glyph-name="Oacute.ss02" 
d="M626 929l49 -100c-84 -37 -164 -64 -267 -85l-30 84c85 22 182 61 248 101zM478 710c288 0 408 -97 408 -360s-120 -360 -408 -360s-408 97 -408 360s120 360 408 360zM478 133c186 0 233 25 233 217s-47 217 -233 217s-233 -25 -233 -217s47 -217 233 -217zM479 456
c70 0 104 -36 104 -106c0 -68 -34 -105 -104 -105c-68 0 -105 37 -105 105c0 70 37 106 105 106z" />
    <glyph glyph-name="Ocircumflex.ss02" 
d="M478 809c-48 -26 -96 -49 -157 -65l-30 84c64 22 137 57 187 101c50 -44 123 -79 187 -101l-30 -84c-61 16 -109 39 -157 65zM478 710c288 0 408 -97 408 -360s-120 -360 -408 -360s-408 97 -408 360s120 360 408 360zM478 133c186 0 233 25 233 217s-47 217 -233 217
s-233 -25 -233 -217s47 -217 233 -217zM479 456c70 0 104 -36 104 -106c0 -68 -34 -105 -104 -105c-68 0 -105 37 -105 105c0 70 37 106 105 106z" />
    <glyph glyph-name="Odieresis.ss02" 
d="M360 754c-54 0 -83 29 -83 83c0 55 29 84 83 84c55 0 82 -29 82 -84c0 -54 -27 -83 -82 -83zM598 754c-55 0 -83 29 -83 83c0 55 28 84 83 84s82 -29 82 -84c0 -54 -27 -83 -82 -83zM478 710c288 0 408 -97 408 -360s-120 -360 -408 -360s-408 97 -408 360
s120 360 408 360zM478 133c186 0 233 25 233 217s-47 217 -233 217s-233 -25 -233 -217s47 -217 233 -217zM479 456c70 0 104 -36 104 -106c0 -68 -34 -105 -104 -105c-68 0 -105 37 -105 105c0 70 37 106 105 106z" />
    <glyph glyph-name="Ograve.ss02" 
d="M589 828l-30 -84c-103 21 -183 48 -267 85l49 100c66 -40 163 -79 248 -101zM478 710c288 0 408 -97 408 -360s-120 -360 -408 -360s-408 97 -408 360s120 360 408 360zM478 133c186 0 233 25 233 217s-47 217 -233 217s-233 -25 -233 -217s47 -217 233 -217zM479 456
c70 0 104 -36 104 -106c0 -68 -34 -105 -104 -105c-68 0 -105 37 -105 105c0 70 37 106 105 106z" />
    <glyph glyph-name="Otilde.ss02" 
d="M404 761c-90 0 -122 49 -140 152h98c18 -58 27 -68 47 -68c29 0 59 78 144 78c90 0 122 -49 140 -152h-98c-18 58 -27 68 -47 68c-29 0 -59 -78 -144 -78zM478 710c288 0 408 -97 408 -360s-120 -360 -408 -360s-408 97 -408 360s120 360 408 360zM478 133
c186 0 233 25 233 217s-47 217 -233 217s-233 -25 -233 -217s47 -217 233 -217zM479 456c70 0 104 -36 104 -106c0 -68 -34 -105 -104 -105c-68 0 -105 37 -105 105c0 70 37 106 105 106z" />
    <glyph glyph-name="OE.ss02" horiz-adv-x="1384" 
d="M461 710c126 0 148 -64 188 -64c41 0 79 54 159 54h491v-148h-491c-16 0 -23 -10 -14 -29l45 -89c13 -26 24 -49 67 -53c119 -10 157 78 259 78c67 0 108 -49 108 -107s-41 -107 -108 -107c-102 0 -140 88 -259 78c-43 -4 -54 -27 -67 -53l-45 -93c-9 -19 -2 -29 14 -29
h491v-148h-491c-80 0 -118 54 -159 54c-40 0 -62 -64 -188 -64c-271 0 -391 97 -391 360s120 360 391 360zM250 350c0 -188 46 -212 252 -212c74 0 95 27 130 97c19 38 70 64 131 75c17 3 21 13 21 40s-4 37 -21 40c-61 9 -112 37 -131 75c-36 70 -56 97 -130 97
c-206 0 -252 -24 -252 -212z" />
    <glyph glyph-name="Q.ss02" 
d="M625 148c51 -51 93 -52 157 -88c37 -21 50 -51 50 -87c0 -54 -40 -87 -93 -87c-44 0 -74 19 -91 67c-22 60 -18 100 -58 170c-12 21 -17 23 -25 23c-12 0 -17 -4 -19 -44c-4 -66 -28 -112 -178 -112c-225 0 -298 99 -298 360c0 263 120 360 408 360s408 -97 408 -360
c0 -93 -33 -222 -120 -222c-35 0 -65 20 -98 39c-30 17 -40 16 -47 11c-8 -6 -11 -15 4 -30zM428 138c92 0 107 24 107 47c0 52 -71 35 -120 72c-33 25 -38 56 -37 76c4 62 45 94 98 94c56 0 99 -36 99 -100c0 -32 -2 -29 -2 -58c0 -41 20 -58 56 -58c39 0 77 35 77 139
c0 188 -46 212 -228 212s-228 -24 -228 -212s36 -212 178 -212z" />
    <glyph glyph-name="R.ss02" horiz-adv-x="915" 
d="M588 177l20 -24c11 -13 17 -14 35 -14h7c13 0 22 2 25 13l23 77h147l-25 -89c-34 -120 -96 -150 -175 -150c-90 0 -144 41 -210 119l-62 72c-41 47 -78 66 -105 66v-247h-168v700h468c196 0 268 -46 268 -212c0 -95 -24 -211 -164 -211c-134 0 -213 93 -277 93
c-30 0 -45 -5 -59 -44c-10 -42 5 -69 59 -74c90 -9 145 -17 193 -75zM268 552v-149h351c34 0 48 4 48 47v58c0 36 -15 44 -48 44h-351z" />
    <glyph glyph-name="S.ss02" horiz-adv-x="902" 
d="M417 129h113c110 0 155 29 155 100c0 62 -22 105 -63 105c-69 0 -84 -114 -180 -91c-110 26 -102 178 -170 178c-55 0 -70 -61 -118 -61c-38 0 -68 49 -68 136c0 134 112 214 374 214c209 0 304 -73 334 -178l16 -56h-181c-17 62 -46 85 -103 85l-176 -1
c-54 0 -85 -15 -86 -60c-1 -31 21 -53 103 -71l310 -63c77 -16 145 -77 145 -166c0 -123 -77 -213 -351 -210c-208 0 -349 57 -383 168l-18 58h182c28 -52 35 -87 165 -87z" />
    <glyph glyph-name="U.ss02" horiz-adv-x="936" 
d="M846 700v-229c0 -164 -123 -156 -123 -217c0 -45 99 -52 99 -122c0 -75 -107 -142 -354 -142s-354 67 -354 142c0 70 99 77 99 122c0 61 -123 53 -123 217v229h168v-453c0 -79 46 -109 210 -109s210 30 210 109v453h168z" />
    <glyph glyph-name="Uacute.ss02" horiz-adv-x="936" 
d="M609 929l49 -100c-84 -37 -164 -64 -267 -85l-30 84c85 22 182 61 248 101zM846 700v-229c0 -164 -123 -156 -123 -217c0 -45 99 -52 99 -122c0 -75 -107 -142 -354 -142s-354 67 -354 142c0 70 99 77 99 122c0 61 -123 53 -123 217v229h168v-453c0 -79 46 -109 210 -109
s210 30 210 109v453h168z" />
    <glyph glyph-name="Ucircumflex.ss02" horiz-adv-x="936" 
d="M461 809c-48 -26 -96 -49 -157 -65l-30 84c64 22 137 57 187 101c50 -44 123 -79 187 -101l-30 -84c-61 16 -109 39 -157 65zM846 700v-229c0 -164 -123 -156 -123 -217c0 -45 99 -52 99 -122c0 -75 -107 -142 -354 -142s-354 67 -354 142c0 70 99 77 99 122
c0 61 -123 53 -123 217v229h168v-453c0 -79 46 -109 210 -109s210 30 210 109v453h168z" />
    <glyph glyph-name="Udieresis.ss02" horiz-adv-x="936" 
d="M343 754c-54 0 -83 29 -83 83c0 55 29 84 83 84c55 0 82 -29 82 -84c0 -54 -27 -83 -82 -83zM581 754c-55 0 -83 29 -83 83c0 55 28 84 83 84s82 -29 82 -84c0 -54 -27 -83 -82 -83zM846 700v-229c0 -164 -123 -156 -123 -217c0 -45 99 -52 99 -122
c0 -75 -107 -142 -354 -142s-354 67 -354 142c0 70 99 77 99 122c0 61 -123 53 -123 217v229h168v-453c0 -79 46 -109 210 -109s210 30 210 109v453h168z" />
    <glyph glyph-name="Ugrave.ss02" horiz-adv-x="936" 
d="M572 828l-30 -84c-103 21 -183 48 -267 85l49 100c66 -40 163 -79 248 -101zM846 700v-229c0 -164 -123 -156 -123 -217c0 -45 99 -52 99 -122c0 -75 -107 -142 -354 -142s-354 67 -354 142c0 70 99 77 99 122c0 61 -123 53 -123 217v229h168v-453
c0 -79 46 -109 210 -109s210 30 210 109v453h168z" />
    <glyph glyph-name="V.ss02" horiz-adv-x="896" 
d="M520 311l164 389h192v-19l-152 -321c-30 -64 -54 -93 -100 -109c-64 -20 -89 -41 -89 -63c1 -23 45 -44 45 -97c0 -59 -45 -100 -132 -101c-87 1 -132 42 -132 101c0 53 44 74 45 97c0 22 -25 43 -89 63c-46 16 -70 45 -100 109l-152 321v19h192l164 -389
c24 -56 10 -121 72 -121s48 65 72 121z" />
    <glyph glyph-name="W.ss02" horiz-adv-x="1284" 
d="M987 185l52 515h175l-64 -530c-16 -133 -115 -180 -213 -180c-132 0 -205 89 -217 206l-22 208c-4 37 -16 50 -56 50s-52 -13 -56 -50l-22 -208c-12 -117 -85 -206 -217 -206c-98 0 -197 47 -213 180l-64 530h175l52 -515c2 -22 8 -27 26 -27h53c34 0 42 19 44 42
c10 111 -30 185 16 242c49 60 121 28 135 67c14 40 -28 70 -28 123c0 52 32 78 99 78s99 -26 99 -78c0 -53 -42 -83 -28 -123c14 -39 86 -7 135 -67c46 -57 6 -131 16 -242c2 -23 10 -42 44 -42h53c18 0 24 5 26 27z" />
    <glyph glyph-name="X.ss02" horiz-adv-x="935" 
d="M452 224c-21 0 -25 -2 -43 -31c-98 -152 -169 -203 -245 -203c-64 0 -104 40 -104 112c0 78 50 134 142 111l118 -30c56 -14 66 19 66 113v112c0 95 -45 124 -160 124h-144v168h95c239 0 263 -58 313 -191c10 -31 18 -33 34 -33c26 0 38 32 58 76c60 110 122 158 189 158
c64 0 104 -40 104 -112c0 -78 -47 -111 -142 -111h-108c-34 0 -66 -29 -66 -113v-84c0 -107 42 -122 174 -122h130v-168h-95c-196 0 -211 22 -275 184c-13 33 -20 40 -41 40z" />
    <glyph glyph-name="Y.ss02" horiz-adv-x="942" 
d="M688 429l32 271h172l-18 -143c-19 -156 -73 -323 -185 -323c-63 0 -89 51 -132 51c-23 0 -39 -12 -39 -35c0 -37 37 -63 37 -149v-101h-168v101c0 86 37 112 37 149c0 23 -16 35 -39 35c-43 0 -69 -51 -132 -51c-112 0 -166 167 -185 323l-18 143h172l32 -271
c6 -53 34 -71 94 -71h246c60 0 88 18 94 71z" />
    <glyph glyph-name="Yacute.ss02" horiz-adv-x="942" 
d="M609 929l49 -100c-84 -37 -164 -64 -267 -85l-30 84c85 22 182 61 248 101zM688 429l32 271h172l-18 -143c-19 -156 -73 -323 -185 -323c-63 0 -89 51 -132 51c-23 0 -39 -12 -39 -35c0 -37 37 -63 37 -149v-101h-168v101c0 86 37 112 37 149c0 23 -16 35 -39 35
c-43 0 -69 -51 -132 -51c-112 0 -166 167 -185 323l-18 143h172l32 -271c6 -53 34 -71 94 -71h246c60 0 88 18 94 71z" />
    <glyph glyph-name="Ycircumflex.ss02" horiz-adv-x="942" 
d="M461 809c-48 -26 -96 -49 -157 -65l-30 84c64 22 137 57 187 101c50 -44 123 -79 187 -101l-30 -84c-61 16 -109 39 -157 65zM688 429l32 271h172l-18 -143c-19 -156 -73 -323 -185 -323c-63 0 -89 51 -132 51c-23 0 -39 -12 -39 -35c0 -37 37 -63 37 -149v-101h-168v101
c0 86 37 112 37 149c0 23 -16 35 -39 35c-43 0 -69 -51 -132 -51c-112 0 -166 167 -185 323l-18 143h172l32 -271c6 -53 34 -71 94 -71h246c60 0 88 18 94 71z" />
    <glyph glyph-name="Ydieresis.ss02" horiz-adv-x="942" 
d="M343 754c-54 0 -83 29 -83 83c0 55 29 84 83 84c55 0 82 -29 82 -84c0 -54 -27 -83 -82 -83zM581 754c-55 0 -83 29 -83 83c0 55 28 84 83 84s82 -29 82 -84c0 -54 -27 -83 -82 -83zM688 429l32 271h172l-18 -143c-19 -156 -73 -323 -185 -323c-63 0 -89 51 -132 51
c-23 0 -39 -12 -39 -35c0 -37 37 -63 37 -149v-101h-168v101c0 86 37 112 37 149c0 23 -16 35 -39 35c-43 0 -69 -51 -132 -51c-112 0 -166 167 -185 323l-18 143h172l32 -271c6 -53 34 -71 94 -71h246c60 0 88 18 94 71z" />
    <glyph glyph-name="Ygrave.ss02" horiz-adv-x="942" 
d="M572 828l-30 -84c-103 21 -183 48 -267 85l49 100c66 -40 163 -79 248 -101zM688 429l32 271h172l-18 -143c-19 -156 -73 -323 -185 -323c-63 0 -89 51 -132 51c-23 0 -39 -12 -39 -35c0 -37 37 -63 37 -149v-101h-168v101c0 86 37 112 37 149c0 23 -16 35 -39 35
c-43 0 -69 -51 -132 -51c-112 0 -166 167 -185 323l-18 143h172l32 -271c6 -53 34 -71 94 -71h246c60 0 88 18 94 71z" />
    <glyph glyph-name="A.ss03" horiz-adv-x="984" 
d="M798 340l156 -321v-19h-192l-161 389c-35 84 -63 99 -109 99s-74 -15 -109 -99l-161 -389h-192v19l156 321c65 134 187 73 195 147c4 38 -21 58 -21 124c0 59 52 99 132 99s132 -40 132 -99c0 -66 -25 -86 -21 -124c8 -74 130 -13 195 -147zM492 224
c78 0 116 -40 116 -117c0 -76 -38 -117 -116 -117c-76 0 -117 41 -117 117c0 77 41 117 117 117z" />
    <glyph glyph-name="Aacute.ss03" horiz-adv-x="984" 
d="M640 929l49 -100c-84 -37 -164 -64 -267 -85l-30 84c85 22 182 61 248 101zM798 340l156 -321v-19h-192l-161 389c-35 84 -63 99 -109 99s-74 -15 -109 -99l-161 -389h-192v19l156 321c65 134 187 73 195 147c4 38 -21 58 -21 124c0 59 52 99 132 99s132 -40 132 -99
c0 -66 -25 -86 -21 -124c8 -74 130 -13 195 -147zM492 224c78 0 116 -40 116 -117c0 -76 -38 -117 -116 -117c-76 0 -117 41 -117 117c0 77 41 117 117 117z" />
    <glyph glyph-name="Acircumflex.ss03" horiz-adv-x="984" 
d="M492 809c-48 -26 -96 -49 -157 -65l-30 84c64 22 137 57 187 101c50 -44 123 -79 187 -101l-30 -84c-61 16 -109 39 -157 65zM798 340l156 -321v-19h-192l-161 389c-35 84 -63 99 -109 99s-74 -15 -109 -99l-161 -389h-192v19l156 321c65 134 187 73 195 147
c4 38 -21 58 -21 124c0 59 52 99 132 99s132 -40 132 -99c0 -66 -25 -86 -21 -124c8 -74 130 -13 195 -147zM492 224c78 0 116 -40 116 -117c0 -76 -38 -117 -116 -117c-76 0 -117 41 -117 117c0 77 41 117 117 117z" />
    <glyph glyph-name="Adieresis.ss03" horiz-adv-x="984" 
d="M374 754c-54 0 -83 29 -83 83c0 55 29 84 83 84c55 0 82 -29 82 -84c0 -54 -27 -83 -82 -83zM612 754c-55 0 -83 29 -83 83c0 55 28 84 83 84s82 -29 82 -84c0 -54 -27 -83 -82 -83zM798 340l156 -321v-19h-192l-161 389c-35 84 -63 99 -109 99s-74 -15 -109 -99
l-161 -389h-192v19l156 321c65 134 187 73 195 147c4 38 -21 58 -21 124c0 59 52 99 132 99s132 -40 132 -99c0 -66 -25 -86 -21 -124c8 -74 130 -13 195 -147zM492 224c78 0 116 -40 116 -117c0 -76 -38 -117 -116 -117c-76 0 -117 41 -117 117c0 77 41 117 117 117z" />
    <glyph glyph-name="Agrave.ss03" horiz-adv-x="984" 
d="M603 828l-30 -84c-103 21 -183 48 -267 85l49 100c66 -40 163 -79 248 -101zM798 340l156 -321v-19h-192l-161 389c-35 84 -63 99 -109 99s-74 -15 -109 -99l-161 -389h-192v19l156 321c65 134 187 73 195 147c4 38 -21 58 -21 124c0 59 52 99 132 99s132 -40 132 -99
c0 -66 -25 -86 -21 -124c8 -74 130 -13 195 -147zM492 224c78 0 116 -40 116 -117c0 -76 -38 -117 -116 -117c-76 0 -117 41 -117 117c0 77 41 117 117 117z" />
    <glyph glyph-name="Aring.ss03" horiz-adv-x="984" 
d="M798 340l156 -321v-19h-192l-161 389c-35 84 -63 99 -109 99s-74 -15 -109 -99l-161 -389h-192v19l156 321c65 134 187 73 195 147c4 38 -21 58 -21 124c0 32 16 59 43 77c-24 19 -37 49 -37 89c0 78 44 118 126 118c84 0 125 -40 125 -118c0 -40 -12 -70 -36 -89
c27 -18 43 -45 43 -77c0 -66 -25 -86 -21 -124c8 -74 130 -13 195 -147zM492 825c-37 0 -56 -21 -56 -58c0 -35 19 -56 56 -56s55 21 55 56c0 37 -18 58 -55 58zM492 224c78 0 116 -40 116 -117c0 -76 -38 -117 -116 -117c-76 0 -117 41 -117 117c0 77 41 117 117 117z" />
    <glyph glyph-name="Atilde.ss03" horiz-adv-x="984" 
d="M418 761c-90 0 -122 49 -140 152h98c18 -58 27 -68 47 -68c29 0 59 78 144 78c90 0 122 -49 140 -152h-98c-18 58 -27 68 -47 68c-29 0 -59 -78 -144 -78zM798 340l156 -321v-19h-192l-161 389c-35 84 -63 99 -109 99s-74 -15 -109 -99l-161 -389h-192v19l156 321
c65 134 187 73 195 147c4 38 -21 58 -21 124c0 59 52 99 132 99s132 -40 132 -99c0 -66 -25 -86 -21 -124c8 -74 130 -13 195 -147zM492 224c78 0 116 -40 116 -117c0 -76 -38 -117 -116 -117c-76 0 -117 41 -117 117c0 77 41 117 117 117z" />
    <glyph glyph-name="AE.ss03" horiz-adv-x="1366" 
d="M760 148h521v-148h-540c-87 0 -168 43 -148 132c8 36 2 61 -27 61c-41 0 -109 -20 -235 -20h-70l-18 -173h-173l43 373c29 255 134 337 333 337c115 0 165 -50 185 -50c25 0 35 40 125 40h515v-148h-511c-16 0 -23 -10 -14 -29l24 -50c21 -43 45 -59 82 -75
c28 -12 46 -22 46 -48s-18 -36 -46 -48c-37 -16 -61 -32 -82 -75l-24 -50c-9 -19 -2 -29 14 -29zM706 301c23 0 31 11 31 40c0 35 -3 43 -22 48c-79 19 -134 53 -143 109c-7 43 -20 54 -41 54h-170c-40 0 -63 -9 -67 -52l-18 -179h238c81 0 132 -20 192 -20zM982 351
c0 74 39 112 111 112c74 0 110 -38 110 -112c0 -72 -36 -111 -110 -111c-72 0 -111 39 -111 111z" />
    <glyph glyph-name="B.ss03" horiz-adv-x="914" 
d="M720 328c57 -4 124 -23 124 -151c0 -121 -89 -177 -368 -177h-376v700h346c259 0 378 -31 378 -185c0 -79 -45 -122 -106 -134c-36 -4 -45 -6 -45 -27s12 -24 47 -26zM268 148h309c52 0 87 11 87 59c0 65 -53 86 -54 145c-1 58 34 74 34 137c0 56 -20 63 -87 63h-289
v-404zM445 452c70 0 104 -36 104 -106c0 -68 -34 -105 -104 -105c-68 0 -105 37 -105 105c0 70 37 106 105 106z" />
    <glyph glyph-name="E.ss03" horiz-adv-x="870" 
d="M245 700h540v-148h-521c-16 0 -23 -10 -14 -29l24 -50c21 -43 45 -59 82 -75c28 -12 46 -22 46 -48s-18 -36 -46 -48c-37 -16 -61 -32 -82 -75l-24 -50c-9 -19 -2 -29 14 -29h521v-148h-540c-107 0 -175 60 -175 158c0 83 40 128 154 154c13 3 16 8 16 38s-3 35 -16 38
c-114 26 -154 71 -154 154c0 98 68 158 175 158zM496 351c0 74 39 112 111 112c74 0 110 -38 110 -112c0 -72 -36 -111 -110 -111c-72 0 -111 39 -111 111z" />
    <glyph glyph-name="Eacute.ss03" horiz-adv-x="870" 
d="M613 929l49 -100c-84 -37 -164 -64 -267 -85l-30 84c85 22 182 61 248 101zM245 700h540v-148h-521c-16 0 -23 -10 -14 -29l24 -50c21 -43 45 -59 82 -75c28 -12 46 -22 46 -48s-18 -36 -46 -48c-37 -16 -61 -32 -82 -75l-24 -50c-9 -19 -2 -29 14 -29h521v-148h-540
c-107 0 -175 60 -175 158c0 83 40 128 154 154c13 3 16 8 16 38s-3 35 -16 38c-114 26 -154 71 -154 154c0 98 68 158 175 158zM496 351c0 74 39 112 111 112c74 0 110 -38 110 -112c0 -72 -36 -111 -110 -111c-72 0 -111 39 -111 111z" />
    <glyph glyph-name="Ecircumflex.ss03" horiz-adv-x="870" 
d="M465 809c-48 -26 -96 -49 -157 -65l-30 84c64 22 137 57 187 101c50 -44 123 -79 187 -101l-30 -84c-61 16 -109 39 -157 65zM245 700h540v-148h-521c-16 0 -23 -10 -14 -29l24 -50c21 -43 45 -59 82 -75c28 -12 46 -22 46 -48s-18 -36 -46 -48c-37 -16 -61 -32 -82 -75
l-24 -50c-9 -19 -2 -29 14 -29h521v-148h-540c-107 0 -175 60 -175 158c0 83 40 128 154 154c13 3 16 8 16 38s-3 35 -16 38c-114 26 -154 71 -154 154c0 98 68 158 175 158zM496 351c0 74 39 112 111 112c74 0 110 -38 110 -112c0 -72 -36 -111 -110 -111
c-72 0 -111 39 -111 111z" />
    <glyph glyph-name="Edieresis.ss03" horiz-adv-x="870" 
d="M347 754c-54 0 -83 29 -83 83c0 55 29 84 83 84c55 0 82 -29 82 -84c0 -54 -27 -83 -82 -83zM585 754c-55 0 -83 29 -83 83c0 55 28 84 83 84s82 -29 82 -84c0 -54 -27 -83 -82 -83zM245 700h540v-148h-521c-16 0 -23 -10 -14 -29l24 -50c21 -43 45 -59 82 -75
c28 -12 46 -22 46 -48s-18 -36 -46 -48c-37 -16 -61 -32 -82 -75l-24 -50c-9 -19 -2 -29 14 -29h521v-148h-540c-107 0 -175 60 -175 158c0 83 40 128 154 154c13 3 16 8 16 38s-3 35 -16 38c-114 26 -154 71 -154 154c0 98 68 158 175 158zM496 351c0 74 39 112 111 112
c74 0 110 -38 110 -112c0 -72 -36 -111 -110 -111c-72 0 -111 39 -111 111z" />
    <glyph glyph-name="Egrave.ss03" horiz-adv-x="870" 
d="M576 828l-30 -84c-103 21 -183 48 -267 85l49 100c66 -40 163 -79 248 -101zM245 700h540v-148h-521c-16 0 -23 -10 -14 -29l24 -50c21 -43 45 -59 82 -75c28 -12 46 -22 46 -48s-18 -36 -46 -48c-37 -16 -61 -32 -82 -75l-24 -50c-9 -19 -2 -29 14 -29h521v-148h-540
c-107 0 -175 60 -175 158c0 83 40 128 154 154c13 3 16 8 16 38s-3 35 -16 38c-114 26 -154 71 -154 154c0 98 68 158 175 158zM496 351c0 74 39 112 111 112c74 0 110 -38 110 -112c0 -72 -36 -111 -110 -111c-72 0 -111 39 -111 111z" />
    <glyph glyph-name="I.ss03" horiz-adv-x="354" 
d="M279 350c0 80 -68 91 -68 130c0 37 68 51 68 136c0 66 -45 94 -102 94s-102 -28 -102 -94c0 -85 68 -99 68 -136c0 -39 -68 -50 -68 -130s68 -92 68 -130c0 -37 -68 -51 -68 -136c0 -66 45 -94 102 -94s102 28 102 94c0 85 -68 99 -68 136c0 38 68 50 68 130z" />
    <glyph glyph-name="Iacute.ss03" horiz-adv-x="354" 
d="M107 744l-30 84c85 22 182 61 248 101l49 -100c-84 -37 -164 -64 -267 -85zM279 350c0 80 -68 91 -68 130c0 37 68 51 68 136c0 66 -45 94 -102 94s-102 -28 -102 -94c0 -85 68 -99 68 -136c0 -39 -68 -50 -68 -130s68 -92 68 -130c0 -37 -68 -51 -68 -136
c0 -66 45 -94 102 -94s102 28 102 94c0 85 -68 99 -68 136c0 38 68 50 68 130z" />
    <glyph glyph-name="Icircumflex.ss03" horiz-adv-x="354" 
d="M177 929c50 -44 123 -79 187 -101l-30 -84c-61 16 -109 39 -157 65c-48 -26 -96 -49 -157 -65l-30 84c64 22 137 57 187 101zM177 710c57 0 102 -28 102 -94c0 -85 -68 -99 -68 -136c0 -39 68 -50 68 -130s-68 -92 -68 -130c0 -37 68 -51 68 -136c0 -66 -45 -94 -102 -94
s-102 28 -102 94c0 85 68 99 68 136c0 38 -68 50 -68 130s68 91 68 130c0 37 -68 51 -68 136c0 66 45 94 102 94z" />
    <glyph glyph-name="Idieresis.ss03" horiz-adv-x="354" 
d="M59 754c-54 0 -83 29 -83 83c0 55 29 84 83 84c55 0 82 -29 82 -84c0 -54 -27 -83 -82 -83zM297 754c-55 0 -83 29 -83 83c0 55 28 84 83 84s82 -29 82 -84c0 -54 -27 -83 -82 -83zM279 350c0 80 -68 91 -68 130c0 37 68 51 68 136c0 66 -45 94 -102 94
s-102 -28 -102 -94c0 -85 68 -99 68 -136c0 -39 -68 -50 -68 -130s68 -92 68 -130c0 -37 -68 -51 -68 -136c0 -66 45 -94 102 -94s102 28 102 94c0 85 -68 99 -68 136c0 38 68 50 68 130z" />
    <glyph glyph-name="Igrave.ss03" horiz-adv-x="354" 
d="M288 828l-30 -84c-103 21 -183 48 -267 85l49 100c66 -40 163 -79 248 -101zM279 350c0 80 -68 91 -68 130c0 37 68 51 68 136c0 66 -45 94 -102 94s-102 -28 -102 -94c0 -85 68 -99 68 -136c0 -39 -68 -50 -68 -130s68 -92 68 -130c0 -37 -68 -51 -68 -136
c0 -66 45 -94 102 -94s102 28 102 94c0 85 -68 99 -68 136c0 38 68 50 68 130z" />
    <glyph glyph-name="M.ss03" horiz-adv-x="1210" 
d="M1076 530l64 -530h-175l-52 515c-2 22 -8 27 -26 27h-47c-16 0 -21 -13 -25 -42c-24 -172 -85 -237 -210 -237s-186 65 -210 237c-4 29 -9 42 -25 42h-47c-18 0 -24 -5 -26 -27l-52 -515h-175l64 530c16 133 113 180 207 180c126 0 177 -56 204 -172l24 -105
c5 -22 10 -30 36 -30s31 8 36 30l24 105c27 116 78 172 204 172c94 0 191 -47 207 -180zM607 213c74 0 110 -38 110 -112c0 -72 -36 -111 -110 -111c-72 0 -111 39 -111 111c0 74 39 112 111 112z" />
    <glyph glyph-name="N.ss03" horiz-adv-x="1050" 
d="M530 342l-171 178c-19 18 -30 22 -47 22h-20c-16 0 -24 -9 -24 -23v-519h-168v530c0 122 82 182 193 182c91 0 145 -26 226 -112l170 -177c20 -19 32 -22 56 -22c19 0 27 3 27 41v258l168 -1v-287c0 -104 -48 -137 -155 -156c-101 -18 -189 17 -255 86zM840 -10
c-72 0 -111 39 -111 111c0 74 39 112 111 112c74 0 110 -38 110 -112c0 -72 -36 -111 -110 -111z" />
    <glyph glyph-name="Ntilde.ss03" horiz-adv-x="1050" 
d="M341 913h98c18 -58 27 -68 47 -68c29 0 59 78 144 78c90 0 122 -49 140 -152h-98c-18 58 -27 68 -47 68c-29 0 -59 -78 -144 -78c-90 0 -122 49 -140 152zM530 342l-171 178c-19 18 -30 22 -47 22h-20c-16 0 -24 -9 -24 -23v-519h-168v530c0 122 82 182 193 182
c91 0 145 -26 226 -112l170 -177c20 -19 32 -22 56 -22c19 0 27 3 27 41v258l168 -1v-287c0 -104 -48 -137 -155 -156c-101 -18 -189 17 -255 86zM840 -10c-72 0 -111 39 -111 111c0 74 39 112 111 112c74 0 110 -38 110 -112c0 -72 -36 -111 -110 -111z" />
    <glyph glyph-name="O.ss03" 
d="M478 710c288 0 408 -97 408 -360s-120 -360 -408 -360s-408 97 -408 360s120 360 408 360zM478 133c186 0 233 25 233 217s-47 217 -233 217s-233 -25 -233 -217s47 -217 233 -217zM479 456c70 0 104 -36 104 -106c0 -68 -34 -105 -104 -105c-68 0 -105 37 -105 105
c0 70 37 106 105 106z" />
    <glyph glyph-name="Oacute.ss03" 
d="M626 929l49 -100c-84 -37 -164 -64 -267 -85l-30 84c85 22 182 61 248 101zM478 710c288 0 408 -97 408 -360s-120 -360 -408 -360s-408 97 -408 360s120 360 408 360zM478 133c186 0 233 25 233 217s-47 217 -233 217s-233 -25 -233 -217s47 -217 233 -217zM479 456
c70 0 104 -36 104 -106c0 -68 -34 -105 -104 -105c-68 0 -105 37 -105 105c0 70 37 106 105 106z" />
    <glyph glyph-name="Ocircumflex.ss03" 
d="M478 809c-48 -26 -96 -49 -157 -65l-30 84c64 22 137 57 187 101c50 -44 123 -79 187 -101l-30 -84c-61 16 -109 39 -157 65zM478 710c288 0 408 -97 408 -360s-120 -360 -408 -360s-408 97 -408 360s120 360 408 360zM478 133c186 0 233 25 233 217s-47 217 -233 217
s-233 -25 -233 -217s47 -217 233 -217zM479 456c70 0 104 -36 104 -106c0 -68 -34 -105 -104 -105c-68 0 -105 37 -105 105c0 70 37 106 105 106z" />
    <glyph glyph-name="Odieresis.ss03" 
d="M360 754c-54 0 -83 29 -83 83c0 55 29 84 83 84c55 0 82 -29 82 -84c0 -54 -27 -83 -82 -83zM598 754c-55 0 -83 29 -83 83c0 55 28 84 83 84s82 -29 82 -84c0 -54 -27 -83 -82 -83zM478 710c288 0 408 -97 408 -360s-120 -360 -408 -360s-408 97 -408 360
s120 360 408 360zM478 133c186 0 233 25 233 217s-47 217 -233 217s-233 -25 -233 -217s47 -217 233 -217zM479 456c70 0 104 -36 104 -106c0 -68 -34 -105 -104 -105c-68 0 -105 37 -105 105c0 70 37 106 105 106z" />
    <glyph glyph-name="Ograve.ss03" 
d="M589 828l-30 -84c-103 21 -183 48 -267 85l49 100c66 -40 163 -79 248 -101zM478 710c288 0 408 -97 408 -360s-120 -360 -408 -360s-408 97 -408 360s120 360 408 360zM478 133c186 0 233 25 233 217s-47 217 -233 217s-233 -25 -233 -217s47 -217 233 -217zM479 456
c70 0 104 -36 104 -106c0 -68 -34 -105 -104 -105c-68 0 -105 37 -105 105c0 70 37 106 105 106z" />
    <glyph glyph-name="Otilde.ss03" 
d="M404 761c-90 0 -122 49 -140 152h98c18 -58 27 -68 47 -68c29 0 59 78 144 78c90 0 122 -49 140 -152h-98c-18 58 -27 68 -47 68c-29 0 -59 -78 -144 -78zM478 710c288 0 408 -97 408 -360s-120 -360 -408 -360s-408 97 -408 360s120 360 408 360zM478 133
c186 0 233 25 233 217s-47 217 -233 217s-233 -25 -233 -217s47 -217 233 -217zM479 456c70 0 104 -36 104 -106c0 -68 -34 -105 -104 -105c-68 0 -105 37 -105 105c0 70 37 106 105 106z" />
    <glyph glyph-name="OE.ss03" horiz-adv-x="1384" 
d="M70 350c0 263 120 360 391 360c126 0 148 -64 188 -64c41 0 79 54 159 54h491v-148h-491c-16 0 -23 -11 -14 -29l25 -50c21 -43 45 -59 82 -75c28 -12 46 -22 46 -48s-18 -36 -46 -48c-37 -16 -60 -32 -82 -75l-25 -50c-10 -19 -2 -29 14 -29h491v-148h-491
c-80 0 -118 54 -159 54c-40 0 -62 -64 -188 -64c-271 0 -391 97 -391 360zM250 350c0 -188 46 -212 252 -212c74 0 95 27 130 97c19 38 70 64 131 75c17 3 21 13 21 40s-4 37 -21 40c-61 9 -112 37 -131 75c-36 70 -56 97 -130 97c-206 0 -252 -24 -252 -212zM1031 351
c0 74 39 112 111 112c74 0 110 -38 110 -112c0 -72 -36 -111 -110 -111c-72 0 -111 39 -111 111z" />
    <glyph glyph-name="Q.ss03" 
d="M368 -10c-225 0 -298 99 -298 360c0 263 120 360 408 360s408 -97 408 -360c0 -146 -49 -217 -120 -217c-72 0 -133 52 -180 21c-13 -9 -26 -32 -35 -59c-21 -62 -43 -105 -183 -105zM428 138c92 0 107 24 107 47c0 52 -71 35 -120 72c-33 25 -38 56 -37 76
c4 62 45 94 98 94c56 0 99 -36 99 -100c0 -32 -2 -29 -2 -58c0 -41 20 -58 56 -58c39 0 77 35 77 139c0 188 -46 212 -228 212s-228 -24 -228 -212s36 -212 178 -212zM685 -122c-72 0 -111 39 -111 111c0 74 39 112 111 112c74 0 110 -38 110 -112c0 -72 -36 -111 -110 -111
z" />
    <glyph glyph-name="R.ss03" horiz-adv-x="915" 
d="M268 552v-176c0 -89 29 -111 97 -119c105 -13 175 -22 223 -80l20 -24c11 -13 17 -14 35 -14h7c13 0 22 2 25 13l23 77h147l-25 -89c-34 -120 -96 -150 -175 -150c-90 0 -144 41 -210 119l-40 46c-43 49 -79 69 -127 69v-224h-168v700h468c196 0 268 -46 268 -212
c0 -95 -24 -211 -164 -211c-104 0 -171 70 -288 81c-21 2 -31 10 -31 24c0 15 9 21 25 21h241c34 0 48 4 48 47v58c0 36 -15 44 -48 44h-351z" />
    <glyph glyph-name="S.ss03" horiz-adv-x="902" 
d="M86 496c0 134 112 214 374 214c209 0 304 -73 334 -178l16 -56h-181c-17 62 -46 85 -103 85l-176 -1c-54 0 -85 -15 -86 -60c-1 -31 21 -71 78 -65c48 5 75 14 125 14c74 0 110 -38 110 -112c0 -72 -36 -111 -111 -111c-161 0 -110 187 -190 187c-53 0 -55 -33 -109 -33
c-62 0 -81 62 -81 116zM733 334c65 0 89 -45 89 -134c0 -123 -77 -213 -351 -210c-208 0 -349 57 -383 168l-18 58h182c28 -52 35 -87 165 -87h113c130 0 163 48 163 125c0 38 4 80 40 80z" />
    <glyph glyph-name="V.ss03" horiz-adv-x="896" 
d="M520 311l164 389h192v-19l-152 -321c-30 -64 -54 -93 -100 -109c-64 -20 -89 -41 -89 -63c1 -23 45 -44 45 -97c0 -59 -45 -100 -132 -101c-87 1 -132 42 -132 101c0 53 44 74 45 97c0 22 -25 43 -89 63c-46 16 -70 45 -100 109l-152 321v19h192l164 -389
c24 -56 10 -121 72 -121s48 65 72 121z" />
    <glyph glyph-name="W.ss03" horiz-adv-x="1210" 
d="M603 487c-74 0 -110 38 -110 112c0 72 36 111 110 111c72 0 111 -39 111 -111c0 -74 -39 -112 -111 -112zM913 185l52 515h175l-64 -530c-16 -133 -113 -180 -207 -180c-126 0 -177 56 -204 172l-24 105c-5 22 -10 30 -36 30s-31 -8 -36 -30l-24 -105
c-27 -116 -78 -172 -204 -172c-94 0 -191 47 -207 180l-64 530h175l52 -515c2 -22 8 -27 26 -27h47c16 0 21 13 25 42c24 172 85 237 210 237s186 -65 210 -237c4 -29 9 -42 25 -42h47c18 0 24 5 26 27z" />
    <glyph glyph-name="X.ss03" horiz-adv-x="928" 
d="M379 296v112c0 95 -45 124 -160 124h-144v168h95c239 0 263 -58 313 -191c10 -31 18 -33 34 -33c26 0 38 32 58 76c60 110 122 158 189 158c64 0 104 -40 104 -112c0 -78 -47 -111 -142 -111h-108c-34 0 -66 -29 -66 -113v-84c0 -107 42 -122 174 -122h130v-168h-95
c-297 0 -382 53 -382 296zM171 -10c-72 0 -111 39 -111 111c0 74 39 112 111 112c74 0 110 -38 110 -112c0 -72 -36 -111 -110 -111z" />
    <glyph glyph-name="Y.ss03" horiz-adv-x="942" 
d="M688 429l32 271h172l-18 -143c-31 -250 -113 -322 -204 -322c-53 0 -97 21 -136 50c-36 26 -40 28 -63 28s-27 -2 -63 -28c-39 -29 -83 -50 -136 -50c-91 0 -173 72 -204 322l-18 143h172l32 -271c6 -53 15 -71 52 -71c51 0 77 45 165 45s114 -45 165 -45
c37 0 46 18 52 71zM471 224c78 0 116 -40 116 -117c0 -76 -38 -117 -116 -117c-76 0 -117 41 -117 117c0 77 41 117 117 117z" />
    <glyph glyph-name="Yacute.ss03" horiz-adv-x="942" 
d="M609 929l49 -100c-84 -37 -164 -64 -267 -85l-30 84c85 22 182 61 248 101zM688 429l32 271h172l-18 -143c-31 -250 -113 -322 -204 -322c-53 0 -97 21 -136 50c-36 26 -40 28 -63 28s-27 -2 -63 -28c-39 -29 -83 -50 -136 -50c-91 0 -173 72 -204 322l-18 143h172
l32 -271c6 -53 15 -71 52 -71c51 0 77 45 165 45s114 -45 165 -45c37 0 46 18 52 71zM471 224c78 0 116 -40 116 -117c0 -76 -38 -117 -116 -117c-76 0 -117 41 -117 117c0 77 41 117 117 117z" />
    <glyph glyph-name="Ycircumflex.ss03" horiz-adv-x="942" 
d="M461 809c-48 -26 -96 -49 -157 -65l-30 84c64 22 137 57 187 101c50 -44 123 -79 187 -101l-30 -84c-61 16 -109 39 -157 65zM688 429l32 271h172l-18 -143c-31 -250 -113 -322 -204 -322c-53 0 -97 21 -136 50c-36 26 -40 28 -63 28s-27 -2 -63 -28
c-39 -29 -83 -50 -136 -50c-91 0 -173 72 -204 322l-18 143h172l32 -271c6 -53 15 -71 52 -71c51 0 77 45 165 45s114 -45 165 -45c37 0 46 18 52 71zM471 224c78 0 116 -40 116 -117c0 -76 -38 -117 -116 -117c-76 0 -117 41 -117 117c0 77 41 117 117 117z" />
    <glyph glyph-name="Ydieresis.ss03" horiz-adv-x="942" 
d="M343 754c-54 0 -83 29 -83 83c0 55 29 84 83 84c55 0 82 -29 82 -84c0 -54 -27 -83 -82 -83zM581 754c-55 0 -83 29 -83 83c0 55 28 84 83 84s82 -29 82 -84c0 -54 -27 -83 -82 -83zM688 429l32 271h172l-18 -143c-31 -250 -113 -322 -204 -322c-53 0 -97 21 -136 50
c-36 26 -40 28 -63 28s-27 -2 -63 -28c-39 -29 -83 -50 -136 -50c-91 0 -173 72 -204 322l-18 143h172l32 -271c6 -53 15 -71 52 -71c51 0 77 45 165 45s114 -45 165 -45c37 0 46 18 52 71zM471 224c78 0 116 -40 116 -117c0 -76 -38 -117 -116 -117c-76 0 -117 41 -117 117
c0 77 41 117 117 117z" />
    <glyph glyph-name="Ygrave.ss03" horiz-adv-x="942" 
d="M572 828l-30 -84c-103 21 -183 48 -267 85l49 100c66 -40 163 -79 248 -101zM688 429l32 271h172l-18 -143c-31 -250 -113 -322 -204 -322c-53 0 -97 21 -136 50c-36 26 -40 28 -63 28s-27 -2 -63 -28c-39 -29 -83 -50 -136 -50c-91 0 -173 72 -204 322l-18 143h172
l32 -271c6 -53 15 -71 52 -71c51 0 77 45 165 45s114 -45 165 -45c37 0 46 18 52 71zM471 224c78 0 116 -40 116 -117c0 -76 -38 -117 -116 -117c-76 0 -117 41 -117 117c0 77 41 117 117 117z" />
    <glyph glyph-name="A.ss04" horiz-adv-x="885" 
d="M443 488c-73 0 -112 39 -112 111c0 73 39 111 112 111s110 -38 110 -111c0 -72 -37 -111 -110 -111zM299 240c-74 0 -111 39 -111 112c0 72 37 111 111 111c72 0 110 -39 110 -111c0 -73 -38 -112 -110 -112zM590 240c-72 0 -111 39 -111 112c0 72 39 111 111 111
c73 0 110 -39 110 -111c0 -73 -37 -112 -110 -112zM161 -10c-72 0 -111 39 -111 111c0 74 39 112 111 112c74 0 110 -38 110 -112c0 -72 -36 -111 -110 -111zM443 -10c-73 0 -112 39 -112 111c0 74 39 112 112 112s110 -38 110 -112c0 -72 -37 -111 -110 -111zM725 -10
c-73 0 -112 39 -112 111c0 74 39 112 112 112s110 -38 110 -112c0 -72 -37 -111 -110 -111z" />
    <glyph glyph-name="Aacute.ss04" horiz-adv-x="885" 
d="M373 744l-30 84c85 22 182 61 248 101l49 -100c-84 -37 -164 -64 -267 -85zM443 488c-73 0 -112 39 -112 111c0 73 39 111 112 111s110 -38 110 -111c0 -72 -37 -111 -110 -111zM299 240c-74 0 -111 39 -111 112c0 72 37 111 111 111c72 0 110 -39 110 -111
c0 -73 -38 -112 -110 -112zM590 240c-72 0 -111 39 -111 112c0 72 39 111 111 111c73 0 110 -39 110 -111c0 -73 -37 -112 -110 -112zM161 -10c-72 0 -111 39 -111 111c0 74 39 112 111 112c74 0 110 -38 110 -112c0 -72 -36 -111 -110 -111zM443 -10
c-73 0 -112 39 -112 111c0 74 39 112 112 112s110 -38 110 -112c0 -72 -37 -111 -110 -111zM725 -10c-73 0 -112 39 -112 111c0 74 39 112 112 112s110 -38 110 -112c0 -72 -37 -111 -110 -111z" />
    <glyph glyph-name="Acircumflex.ss04" horiz-adv-x="885" 
d="M443 809c-48 -26 -96 -49 -157 -65l-30 84c64 22 137 57 187 101c50 -44 123 -79 187 -101l-30 -84c-61 16 -109 39 -157 65zM331 599c0 73 39 111 112 111s110 -38 110 -111c0 -72 -37 -111 -110 -111s-112 39 -112 111zM409 352c0 -73 -38 -112 -110 -112
c-74 0 -111 39 -111 112c0 72 37 111 111 111c72 0 110 -39 110 -111zM700 352c0 -73 -37 -112 -110 -112c-72 0 -111 39 -111 112c0 72 39 111 111 111c73 0 110 -39 110 -111zM161 213c74 0 110 -38 110 -112c0 -72 -36 -111 -110 -111c-72 0 -111 39 -111 111
c0 74 39 112 111 112zM443 213c73 0 110 -38 110 -112c0 -72 -37 -111 -110 -111s-112 39 -112 111c0 74 39 112 112 112zM725 213c73 0 110 -38 110 -112c0 -72 -37 -111 -110 -111s-112 39 -112 111c0 74 39 112 112 112z" />
    <glyph glyph-name="Adieresis.ss04" horiz-adv-x="885" 
d="M325 754c-54 0 -83 29 -83 83c0 55 29 84 83 84c55 0 82 -29 82 -84c0 -54 -27 -83 -82 -83zM563 754c-55 0 -83 29 -83 83c0 55 28 84 83 84s82 -29 82 -84c0 -54 -27 -83 -82 -83zM443 488c-73 0 -112 39 -112 111c0 73 39 111 112 111s110 -38 110 -111
c0 -72 -37 -111 -110 -111zM299 240c-74 0 -111 39 -111 112c0 72 37 111 111 111c72 0 110 -39 110 -111c0 -73 -38 -112 -110 -112zM590 240c-72 0 -111 39 -111 112c0 72 39 111 111 111c73 0 110 -39 110 -111c0 -73 -37 -112 -110 -112zM161 -10
c-72 0 -111 39 -111 111c0 74 39 112 111 112c74 0 110 -38 110 -112c0 -72 -36 -111 -110 -111zM443 -10c-73 0 -112 39 -112 111c0 74 39 112 112 112s110 -38 110 -112c0 -72 -37 -111 -110 -111zM725 -10c-73 0 -112 39 -112 111c0 74 39 112 112 112s110 -38 110 -112
c0 -72 -37 -111 -110 -111z" />
    <glyph glyph-name="Agrave.ss04" horiz-adv-x="885" 
d="M554 828l-30 -84c-103 21 -183 48 -267 85l49 100c66 -40 163 -79 248 -101zM443 488c-73 0 -112 39 -112 111c0 73 39 111 112 111s110 -38 110 -111c0 -72 -37 -111 -110 -111zM299 240c-74 0 -111 39 -111 112c0 72 37 111 111 111c72 0 110 -39 110 -111
c0 -73 -38 -112 -110 -112zM590 240c-72 0 -111 39 -111 112c0 72 39 111 111 111c73 0 110 -39 110 -111c0 -73 -37 -112 -110 -112zM161 -10c-72 0 -111 39 -111 111c0 74 39 112 111 112c74 0 110 -38 110 -112c0 -72 -36 -111 -110 -111zM443 -10
c-73 0 -112 39 -112 111c0 74 39 112 112 112s110 -38 110 -112c0 -72 -37 -111 -110 -111zM725 -10c-73 0 -112 39 -112 111c0 74 39 112 112 112s110 -38 110 -112c0 -72 -37 -111 -110 -111z" />
    <glyph glyph-name="Aring.ss04" horiz-adv-x="885" 
d="M361 683c-29 19 -44 50 -44 94c0 78 44 118 126 118c84 0 125 -40 125 -118c0 -44 -14 -76 -43 -95c19 -18 28 -46 28 -83c0 -72 -37 -111 -110 -111s-112 39 -112 111c0 37 10 65 30 84zM443 825c-37 0 -56 -21 -56 -58c0 -35 19 -56 56 -56s55 21 55 56
c0 37 -18 58 -55 58zM409 352c0 -73 -38 -112 -110 -112c-74 0 -111 39 -111 112c0 72 37 111 111 111c72 0 110 -39 110 -111zM700 352c0 -73 -37 -112 -110 -112c-72 0 -111 39 -111 112c0 72 39 111 111 111c73 0 110 -39 110 -111zM161 213c74 0 110 -38 110 -112
c0 -72 -36 -111 -110 -111c-72 0 -111 39 -111 111c0 74 39 112 111 112zM443 213c73 0 110 -38 110 -112c0 -72 -37 -111 -110 -111s-112 39 -112 111c0 74 39 112 112 112zM725 213c73 0 110 -38 110 -112c0 -72 -37 -111 -110 -111s-112 39 -112 111c0 74 39 112 112 112
z" />
    <glyph glyph-name="Atilde.ss04" horiz-adv-x="885" 
d="M229 913h98c18 -58 27 -68 47 -68c29 0 59 78 144 78c90 0 122 -49 140 -152h-98c-18 58 -27 68 -47 68c-29 0 -59 -78 -144 -78c-90 0 -122 49 -140 152zM443 488c-73 0 -112 39 -112 111c0 73 39 111 112 111s110 -38 110 -111c0 -72 -37 -111 -110 -111zM299 240
c-74 0 -111 39 -111 112c0 72 37 111 111 111c72 0 110 -39 110 -111c0 -73 -38 -112 -110 -112zM590 240c-72 0 -111 39 -111 112c0 72 39 111 111 111c73 0 110 -39 110 -111c0 -73 -37 -112 -110 -112zM161 -10c-72 0 -111 39 -111 111c0 74 39 112 111 112
c74 0 110 -38 110 -112c0 -72 -36 -111 -110 -111zM443 -10c-73 0 -112 39 -112 111c0 74 39 112 112 112s110 -38 110 -112c0 -72 -37 -111 -110 -111zM725 -10c-73 0 -112 39 -112 111c0 74 39 112 112 112s110 -38 110 -112c0 -72 -37 -111 -110 -111z" />
    <glyph glyph-name="I.ss04" horiz-adv-x="382" 
d="M192 498c-73 0 -112 37 -112 106c0 70 39 106 112 106s110 -36 110 -106c0 -69 -37 -106 -110 -106zM191 244c-74 0 -111 37 -111 107c0 69 37 106 111 106c72 0 110 -37 110 -106c0 -70 -38 -107 -110 -107zM191 -10c-72 0 -111 37 -111 106c0 71 39 107 111 107
c74 0 110 -36 110 -107c0 -69 -36 -106 -110 -106z" />
    <glyph glyph-name="Iacute.ss04" horiz-adv-x="382" 
d="M122 744l-30 84c85 22 182 61 248 101l49 -100c-84 -37 -164 -64 -267 -85zM192 498c-73 0 -112 37 -112 106c0 70 39 106 112 106s110 -36 110 -106c0 -69 -37 -106 -110 -106zM191 244c-74 0 -111 37 -111 107c0 69 37 106 111 106c72 0 110 -37 110 -106
c0 -70 -38 -107 -110 -107zM191 -10c-72 0 -111 37 -111 106c0 71 39 107 111 107c74 0 110 -36 110 -107c0 -69 -36 -106 -110 -106z" />
    <glyph glyph-name="Icircumflex.ss04" horiz-adv-x="382" 
d="M192 929c50 -44 123 -79 187 -101l-30 -84c-61 16 -109 39 -157 65c-48 -26 -96 -49 -157 -65l-30 84c64 22 137 57 187 101zM192 710c73 0 110 -36 110 -106c0 -69 -37 -106 -110 -106s-112 37 -112 106c0 70 39 106 112 106zM191 457c72 0 110 -37 110 -106
c0 -70 -38 -107 -110 -107c-74 0 -111 37 -111 107c0 69 37 106 111 106zM191 203c74 0 110 -36 110 -107c0 -69 -36 -106 -110 -106c-72 0 -111 37 -111 106c0 71 39 107 111 107z" />
    <glyph glyph-name="Idieresis.ss04" horiz-adv-x="382" 
d="M74 754c-54 0 -83 29 -83 83c0 55 29 84 83 84c55 0 82 -29 82 -84c0 -54 -27 -83 -82 -83zM312 754c-55 0 -83 29 -83 83c0 55 28 84 83 84s82 -29 82 -84c0 -54 -27 -83 -82 -83zM192 498c-73 0 -112 37 -112 106c0 70 39 106 112 106s110 -36 110 -106
c0 -69 -37 -106 -110 -106zM191 244c-74 0 -111 37 -111 107c0 69 37 106 111 106c72 0 110 -37 110 -106c0 -70 -38 -107 -110 -107zM191 -10c-72 0 -111 37 -111 106c0 71 39 107 111 107c74 0 110 -36 110 -107c0 -69 -36 -106 -110 -106z" />
    <glyph glyph-name="Igrave.ss04" horiz-adv-x="382" 
d="M303 828l-30 -84c-103 21 -183 48 -267 85l49 100c66 -40 163 -79 248 -101zM192 498c-73 0 -112 37 -112 106c0 70 39 106 112 106s110 -36 110 -106c0 -69 -37 -106 -110 -106zM191 244c-74 0 -111 37 -111 107c0 69 37 106 111 106c72 0 110 -37 110 -106
c0 -70 -38 -107 -110 -107zM191 -10c-72 0 -111 37 -111 106c0 71 39 107 111 107c74 0 110 -36 110 -107c0 -69 -36 -106 -110 -106z" />
    <glyph glyph-name="N.ss04" horiz-adv-x="1112" 
d="M192 498c-73 0 -112 37 -112 106c0 70 39 106 112 106s110 -36 110 -106c0 -69 -37 -106 -110 -106zM455 498c-73 0 -112 37 -112 106c0 70 39 106 112 106s110 -36 110 -106c0 -69 -37 -106 -110 -106zM922 498c-73 0 -112 37 -112 106c0 70 39 106 112 106
s110 -36 110 -106c0 -69 -37 -106 -110 -106zM191 244c-74 0 -111 37 -111 107c0 69 37 106 111 106c72 0 110 -37 110 -106c0 -70 -38 -107 -110 -107zM556 244c-74 0 -111 37 -111 107c0 69 37 106 111 106c72 0 110 -37 110 -106c0 -70 -38 -107 -110 -107zM921 244
c-74 0 -111 37 -111 107c0 69 37 106 111 106c72 0 110 -37 110 -106c0 -70 -38 -107 -110 -107zM191 -10c-72 0 -111 37 -111 106c0 71 39 107 111 107c74 0 110 -36 110 -107c0 -69 -36 -106 -110 -106zM658 -10c-72 0 -111 37 -111 106c0 71 39 107 111 107
c74 0 110 -36 110 -107c0 -69 -36 -106 -110 -106zM921 -10c-72 0 -111 37 -111 106c0 71 39 107 111 107c74 0 110 -36 110 -107c0 -69 -36 -106 -110 -106z" />
    <glyph glyph-name="Ntilde.ss04" horiz-adv-x="1112" 
d="M362 913h98c18 -58 27 -68 47 -68c29 0 59 78 144 78c90 0 122 -49 140 -152h-98c-18 58 -27 68 -47 68c-29 0 -59 -78 -144 -78c-90 0 -122 49 -140 152zM192 498c-73 0 -112 37 -112 106c0 70 39 106 112 106s110 -36 110 -106c0 -69 -37 -106 -110 -106zM455 498
c-73 0 -112 37 -112 106c0 70 39 106 112 106s110 -36 110 -106c0 -69 -37 -106 -110 -106zM922 498c-73 0 -112 37 -112 106c0 70 39 106 112 106s110 -36 110 -106c0 -69 -37 -106 -110 -106zM191 244c-74 0 -111 37 -111 107c0 69 37 106 111 106c72 0 110 -37 110 -106
c0 -70 -38 -107 -110 -107zM556 244c-74 0 -111 37 -111 107c0 69 37 106 111 106c72 0 110 -37 110 -106c0 -70 -38 -107 -110 -107zM921 244c-74 0 -111 37 -111 107c0 69 37 106 111 106c72 0 110 -37 110 -106c0 -70 -38 -107 -110 -107zM191 -10
c-72 0 -111 37 -111 106c0 71 39 107 111 107c74 0 110 -36 110 -107c0 -69 -36 -106 -110 -106zM658 -10c-72 0 -111 37 -111 106c0 71 39 107 111 107c74 0 110 -36 110 -107c0 -69 -36 -106 -110 -106zM921 -10c-72 0 -111 37 -111 106c0 71 39 107 111 107
c74 0 110 -36 110 -107c0 -69 -36 -106 -110 -106z" />
    <glyph glyph-name="O.ss04" horiz-adv-x="914" 
d="M458 710c73 0 110 -39 110 -111c0 -74 -37 -112 -110 -112s-112 38 -112 112c0 72 39 111 112 111zM191 602c74 0 110 -39 110 -111c0 -74 -36 -112 -110 -112c-72 0 -111 38 -111 112c0 72 39 111 111 111zM723 602c72 0 111 -39 111 -111c0 -74 -39 -112 -111 -112
c-74 0 -110 38 -110 112c0 72 36 111 110 111zM191 98c-72 0 -111 39 -111 111c0 74 39 112 111 112c74 0 110 -38 110 -112c0 -72 -36 -111 -110 -111zM723 98c-74 0 -110 39 -110 111c0 74 36 112 110 112c72 0 111 -38 111 -112c0 -72 -39 -111 -111 -111zM458 -10
c-73 0 -112 39 -112 111c0 74 39 112 112 112s110 -38 110 -112c0 -72 -37 -111 -110 -111z" />
    <glyph glyph-name="Oacute.ss04" horiz-adv-x="914" 
d="M388 744l-30 84c85 22 182 61 248 101l49 -100c-84 -37 -164 -64 -267 -85zM458 710c73 0 110 -39 110 -111c0 -74 -37 -112 -110 -112s-112 38 -112 112c0 72 39 111 112 111zM191 602c74 0 110 -39 110 -111c0 -74 -36 -112 -110 -112c-72 0 -111 38 -111 112
c0 72 39 111 111 111zM723 602c72 0 111 -39 111 -111c0 -74 -39 -112 -111 -112c-74 0 -110 38 -110 112c0 72 36 111 110 111zM191 98c-72 0 -111 39 -111 111c0 74 39 112 111 112c74 0 110 -38 110 -112c0 -72 -36 -111 -110 -111zM723 98c-74 0 -110 39 -110 111
c0 74 36 112 110 112c72 0 111 -38 111 -112c0 -72 -39 -111 -111 -111zM458 -10c-73 0 -112 39 -112 111c0 74 39 112 112 112s110 -38 110 -112c0 -72 -37 -111 -110 -111z" />
    <glyph glyph-name="Ocircumflex.ss04" horiz-adv-x="914" 
d="M645 828l-30 -84c-61 16 -109 39 -157 65c-48 -26 -96 -49 -157 -65l-30 84c64 22 137 57 187 101c50 -44 123 -79 187 -101zM458 710c73 0 110 -39 110 -111c0 -74 -37 -112 -110 -112s-112 38 -112 112c0 72 39 111 112 111zM191 602c74 0 110 -39 110 -111
c0 -74 -36 -112 -110 -112c-72 0 -111 38 -111 112c0 72 39 111 111 111zM613 491c0 72 36 111 110 111c72 0 111 -39 111 -111c0 -74 -39 -112 -111 -112c-74 0 -110 38 -110 112zM191 321c74 0 110 -38 110 -112c0 -72 -36 -111 -110 -111c-72 0 -111 39 -111 111
c0 74 39 112 111 112zM723 321c72 0 111 -38 111 -112c0 -72 -39 -111 -111 -111c-74 0 -110 39 -110 111c0 74 36 112 110 112zM458 213c73 0 110 -38 110 -112c0 -72 -37 -111 -110 -111s-112 39 -112 111c0 74 39 112 112 112z" />
    <glyph glyph-name="Odieresis.ss04" horiz-adv-x="914" 
d="M340 754c-54 0 -83 29 -83 83c0 55 29 84 83 84c55 0 82 -29 82 -84c0 -54 -27 -83 -82 -83zM578 754c-55 0 -83 29 -83 83c0 55 28 84 83 84s82 -29 82 -84c0 -54 -27 -83 -82 -83zM458 710c73 0 110 -39 110 -111c0 -74 -37 -112 -110 -112s-112 38 -112 112
c0 72 39 111 112 111zM191 602c74 0 110 -39 110 -111c0 -74 -36 -112 -110 -112c-72 0 -111 38 -111 112c0 72 39 111 111 111zM723 602c72 0 111 -39 111 -111c0 -74 -39 -112 -111 -112c-74 0 -110 38 -110 112c0 72 36 111 110 111zM191 98c-72 0 -111 39 -111 111
c0 74 39 112 111 112c74 0 110 -38 110 -112c0 -72 -36 -111 -110 -111zM723 98c-74 0 -110 39 -110 111c0 74 36 112 110 112c72 0 111 -38 111 -112c0 -72 -39 -111 -111 -111zM458 -10c-73 0 -112 39 -112 111c0 74 39 112 112 112s110 -38 110 -112
c0 -72 -37 -111 -110 -111z" />
    <glyph glyph-name="Ograve.ss04" horiz-adv-x="914" 
d="M569 828l-30 -84c-103 21 -183 48 -267 85l49 100c66 -40 163 -79 248 -101zM458 710c73 0 110 -39 110 -111c0 -74 -37 -112 -110 -112s-112 38 -112 112c0 72 39 111 112 111zM191 602c74 0 110 -39 110 -111c0 -74 -36 -112 -110 -112c-72 0 -111 38 -111 112
c0 72 39 111 111 111zM723 602c72 0 111 -39 111 -111c0 -74 -39 -112 -111 -112c-74 0 -110 38 -110 112c0 72 36 111 110 111zM191 98c-72 0 -111 39 -111 111c0 74 39 112 111 112c74 0 110 -38 110 -112c0 -72 -36 -111 -110 -111zM723 98c-74 0 -110 39 -110 111
c0 74 36 112 110 112c72 0 111 -38 111 -112c0 -72 -39 -111 -111 -111zM458 -10c-73 0 -112 39 -112 111c0 74 39 112 112 112s110 -38 110 -112c0 -72 -37 -111 -110 -111z" />
    <glyph glyph-name="Otilde.ss04" horiz-adv-x="914" 
d="M244 913h98c18 -58 27 -68 47 -68c29 0 59 78 144 78c90 0 122 -49 140 -152h-98c-18 58 -27 68 -47 68c-29 0 -59 -78 -144 -78c-90 0 -122 49 -140 152zM458 710c73 0 110 -39 110 -111c0 -74 -37 -112 -110 -112s-112 38 -112 112c0 72 39 111 112 111zM191 602
c74 0 110 -39 110 -111c0 -74 -36 -112 -110 -112c-72 0 -111 38 -111 112c0 72 39 111 111 111zM723 602c72 0 111 -39 111 -111c0 -74 -39 -112 -111 -112c-74 0 -110 38 -110 112c0 72 36 111 110 111zM191 98c-72 0 -111 39 -111 111c0 74 39 112 111 112
c74 0 110 -38 110 -112c0 -72 -36 -111 -110 -111zM723 98c-74 0 -110 39 -110 111c0 74 36 112 110 112c72 0 111 -38 111 -112c0 -72 -39 -111 -111 -111zM458 -10c-73 0 -112 39 -112 111c0 74 39 112 112 112s110 -38 110 -112c0 -72 -37 -111 -110 -111z" />
    <glyph glyph-name="V.ss04" horiz-adv-x="925" 
d="M181 710c74 0 110 -39 110 -111c0 -74 -36 -112 -110 -112c-72 0 -111 38 -111 112c0 72 39 111 111 111zM745 710c73 0 110 -39 110 -111c0 -74 -37 -112 -110 -112s-112 38 -112 112c0 72 39 111 112 111zM319 460c72 0 110 -39 110 -112c0 -72 -38 -111 -110 -111
c-74 0 -111 39 -111 111c0 73 37 112 111 112zM610 460c73 0 110 -39 110 -112c0 -72 -37 -111 -110 -111c-72 0 -111 39 -111 111c0 73 39 112 111 112zM463 212c73 0 110 -39 110 -111c0 -73 -37 -111 -110 -111s-112 38 -112 111c0 72 39 111 112 111z" />
    <glyph glyph-name="A.ss05" horiz-adv-x="946" 
d="M876 0h-173l-19 185h-422l-19 -185h-173l92 700h622zM299 545l-24 -232h396l-24 232h-348z" />
    <glyph glyph-name="Aacute.ss05" horiz-adv-x="946" 
d="M621 929l49 -100c-84 -37 -164 -64 -267 -85l-30 84c85 22 182 61 248 101zM876 0h-173l-19 185h-422l-19 -185h-173l92 700h622zM299 545l-24 -232h396l-24 232h-348z" />
    <glyph glyph-name="Acircumflex.ss05" horiz-adv-x="946" 
d="M473 809c-48 -26 -96 -49 -157 -65l-30 84c64 22 137 57 187 101c50 -44 123 -79 187 -101l-30 -84c-61 16 -109 39 -157 65zM876 0h-173l-19 185h-422l-19 -185h-173l92 700h622zM299 545l-24 -232h396l-24 232h-348z" />
    <glyph glyph-name="Adieresis.ss05" horiz-adv-x="946" 
d="M355 754c-54 0 -83 29 -83 83c0 55 29 84 83 84c55 0 82 -29 82 -84c0 -54 -27 -83 -82 -83zM593 754c-55 0 -83 29 -83 83c0 55 28 84 83 84s82 -29 82 -84c0 -54 -27 -83 -82 -83zM876 0h-173l-19 185h-422l-19 -185h-173l92 700h622zM299 545l-24 -232h396l-24 232
h-348z" />
    <glyph glyph-name="Agrave.ss05" horiz-adv-x="946" 
d="M584 828l-30 -84c-103 21 -183 48 -267 85l49 100c66 -40 163 -79 248 -101zM876 0h-173l-19 185h-422l-19 -185h-173l92 700h622zM299 545l-24 -232h396l-24 232h-348z" />
    <glyph glyph-name="Aring.ss05" horiz-adv-x="946" 
d="M876 0h-173l-19 185h-422l-19 -185h-173l92 700h209c-16 19 -24 44 -24 77c0 78 44 118 126 118c84 0 125 -40 125 -118c0 -33 -8 -58 -23 -77h209zM473 825c-37 0 -56 -21 -56 -58c0 -35 19 -56 56 -56s55 21 55 56c0 37 -18 58 -55 58zM299 545l-24 -232h396l-24 232
h-348z" />
    <glyph glyph-name="Atilde.ss05" horiz-adv-x="946" 
d="M399 761c-90 0 -122 49 -140 152h98c18 -58 27 -68 47 -68c29 0 59 78 144 78c90 0 122 -49 140 -152h-98c-18 58 -27 68 -47 68c-29 0 -59 -78 -144 -78zM876 0h-173l-19 185h-422l-19 -185h-173l92 700h622zM299 545l-24 -232h396l-24 232h-348z" />
    <glyph glyph-name="K.ss05" horiz-adv-x="934" 
d="M675 694h204v-20l-265 -319l265 -334v-20h-204l-199 278h-208v-279h-168v700h168v-273h201z" />
    <glyph glyph-name="M.ss05" horiz-adv-x="1322" 
d="M863 700h347l42 -700h-172l-21 545h-79l-172 -545h-294l-172 545h-79l-21 -545h-172l42 700h347l169 -545h66z" />
    <glyph glyph-name="N.ss05" horiz-adv-x="986" 
d="M268 0h-168v700h348l214 -552h56v552h168v-700h-348l-214 552h-56v-552z" />
    <glyph glyph-name="Ntilde.ss05" horiz-adv-x="986" 
d="M264 913h98c18 -58 27 -68 47 -68c29 0 59 78 144 78c90 0 122 -49 140 -152h-98c-18 58 -27 68 -47 68c-29 0 -59 -78 -144 -78c-90 0 -122 49 -140 152zM268 0h-168v700h348l214 -552h56v552h168v-700h-348l-214 552h-56v-552z" />
    <glyph glyph-name="R.ss05" horiz-adv-x="1007" 
d="M907 700v-310l-388 -192v-50h387v-148h-541v287l388 193v72h-485v-552h-168v700h807z" />
    <glyph glyph-name="W.ss05" horiz-adv-x="1322" 
d="M1059 155l21 545h172l-42 -700h-347l-169 545h-66l-169 -545h-347l-42 700h172l21 -545h79l172 545h294l172 -545h79z" />
    <glyph glyph-name="X.ss05" horiz-adv-x="998" 
d="M752 694h191v-20l-224 -318l224 -335v-20h-191l-160 278h-186l-160 -278h-191v20l224 335l-224 318v20h191l166 -267h174z" />
    <glyph glyph-name="Y.ss05" horiz-adv-x="934" 
d="M712 700h172l-52 -490h-282l1 -210h-168v210h-281l-52 490h172l31 -340h428z" />
    <glyph glyph-name="Yacute.ss05" horiz-adv-x="934" 
d="M605 929l49 -100c-84 -37 -164 -64 -267 -85l-30 84c85 22 182 61 248 101zM712 700h172l-52 -490h-282l1 -210h-168v210h-281l-52 490h172l31 -340h428z" />
    <glyph glyph-name="Ycircumflex.ss05" horiz-adv-x="934" 
d="M457 809c-48 -26 -96 -49 -157 -65l-30 84c64 22 137 57 187 101c50 -44 123 -79 187 -101l-30 -84c-61 16 -109 39 -157 65zM712 700h172l-52 -490h-282l1 -210h-168v210h-281l-52 490h172l31 -340h428z" />
    <glyph glyph-name="Ydieresis.ss05" horiz-adv-x="934" 
d="M339 754c-54 0 -83 29 -83 83c0 55 29 84 83 84c55 0 82 -29 82 -84c0 -54 -27 -83 -82 -83zM577 754c-55 0 -83 29 -83 83c0 55 28 84 83 84s82 -29 82 -84c0 -54 -27 -83 -82 -83zM712 700h172l-52 -490h-282l1 -210h-168v210h-281l-52 490h172l31 -340h428z" />
    <glyph glyph-name="Ygrave.ss05" horiz-adv-x="934" 
d="M568 828l-30 -84c-103 21 -183 48 -267 85l49 100c66 -40 163 -79 248 -101zM712 700h172l-52 -490h-282l1 -210h-168v210h-281l-52 490h172l31 -340h428z" />
    <glyph glyph-name="A.ss06" horiz-adv-x="986" 
d="M766 523l190 -523h-181l-170 512c-9 28 -17 31 -32 31c-11 0 -16 -9 -15 -31l19 -512h-168l19 512c1 22 -4 31 -15 31c-15 0 -23 -3 -32 -31l-170 -512h-181l190 523c56 155 149 189 273 189s217 -34 273 -189z" />
    <glyph glyph-name="Aacute.ss06" horiz-adv-x="986" 
d="M641 929l49 -100c-84 -37 -164 -64 -267 -85l-30 84c85 22 182 61 248 101zM766 523l190 -523h-181l-170 512c-9 28 -17 31 -32 31c-11 0 -16 -9 -15 -31l19 -512h-168l19 512c1 22 -4 31 -15 31c-15 0 -23 -3 -32 -31l-170 -512h-181l190 523c56 155 149 189 273 189
s217 -34 273 -189z" />
    <glyph glyph-name="Acircumflex.ss06" horiz-adv-x="986" 
d="M493 809c-48 -26 -96 -49 -157 -65l-30 84c64 22 137 57 187 101c50 -44 123 -79 187 -101l-30 -84c-61 16 -109 39 -157 65zM766 523l190 -523h-181l-170 512c-9 28 -17 31 -32 31c-11 0 -16 -9 -15 -31l19 -512h-168l19 512c1 22 -4 31 -15 31c-15 0 -23 -3 -32 -31
l-170 -512h-181l190 523c56 155 149 189 273 189s217 -34 273 -189z" />
    <glyph glyph-name="Adieresis.ss06" horiz-adv-x="986" 
d="M375 754c-54 0 -83 29 -83 83c0 55 29 84 83 84c55 0 82 -29 82 -84c0 -54 -27 -83 -82 -83zM613 754c-55 0 -83 29 -83 83c0 55 28 84 83 84s82 -29 82 -84c0 -54 -27 -83 -82 -83zM766 523l190 -523h-181l-170 512c-9 28 -17 31 -32 31c-11 0 -16 -9 -15 -31l19 -512
h-168l19 512c1 22 -4 31 -15 31c-15 0 -23 -3 -32 -31l-170 -512h-181l190 523c56 155 149 189 273 189s217 -34 273 -189z" />
    <glyph glyph-name="Agrave.ss06" horiz-adv-x="986" 
d="M604 828l-30 -84c-103 21 -183 48 -267 85l49 100c66 -40 163 -79 248 -101zM766 523l190 -523h-181l-170 512c-9 28 -17 31 -32 31c-11 0 -16 -9 -15 -31l19 -512h-168l19 512c1 22 -4 31 -15 31c-15 0 -23 -3 -32 -31l-170 -512h-181l190 523c56 155 149 189 273 189
s217 -34 273 -189z" />
    <glyph glyph-name="Aring.ss06" horiz-adv-x="986" 
d="M766 523l190 -523h-181l-170 512c-9 28 -17 31 -32 31c-11 0 -16 -9 -15 -31l19 -512h-168l19 512c1 22 -4 31 -15 31c-15 0 -23 -3 -32 -31l-170 -512h-181l190 523c39 109 97 158 171 178c-16 18 -24 44 -24 76c0 78 44 118 126 118c84 0 125 -40 125 -118
c0 -32 -8 -58 -23 -76c74 -20 132 -69 171 -178zM437 767c0 -31 15 -51 44 -55h12h12c29 4 43 24 43 55c0 37 -18 58 -55 58s-56 -21 -56 -58z" />
    <glyph glyph-name="Atilde.ss06" horiz-adv-x="986" 
d="M419 761c-90 0 -122 49 -140 152h98c18 -58 27 -68 47 -68c29 0 59 78 144 78c90 0 122 -49 140 -152h-98c-18 58 -27 68 -47 68c-29 0 -59 -78 -144 -78zM766 523l190 -523h-181l-170 512c-9 28 -17 31 -32 31c-11 0 -16 -9 -15 -31l19 -512h-168l19 512
c1 22 -4 31 -15 31c-15 0 -23 -3 -32 -31l-170 -512h-181l190 523c56 155 149 189 273 189s217 -34 273 -189z" />
    <glyph glyph-name="G.ss06" horiz-adv-x="979" 
d="M366 412h271c159 0 257 -79 257 -204c0 -149 -131 -218 -388 -218c-325 0 -436 97 -436 360s114 360 401 360c268 0 355 -63 390 -178l17 -56h-184c-15 52 -36 86 -108 86h-249c-52 0 -87 -34 -87 -86v-252c0 -52 35 -86 87 -86h316c56 0 71 17 71 51v29
c0 40 -19 46 -56 46h-302v148z" />
    <glyph glyph-name="M.ss06" horiz-adv-x="1182" 
d="M1069 363l43 -363h-175l-49 500c-4 43 -29 52 -69 52h-147l6 -552h-174l6 552h-147c-40 0 -65 -9 -69 -52l-49 -500h-175l43 363c31 264 192 347 478 347c334 0 447 -84 478 -347z" />
    <glyph glyph-name="R.ss06" horiz-adv-x="1007" 
d="M758 312l-239 -109c-14 -6 -20 -15 -20 -29c0 -21 8 -26 25 -26h382v-148h-387c-124 0 -183 62 -183 157c0 84 42 138 143 185l234 108c25 11 29 20 29 59c0 35 -10 43 -55 43h-394c-17 0 -25 -11 -25 -30v-522h-168v522c0 114 69 178 178 178h373
c191 0 256 -81 256 -188c0 -92 -33 -147 -149 -200z" />
    <glyph glyph-name="X.ss06" horiz-adv-x="1002" 
d="M922 700l-141 -350c60 -55 96 -141 123 -267l18 -83h-178l-34 211c-9 53 -34 71 -94 71h-230c-60 0 -85 -18 -94 -71l-34 -211h-178l18 83c27 128 62 214 122 268l-140 349h178l105 -282c40 8 86 12 138 12s98 -4 137 -12l106 282h178z" />
    <glyph glyph-name="M.ss07" horiz-adv-x="1324" 
d="M662 574c15 1 25 4 29 37c10 89 131 99 258 99c146 0 305 -77 305 -240c0 -107 -52 -162 -114 -204l-90 -62c-16 -11 -14 -20 -14 -30c0 -19 -1 -25 41 -25h163v-148h-237c-94 0 -141 63 -141 137c0 59 18 106 69 142l100 70c32 23 43 53 43 90v66c0 45 -16 56 -48 56
h-234c-53 0 -56 -22 -56 -70v-492h-148v492c0 48 -3 70 -56 70h-234c-32 0 -48 -11 -48 -56v-66c0 -37 11 -67 43 -90l100 -70c51 -36 69 -83 69 -142c0 -74 -47 -137 -141 -137h-237v148h163c42 0 41 6 41 25c0 10 2 19 -14 30l-90 62c-62 42 -114 97 -114 204
c0 163 159 240 305 240c127 0 248 -10 258 -99c4 -33 14 -36 29 -37z" />
    <glyph glyph-name="a" unicode="a" horiz-adv-x="942" 
d="M829 363l43 -363h-173l-18 173h-420l-18 -173h-173l43 363c31 263 144 347 358 347s327 -84 358 -347zM276 321h390l-18 179c-4 43 -27 52 -67 52h-220c-40 0 -63 -9 -67 -52z" />
    <glyph glyph-name="b" unicode="b" horiz-adv-x="946" 
d="M660 359c0 -15 6 -27 25 -27c18 0 46 4 86 3c59 -1 105 -42 105 -123c0 -143 -72 -212 -268 -212h-508v700h458c196 0 268 -65 268 -178c0 -70 -16 -130 -117 -136c-36 -2 -49 -8 -49 -27zM616 552h-348v-139h316c51 0 75 17 74 51l-1 45c-1 23 -10 43 -41 43zM268 148
h388c39 0 52 25 52 47v24c0 43 -27 68 -100 68h-340v-139z" />
    <glyph glyph-name="c" unicode="c" horiz-adv-x="914" 
d="M558 138c56 0 73 19 106 126h180c-37 -205 -130 -274 -376 -274c-279 0 -398 97 -398 360s119 360 398 360c258 7 345 -65 376 -274h-180c-27 88 -46 126 -106 126h-221c-52 0 -87 -34 -87 -86v-252c0 -52 35 -86 87 -86h221z" />
    <glyph glyph-name="d" unicode="d" horiz-adv-x="966" 
d="M438 700c338 0 458 -87 458 -350s-120 -350 -458 -350h-338v700h338zM268 148h173c232 0 275 14 275 202s-46 202 -278 202h-170v-404z" />
    <glyph glyph-name="e" unicode="e" horiz-adv-x="886" 
d="M268 276v-128h533v-148h-701v700h691v-148h-523v-138h483v-138h-483z" />
    <glyph glyph-name="f" unicode="f" horiz-adv-x="861" 
d="M791 700v-148h-523v-158h483v-138h-483v-256h-168v700h691z" />
    <glyph glyph-name="g" unicode="g" horiz-adv-x="976" 
d="M369 263v138h522v-401h-82l-53 251c-2 10 -5 12 -16 12c-9 0 -10 0 -20 -19c-105 -209 -156 -254 -367 -254c-176 6 -283 117 -283 360c0 263 114 360 401 360c268 0 351 -65 390 -178l19 -56h-183c-20 52 -39 86 -111 86h-249c-52 0 -87 -34 -87 -86v-260
c0 -45 28 -78 71 -78h130c40 0 82 20 104 50l56 75h-242z" />
    <glyph glyph-name="h" unicode="h" horiz-adv-x="1042" 
d="M774 431v269h168v-700h-168v283h-506v-283h-168v700h168v-269h506z" />
    <glyph glyph-name="i" unicode="i" horiz-adv-x="368" 
d="M100 0v700h168v-700h-168z" />
    <glyph glyph-name="j" unicode="j" horiz-adv-x="408" 
d="M150 207v493h168v-450c0 -163 -80 -249 -268 -249v158l56 1c38 0 44 9 44 47z" />
    <glyph glyph-name="k" unicode="k" horiz-adv-x="947" 
d="M869 19v-19h-185l-80 220c-15 42 -14 47 -48 47h-288v-267h-168v700h168v-316h32c72 0 95 4 134 47l242 269h216v-19l-190 -206c-44 -47 -101 -67 -143 -76c-27 -6 -35 -15 -30 -35c5 -22 15 -24 31 -24c19 0 37 12 75 12c67 0 105 -30 141 -114z" />
    <glyph glyph-name="l" unicode="l" horiz-adv-x="773" 
d="M713 0h-613v700h168v-552h445v-148z" />
    <glyph glyph-name="m" unicode="m" horiz-adv-x="1188" 
d="M1056 530l62 -530h-169l-54 515c-2 22 -8 27 -26 27h-19c-14 0 -22 -10 -25 -26l-70 -397c-15 -85 -61 -129 -161 -129s-146 44 -161 129l-70 397c-3 16 -11 26 -25 26h-19c-18 0 -24 -5 -26 -27l-54 -515h-169l62 530c16 133 102 180 187 180s166 -29 186 -148l69 -406
c1 -7 8 -11 14 -11h12c6 0 13 4 14 11l69 406c20 119 101 148 186 148s171 -47 187 -180z" />
    <glyph glyph-name="n" unicode="n" horiz-adv-x="1083" 
d="M815 183v517h168v-528c0 -144 -103 -182 -197 -182c-77 0 -134 22 -208 150l-218 375c-11 20 -13 27 -27 27h-44c-14 0 -21 -9 -21 -23v-519h-168v530c0 144 101 182 195 182c77 0 148 -19 208 -125l219 -388c11 -20 19 -39 43 -39h29c14 0 21 9 21 23z" />
    <glyph glyph-name="o" unicode="o" 
d="M478 710c288 0 408 -97 408 -360s-120 -360 -408 -360s-408 97 -408 360s120 360 408 360zM478 138c182 0 228 24 228 212s-46 212 -228 212s-228 -24 -228 -212s46 -212 228 -212z" />
    <glyph glyph-name="p" unicode="p" horiz-adv-x="906" 
d="M100 700h468c196 0 268 -56 268 -243c0 -118 -38 -241 -246 -241h-322v-216h-168v700zM268 363h331c45 0 69 0 69 94c0 82 -24 95 -69 95h-331v-189z" />
    <glyph glyph-name="q" unicode="q" 
d="M886 350c0 -131 -41 -225 -120 -285l90 -147v-19h-167l-61 106c-45 -10 -95 -15 -150 -15c-288 0 -408 97 -408 360s120 360 408 360s408 -97 408 -360zM478 562c-160 0 -215 -19 -226 -152h166c121 0 166 -48 214 -126l56 -92c15 33 18 83 18 158
c0 188 -46 212 -228 212zM478 128c29 0 55 0 78 2l-73 125c-15 27 -31 42 -60 42h-172c9 -149 63 -169 227 -169z" />
    <glyph glyph-name="r" unicode="r" horiz-adv-x="937" 
d="M268 0h-168v700h468c196 0 268 -46 268 -212c0 -90 -50 -178 -171 -180c-38 0 -86 12 -105 12c-16 0 -26 -2 -31 -24c-5 -20 3 -29 30 -35c42 -9 96 -32 143 -76l190 -166v-19h-226l-213 209c-34 34 -62 47 -117 47h-68v-256zM268 552v-149h351c34 0 48 4 48 47v58
c0 36 -15 44 -48 44h-351z" />
    <glyph glyph-name="s" unicode="s" horiz-adv-x="901" 
d="M355 434l235 -49c200 -41 231 -105 231 -197c0 -135 -132 -198 -350 -198c-208 0 -349 57 -383 168l-18 58h182c28 -52 35 -87 165 -87h161c59 0 63 12 63 49s-7 45 -78 61l-225 50c-171 38 -252 96 -252 200c0 143 103 221 374 221c209 0 304 -73 334 -178l16 -56h-181
c-17 62 -46 85 -103 85l-207 -1c-45 0 -55 -12 -55 -53c0 -35 9 -56 91 -73z" />
    <glyph glyph-name="germandbls" unicode="&#xdf;" horiz-adv-x="1108" 
d="M413 462l329 71v34h-424c-42 0 -50 -11 -50 -52v-515h-168v500c0 136 69 200 203 200h589v-249l-329 -72v-32h156c270 0 329 -79 329 -179c0 -122 -117 -178 -310 -178c-208 0 -338 53 -373 153l-13 38h182c36 -51 50 -67 160 -67h111c50 0 63 7 63 54
c0 41 -19 51 -78 51h-377v243z" />
    <glyph glyph-name="t" unicode="t" horiz-adv-x="853" 
d="M60 700h733v-148h-282v-552h-168v552h-283v148z" />
    <glyph glyph-name="u" unicode="u" horiz-adv-x="936" 
d="M678 350v350h168v-350c0 -263 -120 -360 -378 -360s-378 97 -378 360v350h168v-350c0 -188 46 -212 210 -212s210 24 210 212z" />
    <glyph glyph-name="v" unicode="v" horiz-adv-x="880" 
d="M486 156l196 544h168v-19l-226 -578c-22 -56 -64 -113 -180 -113c-121 0 -165 57 -197 137l-217 554v19h178l192 -541c4 -10 10 -14 19 -14h53c6 0 12 4 14 11z" />
    <glyph glyph-name="w" unicode="w" horiz-adv-x="1188" 
d="M895 185l54 515h169l-62 -530c-16 -133 -102 -180 -187 -180s-166 29 -186 148l-69 406c-1 7 -8 11 -14 11h-12c-6 0 -13 -4 -14 -11l-69 -406c-20 -119 -101 -148 -186 -148s-171 47 -187 180l-62 530h169l54 -515c2 -22 8 -27 26 -27h19c14 0 22 10 25 26l70 397
c15 85 61 129 161 129s146 -44 161 -129l70 -397c3 -16 11 -26 25 -26h19c18 0 24 5 26 27z" />
    <glyph glyph-name="x" unicode="x" horiz-adv-x="983" 
d="M289 255l-46 -255h-173l41 200c27 130 35 140 110 145c42 3 52 7 52 27c0 15 -8 21 -34 32c-113 48 -114 67 -146 249l-9 47h174l21 -119c12 -67 16 -75 72 -96l244 -91c41 -15 48 -7 58 44l51 262h175l-53 -245c-14 -64 -26 -69 -72 -69c-27 0 -37 0 -41 -14
c-6 -19 3 -24 26 -34l39 -17c70 -31 89 -66 107 -165l28 -156h-173l-28 153c-9 49 -11 50 -54 66l-242 89c-91 33 -115 13 -127 -53z" />
    <glyph glyph-name="y" unicode="y" horiz-adv-x="942" 
d="M688 429l32 271h172l-18 -143c-29 -232 -123 -325 -320 -343l1 -214h-168v214c-201 18 -291 111 -319 343l-18 143h172l32 -271c6 -53 34 -71 94 -71h246c60 0 88 18 94 71z" />
    <glyph glyph-name="z" unicode="z" horiz-adv-x="900" 
d="M104 0v313l538 180v59h-542v148h696v-313l-538 -180v-59h542v-148h-696z" />
    <glyph glyph-name="m.ss01" horiz-adv-x="1166" 
d="M1034 530l62 -530h-172l-51 515c-2 22 -13 27 -26 27h-19c-16 0 -23 -19 -25 -42c-8 -111 11 -185 -50 -262c-44 -56 -72 -48 -79 -132c-4 -49 9 -116 -91 -116s-87 67 -91 116c-7 84 -35 76 -79 132c-61 77 -42 151 -50 262c-2 23 -9 42 -25 42h-19
c-13 0 -24 -5 -26 -27l-51 -515h-172l62 530c15 132 108 180 197 180c120 0 185 -89 197 -206l28 -258c3 -32 6 -43 29 -43s26 11 29 43l28 258c12 117 77 206 197 206c89 0 182 -48 197 -180z" />
    <glyph glyph-name="w.ss01" horiz-adv-x="1166" 
d="M873 185l51 515h172l-62 -530c-15 -132 -108 -180 -197 -180c-120 0 -185 89 -197 206l-28 258c-3 32 -6 43 -29 43s-26 -11 -29 -43l-28 -258c-12 -117 -77 -206 -197 -206c-89 0 -182 48 -197 180l-62 530h172l51 -515c2 -22 13 -27 26 -27h19c16 0 23 19 25 42
c8 111 -11 185 50 262c44 56 72 48 79 132c4 49 -9 116 91 116s87 -67 91 -116c7 -84 35 -76 79 -132c61 -77 42 -151 50 -262c2 -23 9 -42 25 -42h19c13 0 24 5 26 27z" />
    <glyph glyph-name="m.ss02" horiz-adv-x="1166" 
d="M1034 530l62 -530h-172l-49 504c-3 29 -16 38 -33 38h-14c-29 0 -41 -9 -44 -42c-8 -111 30 -185 -16 -242c-47 -58 -111 -28 -125 -67c-15 -41 38 -70 38 -123c0 -52 -32 -78 -98 -78s-98 26 -98 78c0 53 53 82 38 123c-14 39 -78 9 -125 67c-46 57 -8 131 -16 242
c-3 33 -15 42 -44 42h-14c-17 0 -30 -9 -33 -38l-49 -504h-172l62 530c16 133 108 180 197 180c120 0 185 -89 197 -206l28 -258c3 -32 6 -43 29 -43s26 11 29 43l28 258c12 117 77 206 197 206c89 0 181 -47 197 -180z" />
    <glyph glyph-name="w.ss02" horiz-adv-x="1166" 
d="M875 196l49 504h172l-62 -530c-16 -133 -108 -180 -197 -180c-120 0 -185 89 -197 206l-28 258c-3 32 -6 43 -29 43s-26 -11 -29 -43l-28 -258c-12 -117 -77 -206 -197 -206c-89 0 -181 47 -197 180l-62 530h172l49 -504c3 -29 16 -38 33 -38h14c29 0 41 9 44 42
c8 111 -30 185 16 242c47 58 111 28 125 67c15 41 -38 70 -38 123c0 52 32 78 98 78s98 -26 98 -78c0 -53 -53 -82 -38 -123c14 -39 78 -9 125 -67c46 -57 8 -131 16 -242c3 -33 15 -42 44 -42h14c17 0 30 9 33 38z" />
    <glyph glyph-name="m.ss03" horiz-adv-x="1166" 
d="M1034 530l62 -530h-172l-51 515c-2 22 -8 27 -26 27h-29c-16 0 -21 -13 -25 -42c-24 -172 -82 -237 -210 -237s-186 65 -210 237c-4 29 -9 42 -25 42h-29c-18 0 -24 -5 -26 -27l-51 -515h-172l62 530c16 133 108 180 197 180c118 0 167 -56 193 -172l24 -105
c5 -22 13 -30 37 -30c25 0 32 8 37 30l24 105c26 116 75 172 193 172c89 0 181 -47 197 -180zM585 213c74 0 110 -38 110 -112c0 -72 -36 -111 -110 -111c-72 0 -111 39 -111 111c0 74 39 112 111 112z" />
    <glyph glyph-name="w.ss03" horiz-adv-x="1166" 
d="M581 487c-74 0 -110 38 -110 112c0 72 36 111 110 111c72 0 111 -39 111 -111c0 -74 -39 -112 -111 -112zM873 185l51 515h172l-62 -530c-16 -133 -108 -180 -197 -180c-118 0 -167 56 -193 172l-24 105c-5 22 -13 30 -37 30c-25 0 -32 -8 -37 -30l-24 -105
c-26 -116 -75 -172 -193 -172c-89 0 -181 47 -197 180l-62 530h172l51 -515c2 -22 8 -27 26 -27h29c16 0 21 13 25 42c24 172 82 237 210 237s186 -65 210 -237c4 -29 9 -42 25 -42h29c18 0 24 5 26 27z" />
    <glyph glyph-name="m.ss05" horiz-adv-x="1172" 
d="M735 700h325l42 -700h-165l-21 545h-66l-129 -545h-270l-129 545h-66l-21 -545h-165l42 700h325l124 -545h50z" />
    <glyph glyph-name="w.ss05" horiz-adv-x="1172" 
d="M916 155l21 545h165l-42 -700h-325l-124 545h-50l-124 -545h-325l-42 700h165l21 -545h66l129 545h270l129 -545h66z" />
    <glyph glyph-name="I_I" horiz-adv-x="700" 
d="M522 709c58 0 106 -50 106 -108s-48 -108 -106 -108c-76 0 -116 75 -173 75s-96 -75 -171 -75c-58 0 -106 50 -106 108s48 108 106 108c75 0 114 -75 171 -75s97 75 173 75zM261 0h-148v442h148v-442zM587 0h-148v442h148v-442z" />
    <glyph glyph-name="zero" unicode="0" 
d="M478 710c288 0 408 -97 408 -360s-120 -360 -408 -360s-408 97 -408 360s120 360 408 360zM478 138c182 0 228 24 228 212s-46 212 -228 212s-228 -24 -228 -212s46 -212 228 -212z" />
    <glyph glyph-name="one" unicode="1" horiz-adv-x="926" 
d="M616 700v-552h250v-148h-764v148h346v120c0 51 7 89 30 157c5 15 3 24 -14 29c-19 6 -27 -3 -31 -16c-43 -135 -91 -176 -223 -176h-110v148h152c29 0 40 5 57 36l139 252v2h168z" />
    <glyph glyph-name="two" unicode="2" horiz-adv-x="892" 
d="M230 177v-8c0 -14 9 -21 23 -21h554v-148h-600c-103 0 -137 59 -137 145c0 104 5 154 109 184l426 113c23 7 27 13 27 27v72c0 14 -9 21 -23 21h-239c-60 0 -79 -32 -106 -106h-180c37 190 130 254 376 254c294 0 352 -98 352 -207c0 -106 -70 -173 -204 -209l-339 -89
c-33 -8 -39 -12 -39 -28z" />
    <glyph glyph-name="three" unicode="3" horiz-adv-x="933" 
d="M863 192c0 -162 -138 -202 -417 -202c-242 0 -342 48 -376 277h180c27 -88 46 -126 106 -126h221c52 0 87 11 87 63c0 51 -47 71 -86 73l-181 9c-43 2 -64 26 -64 59c0 43 16 63 63 68l156 14c75 6 92 39 92 73c0 47 -20 61 -87 61h-201c-60 0 -79 -38 -106 -126h-180
c31 209 118 274 376 274c259 0 398 -32 398 -194c0 -69 -51 -117 -118 -129l-49 -9c-29 -5 -30 -8 -29 -25c1 -16 4 -16 32 -21l51 -9c64 -11 132 -36 132 -130z" />
    <glyph glyph-name="four" unicode="4" horiz-adv-x="842" 
d="M665 238h152v-148h-152v-90h-168v90h-324c-95 0 -143 57 -143 153c0 100 36 124 129 180l290 157c40 23 42 19 51 63l12 57h175l-25 -116c-12 -55 -29 -76 -92 -109l-340 -177c-35 -18 -40 -22 -40 -39c0 -14 4 -21 23 -21h284v138l142 65h26v-203z" />
    <glyph glyph-name="five" unicode="5" horiz-adv-x="931" 
d="M518 468c220 0 323 -69 323 -219c0 -189 -91 -260 -385 -260c-246 0 -339 64 -376 254h180c27 -74 46 -106 106 -106h229c55 0 78 11 78 54v83c0 47 -12 61 -81 61h-198c-101 0 -139 -11 -185 -41h-111l40 406h660v-148h-528l-19 -141c-5 -35 -4 -40 7 -43
c25 -7 38 28 56 46c41 41 80 54 204 54z" />
    <glyph glyph-name="six" unicode="6" horiz-adv-x="901" 
d="M228 463c81 26 120 44 186 134l75 103h209v-19l-100 -122c-25 -30 -51 -53 -79 -74c-27 -20 -40 -32 -31 -44c12 -15 20 -13 50 6c41 26 95 45 126 45c134 0 182 -141 182 -242c0 -190 -120 -260 -408 -260c-258 0 -378 70 -378 260c0 115 65 180 168 213zM666 250
c0 97 -46 112 -228 112c-152 0 -198 -15 -198 -112c0 -99 46 -112 198 -112c182 0 228 13 228 112z" />
    <glyph glyph-name="seven" unicode="7" horiz-adv-x="847" 
d="M594 552h-544v148h544c146 0 183 -46 183 -164c0 -94 -34 -177 -166 -217l-226 -69c-29 -9 -41 -28 -45 -73l-15 -177l-169 1l13 148c12 135 88 223 234 264l174 49c30 8 40 18 40 43v26c0 14 -4 21 -23 21z" />
    <glyph glyph-name="eight" unicode="8" horiz-adv-x="932" 
d="M698 333l46 -5c73 -8 118 -52 118 -132c0 -162 -118 -203 -396 -203s-396 41 -396 203c0 80 45 124 118 132l46 5c25 3 37 5 37 21c0 11 -8 20 -29 21l-17 1c-105 6 -135 61 -135 139c0 161 118 194 374 194h2h2c256 0 374 -33 374 -194c0 -78 -30 -133 -135 -139l-17 -1
c-21 -1 -29 -10 -29 -21c0 -16 12 -18 37 -21zM684 206v24c0 33 -25 55 -66 56l-56 2c-60 2 -78 28 -78 62c0 30 7 54 47 58l65 7c64 7 66 39 66 72c0 46 -14 74 -87 74h-218c-73 0 -87 -28 -87 -74c0 -33 2 -65 66 -72l65 -7c40 -4 47 -28 47 -58c0 -34 -18 -60 -78 -62
l-56 -2c-41 -1 -66 -23 -66 -56v-24c0 -34 25 -65 89 -65h258c64 0 89 31 89 65z" />
    <glyph glyph-name="nine" unicode="9" horiz-adv-x="901" 
d="M673 237c-81 -26 -120 -44 -186 -134l-75 -103h-209v19l100 122c25 30 51 53 79 74c27 20 40 32 31 44c-12 15 -20 13 -50 -6c-41 -26 -95 -45 -126 -45c-134 0 -182 141 -182 242c0 190 120 260 408 260c258 0 378 -70 378 -260c0 -115 -65 -180 -168 -213zM235 450
c0 -97 46 -112 228 -112c152 0 198 15 198 112c0 99 -46 112 -198 112c-182 0 -228 -13 -228 -112z" />
    <glyph glyph-name="zero.ss01" 
d="M478 710c288 0 408 -97 408 -360s-120 -360 -408 -360s-408 97 -408 360s120 360 408 360zM478 133c186 0 233 25 233 217s-47 217 -233 217s-233 -25 -233 -217s47 -217 233 -217zM479 456c70 0 104 -36 104 -106c0 -68 -34 -105 -104 -105c-68 0 -105 37 -105 105
c0 70 37 106 105 106z" />
    <glyph glyph-name="four.ss01" horiz-adv-x="842" 
d="M665 238h152v-148h-152v-90h-168v90h-324c-95 0 -143 57 -143 153c0 100 36 124 129 180l290 157c40 23 42 19 51 63l12 57h175l-25 -116c-8 -38 -31 -62 -31 -117c0 -57 34 -66 34 -184v-45zM213 238h284v38c0 53 62 106 62 159c0 10 -5 15 -16 15c-14 0 -36 -8 -67 -24
l-246 -128c-36 -19 -40 -22 -40 -39c0 -14 4 -21 23 -21z" />
    <glyph glyph-name="eight.ss01" horiz-adv-x="936" 
d="M653 350l48 -15c122 -38 165 -85 165 -144c0 -161 -118 -197 -397 -198c-281 1 -399 37 -399 198c0 59 39 167 158 145l16 -3c17 -3 26 -2 32 13c7 18 -7 23 -30 33l-27 12c-93 41 -129 69 -129 146c0 144 118 172 378 172s378 -28 378 -172c0 -105 -49 -173 -170 -149
l-15 3c-23 5 -33 2 -36 -9c-4 -16 3 -24 28 -32zM400 434l119 -39l106 69c24 16 41 30 41 61c0 33 -12 36 -61 36h-274c-49 0 -61 -6 -61 -36c0 -36 45 -63 130 -91zM307 141h322c46 0 57 7 57 31c0 27 -27 49 -128 80l-211 65l-40 -43c-38 -40 -57 -68 -57 -93
c0 -32 24 -40 57 -40z" />
    <glyph glyph-name="one.ss05" horiz-adv-x="926" 
d="M616 700v-552h250v-148h-764v148h346v224l55 174h-80l-109 -284h-214v148h119l111 290h286z" />
    <glyph glyph-name="two.ss05" horiz-adv-x="880" 
d="M258 207v-59h542v-148h-696v313l538 180v59h-353l-35 -96h-160l72 244h630v-313z" />
    <glyph glyph-name="four.ss05" horiz-adv-x="827" 
d="M650 238h151v-148h-151v-90h-168v90h-452v312l464 186v112h168v-213l-478 -190v-59h298v118l142 60h26v-178z" />
    <glyph glyph-name="seven.ss05" horiz-adv-x="852" 
d="M50 700h721v-313l-434 -170v-217h-168v313l448 180v59h-567v148z" />
    <glyph glyph-name="period" unicode="." horiz-adv-x="398" 
d="M199 -9c-66 0 -119 53 -119 118c0 66 53 119 119 119s119 -53 119 -119c0 -65 -53 -118 -119 -118z" />
    <glyph glyph-name="comma" unicode="," horiz-adv-x="412" 
d="M246 -181h-124l46 111c9 23 10 29 10 48c0 14 -8 22 -28 22h-60v168h88c122 0 154 -37 154 -115c0 -43 -15 -89 -37 -134z" />
    <glyph glyph-name="colon" unicode=":" horiz-adv-x="400" 
d="M320 526c0 -82 -80 -125 -80 -186s80 -104 80 -186c0 -62 -57 -114 -120 -114s-120 52 -120 114c0 82 80 125 80 186s-80 104 -80 186c0 62 57 114 120 114s120 -52 120 -114z" />
    <glyph glyph-name="semicolon" unicode=";" horiz-adv-x="402" 
d="M240 250c0 -61 82 -107 82 -197c0 -43 -15 -89 -37 -134l-49 -100h-124l46 111c9 23 10 29 10 48c0 14 -8 22 -28 22h-60v168c53 7 80 41 80 82c0 61 -80 104 -80 186c0 62 57 114 120 114s120 -52 120 -114c0 -82 -80 -125 -80 -186z" />
    <glyph glyph-name="ellipsis" unicode="&#x2026;" horiz-adv-x="954" 
d="M199 -9c-66 0 -119 53 -119 118c0 66 53 119 119 119s119 -53 119 -119c0 -65 -53 -118 -119 -118zM477 -9c-66 0 -119 53 -119 118c0 66 53 119 119 119s119 -53 119 -119c0 -65 -53 -118 -119 -118zM755 -9c-66 0 -119 53 -119 118c0 66 53 119 119 119
s119 -53 119 -119c0 -65 -53 -118 -119 -118z" />
    <glyph glyph-name="exclam" unicode="!" horiz-adv-x="398" 
d="M80 108c0 77 88 124 89 184c-1 60 -69 93 -69 170v238h198v-238c0 -77 -68 -110 -69 -170c1 -60 89 -107 89 -184c0 -73 -54 -118 -119 -118s-119 45 -119 118z" />
    <glyph glyph-name="exclamdown" unicode="&#xa1;" horiz-adv-x="398" 
d="M318 592c0 -77 -88 -124 -89 -184c1 -60 69 -93 69 -170v-238h-198v238c0 77 68 110 69 170c-1 60 -89 107 -89 184c0 73 54 118 119 118s119 -45 119 -118z" />
    <glyph glyph-name="question" unicode="?" horiz-adv-x="664" 
d="M452 540h-432v159l408 2c159 1 216 -78 216 -198c0 -126 -64 -240 -187 -240c-53 0 -79 16 -105 37c-21 17 -44 67 -67 67c-13 0 -19 -11 -19 -33c0 -100 97 -122 97 -225c0 -66 -54 -118 -119 -118s-119 45 -119 118c0 77 68 94 92 226c18 98 48 136 108 136
c67 0 93 -55 132 -55c17 0 33 8 33 39v45c0 33 -10 40 -38 40z" />
    <glyph glyph-name="questiondown" unicode="&#xbf;" horiz-adv-x="664" 
d="M212 159h432v-159l-408 -2c-159 -1 -216 78 -216 198c0 126 64 240 187 240c53 0 79 -16 105 -37c21 -17 44 -67 67 -67c13 0 19 11 19 33c0 100 -97 122 -97 225c0 66 54 118 119 118s119 -45 119 -118c0 -77 -68 -94 -92 -226c-18 -98 -48 -136 -108 -136
c-67 0 -93 55 -132 55c-17 0 -33 -8 -33 -39v-45c0 -33 10 -40 38 -40z" />
    <glyph glyph-name="periodcentered" unicode="&#xb7;" horiz-adv-x="398" 
d="M199 231c-66 0 -119 53 -119 118c0 66 53 119 119 119s119 -53 119 -119c0 -65 -53 -118 -119 -118z" />
    <glyph glyph-name="bullet" unicode="&#x2022;" horiz-adv-x="469" 
d="M235 195c-86 0 -155 69 -155 154s69 154 155 154c85 0 154 -69 154 -154s-69 -154 -154 -154z" />
    <glyph glyph-name="asterisk" unicode="*" horiz-adv-x="600" 
d="M340 441c-27 -42 37 -35 53 -88l21 -70l-125 -36l-20 70c-16 52 45 80 0 103c-50 11 -24 -60 -67 -79l-60 -40l-72 108l60 39c46 31 92 -15 97 34c-3 51 -51 4 -95 38l-56 44l79 102l56 -44c44 -35 13 -88 62 -82c48 19 -12 49 7 101l25 68l121 -44l-24 -68
c-19 -53 -84 -37 -58 -83c33 -36 43 26 98 24l71 -2l-4 -129l-72 2c-55 2 -61 68 -97 32z" />
    <glyph glyph-name="numbersign" unicode="#" horiz-adv-x="852" 
d="M827 520l-30 -111h-159l-35 -119h153l-29 -111h-156l-52 -179h-120v19l47 160h-155l-52 -179h-120v19l47 160h-141l29 111h145l35 119h-139l30 111h141l53 180h118v-19l-47 -161h156l53 180h118v-19l-47 -161h157zM323 290h156l35 119h-156z" />
    <glyph glyph-name="slash" unicode="/" horiz-adv-x="473" 
d="M453 681l-264 -681h-169v19l265 681h168v-19z" />
    <glyph glyph-name="backslash" unicode="\" horiz-adv-x="473" 
d="M453 0h-169l-264 681v19h168l265 -681v-19z" />
    <glyph glyph-name="numbersign.ss01" horiz-adv-x="903" 
d="M681 433c-29 0 -35 -15 -55 -92c-10 -36 -15 -59 -15 -73c0 -15 7 -19 22 -19c19 0 32 7 85 7c59 0 75 -35 75 -63c0 -44 -26 -72 -75 -72c-57 0 -88 40 -114 40c-7 0 -14 -2 -19 -8c-3 -4 -7 -10 -8 -13c-2 -5 -2 -11 -2 -16c0 -24 12 -48 12 -77c0 -67 -32 -91 -85 -91
c-31 0 -51 23 -51 55c0 6 0 12 2 19c16 55 38 88 38 107c0 17 -8 29 -86 29c-77 0 -92 -3 -100 -29c-12 -38 -3 -44 -12 -97c-11 -66 -43 -84 -80 -84c-41 0 -64 22 -64 73c0 64 59 73 71 111c5 16 -3 27 -19 27c-27 0 -81 -46 -118 -46c-35 0 -58 22 -58 63
c0 46 44 72 94 72c53 0 84 -7 103 -7c29 0 35 15 55 92c10 36 15 59 15 73c0 15 -7 19 -22 19c-19 0 -32 -7 -85 -7c-59 0 -75 35 -75 63c0 44 26 72 75 72c57 0 88 -40 114 -40c7 0 14 2 19 8c3 4 7 10 8 13c1 5 2 11 2 16c0 24 -12 48 -12 77c0 67 32 91 85 91
c31 0 51 -23 51 -55c0 -6 0 -12 -2 -19c-15 -55 -38 -88 -38 -107c0 -17 8 -29 86 -29c77 0 92 3 100 29c12 38 3 44 12 97c11 66 43 84 80 84c41 0 64 -22 64 -73c0 -64 -59 -73 -71 -111c-5 -16 3 -27 19 -27c27 0 81 46 118 46c35 0 58 -22 58 -63c0 -46 -44 -72 -94 -72
c-53 0 -84 7 -103 7zM432 275c51 -1 69 13 83 66c2 10 5 21 7 34c5 26 -15 33 -53 32c-51 1 -69 -13 -83 -66c-2 -10 -5 -21 -7 -34c-4 -26 15 -33 53 -32z" />
    <glyph glyph-name="slash.ss04" horiz-adv-x="452" 
d="M322 488c-73 0 -112 39 -112 111c0 73 39 111 112 111s110 -38 110 -111c0 -72 -37 -111 -110 -111zM226 239c-74 0 -111 39 -111 112c0 72 37 111 111 111c72 0 110 -39 110 -111c0 -73 -38 -112 -110 -112zM131 -10c-72 0 -111 39 -111 111c0 74 39 112 111 112
c74 0 110 -38 110 -112c0 -72 -36 -111 -110 -111z" />
    <glyph glyph-name="parenleft" unicode="(" horiz-adv-x="339" 
d="M198 518v-340c0 -60 22 -79 106 -106v-150c-194 31 -260 134 -254 426c-6 292 60 395 254 426v-150c-84 -27 -106 -46 -106 -106z" />
    <glyph glyph-name="parenright" unicode=")" horiz-adv-x="339" 
d="M35 624v150c194 -31 260 -134 254 -426c6 -292 -60 -395 -254 -426v150c84 27 106 46 106 106v340c0 60 -22 79 -106 106z" />
    <glyph glyph-name="braceleft" unicode="{" horiz-adv-x="345" 
d="M310 774v-150c-71 -17 -89 -40 -89 -82c0 -28 16 -74 16 -110c0 -44 -25 -69 -88 -84c63 -15 88 -40 88 -84c0 -36 -16 -82 -16 -110c0 -42 18 -65 89 -82v-150c-143 24 -224 69 -224 154c0 42 11 84 13 138c-3 43 -15 56 -79 75v118c64 19 76 32 79 75
c-2 54 -13 96 -13 138c0 85 81 130 224 154z" />
    <glyph glyph-name="braceright" unicode="}" horiz-adv-x="345" 
d="M246 482c3 -43 15 -56 79 -75v-118c-64 -19 -76 -32 -79 -75c2 -54 13 -96 13 -138c0 -85 -81 -130 -224 -154v150c71 17 89 40 89 82c0 28 -16 74 -16 110c0 44 25 69 88 84c-63 15 -88 40 -88 84c0 36 16 82 16 110c0 42 -18 65 -89 82v150c143 -24 224 -69 224 -154
c0 -42 -11 -84 -13 -138z" />
    <glyph glyph-name="bracketleft" unicode="[" horiz-adv-x="359" 
d="M324 624h-106v-552h106v-145h-246v842h246v-145z" />
    <glyph glyph-name="bracketright" unicode="]" horiz-adv-x="359" 
d="M281 769v-842h-246v145h106v552h-106v145h246z" />
    <glyph glyph-name="hyphen" unicode="-" horiz-adv-x="450" 
d="M380 431v-158h-310v158h310z" />
    <glyph glyph-name="endash" unicode="&#x2013;" horiz-adv-x="900" 
d="M830 431v-158h-760v158h760z" />
    <glyph glyph-name="emdash" unicode="&#x2014;" horiz-adv-x="1200" 
d="M1130 431v-158h-1060v158h1060z" />
    <glyph glyph-name="underscore" unicode="_" horiz-adv-x="900" 
d="M830 0v-158h-760v158h760z" />
    <glyph glyph-name="quotesinglbase" unicode="&#x201a;" horiz-adv-x="412" 
d="M246 -181h-124l46 111c9 23 10 29 10 48c0 14 -8 22 -28 22h-60v168h88c122 0 154 -37 154 -115c0 -43 -15 -89 -37 -134z" />
    <glyph glyph-name="quotedblbase" unicode="&#x201e;" horiz-adv-x="713" 
d="M246 -181h-124l46 111c9 23 10 29 10 48c0 14 -8 22 -28 22h-60v168h88c122 0 154 -37 154 -115c0 -43 -15 -89 -37 -134zM547 -181h-124l46 111c9 23 10 29 10 48c0 14 -8 22 -28 22h-60v168h88c122 0 154 -37 154 -115c0 -43 -15 -89 -37 -134z" />
    <glyph glyph-name="quotedblleft" unicode="&#x201c;" horiz-adv-x="713" 
d="M166 744h124l-46 -111c-9 -23 -10 -29 -10 -48c0 -14 8 -22 28 -22h60v-168h-88c-122 0 -154 37 -154 115c0 43 15 89 37 134zM467 744h124l-46 -111c-9 -23 -10 -29 -10 -48c0 -14 8 -22 28 -22h60v-168h-88c-122 0 -154 37 -154 115c0 43 15 89 37 134z" />
    <glyph glyph-name="quotedblright" unicode="&#x201d;" horiz-adv-x="713" 
d="M246 395h-124l46 111c9 23 10 29 10 48c0 14 -8 22 -28 22h-60v168h88c122 0 154 -37 154 -115c0 -43 -15 -89 -37 -134zM547 395h-124l46 111c9 23 10 29 10 48c0 14 -8 22 -28 22h-60v168h88c122 0 154 -37 154 -115c0 -43 -15 -89 -37 -134z" />
    <glyph glyph-name="quoteleft" unicode="&#x2018;" horiz-adv-x="412" 
d="M166 744h124l-46 -111c-9 -23 -10 -29 -10 -48c0 -14 8 -22 28 -22h60v-168h-88c-122 0 -154 37 -154 115c0 43 15 89 37 134z" />
    <glyph glyph-name="quoteright" unicode="&#x2019;" horiz-adv-x="412" 
d="M246 395h-124l46 111c9 23 10 29 10 48c0 14 -8 22 -28 22h-60v168h88c122 0 154 -37 154 -115c0 -43 -15 -89 -37 -134z" />
    <glyph glyph-name="guillemotleft" unicode="&#xab;" horiz-adv-x="671" 
d="M331 565v-19l-145 -196l145 -197v-19h-168l-143 206v19l143 206h168zM463 565h168v-19l-145 -196l145 -197v-19h-168l-143 206v19z" />
    <glyph glyph-name="guillemotright" unicode="&#xbb;" horiz-adv-x="671" 
d="M208 565l143 -206v-19l-143 -206h-168v19l145 197l-145 196v19h168zM340 565h168l143 -206v-19l-143 -206h-168v19l145 197l-145 196v19z" />
    <glyph glyph-name="guilsinglleft" unicode="&#x2039;" horiz-adv-x="371" 
d="M163 565h168v-19l-145 -196l145 -197v-19h-168l-143 206v19z" />
    <glyph glyph-name="guilsinglright" unicode="&#x203a;" horiz-adv-x="391" 
d="M40 565h168l143 -206v-19l-143 -206h-168v19l145 197l-145 196v19z" />
    <glyph glyph-name="quotedbl" unicode="&#x22;" horiz-adv-x="604" 
d="M206 395h-60l-29 100c-14 48 -27 91 -27 134v115h172v-115c0 -43 -13 -86 -27 -134zM458 395h-60l-29 100c-14 48 -27 91 -27 134v115h172v-115c0 -43 -13 -86 -27 -134z" />
    <glyph glyph-name="quotesingle" unicode="'" horiz-adv-x="352" 
d="M206 395h-60l-29 100c-14 48 -27 91 -27 134v115h172v-115c0 -43 -13 -86 -27 -134z" />
    <glyph glyph-name="cent" unicode="&#xa2;" horiz-adv-x="914" 
d="M558 171c56 0 73 19 106 126h180c-33 -183 -111 -258 -303 -272v-55h-168v57c-211 20 -303 113 -303 323c0 209 92 302 303 322v58h168v-54c202 -9 275 -86 303 -274h-180c-27 88 -46 126 -106 126h-221c-52 0 -87 -34 -87 -86v-185c0 -52 35 -86 87 -86h221z" />
    <glyph glyph-name="currency" unicode="&#xa4;" horiz-adv-x="632" 
d="M533 350c0 -39 -4 -72 -12 -100l81 -82l-104 -104l-81 80c-28 -9 -62 -13 -101 -13s-73 4 -101 13l-81 -80l-104 104l81 81c-9 28 -13 62 -13 101s4 73 13 100l-81 82l104 104l81 -81c29 9 62 13 101 13s72 -4 100 -13l82 81l104 -104l-81 -82c8 -28 12 -61 12 -100z
M316 253c70 0 88 11 88 97c0 85 -18 96 -88 96c-71 0 -89 -11 -89 -96c0 -86 18 -97 89 -97z" />
    <glyph glyph-name="dollar" unicode="$" horiz-adv-x="833" 
d="M753 203c0 -109 -94 -166 -253 -178v-55h-168v59c-132 16 -221 65 -245 146l-17 53h166c22 -41 29 -71 111 -78v138l-33 7c-156 34 -229 87 -229 181c0 112 69 180 247 197v57h168v-57c138 -15 205 -76 228 -158l15 -50h-165c-15 56 -41 77 -93 77v-148l58 -12
c182 -37 210 -96 210 -179zM329 426l18 -4v119h-50c-41 0 -50 -11 -50 -48c0 -32 8 -51 82 -67zM485 149h47c54 0 57 11 57 45c0 33 -6 41 -71 55l-33 7v-107z" />
    <glyph glyph-name="Euro" unicode="&#x20ac;" 
d="M600 138c56 0 73 19 106 126h180c-37 -205 -130 -274 -376 -274c-219 0 -337 63 -374 224h-126l30 108h82v28v28h-72l30 108h56c37 161 155 224 374 224c258 7 345 -65 376 -274h-180c-27 88 -46 126 -106 126h-221c-49 0 -82 -30 -87 -76h315l-30 -108h-285v-56h275
l-30 -108h-245c5 -46 38 -76 87 -76h221z" />
    <glyph glyph-name="yen" unicode="&#xa5;" horiz-adv-x="942" 
d="M688 549l32 151h172l-28 -143c-29 -151 -115 -213 -311 -225l1 -38h181v-103h-181v-42h181v-103h-180v-46h-168v46h-179v103h179v42h-179v103h179v38c-198 13 -280 74 -309 225l-28 143h172l32 -151c11 -52 34 -71 94 -71h246c60 0 83 19 94 71z" />
    <glyph glyph-name="greater" unicode="&#x3e;" horiz-adv-x="560" 
d="M60 547v163l460 -246v-227l-460 -246v163l306 164v66z" />
    <glyph glyph-name="less" unicode="&#x3c;" horiz-adv-x="560" 
d="M500 710v-163l-306 -164v-66l306 -163v-163l-460 246v227z" />
    <glyph glyph-name="asciicircum" unicode="^" horiz-adv-x="600" 
d="M300 719c55 -81 129 -157 204 -216l-72 -83c-52 37 -94 73 -132 111c-38 -38 -80 -74 -132 -111l-72 83c75 59 149 135 204 216z" />
    <glyph glyph-name="percent" unicode="%" horiz-adv-x="879" 
d="M849 681l-118 -125c-49 -52 -89 -60 -84 -80c5 -19 50 -2 107 -48c39 -31 76 -95 75 -192c-2 -161 -87 -245 -245 -245c-89 0 -152 24 -192 71c-36 43 -24 91 -43 96c-25 7 -28 -35 -77 -87l-68 -71h-174v19l118 125c49 52 89 60 84 80c-5 19 -50 2 -107 48
c-39 31 -74 95 -75 192c1 161 87 245 245 245c89 0 152 -24 192 -71c36 -43 24 -91 43 -96c25 -6 28 35 77 87l68 71h174v-19zM194 460c0 -103 23 -117 108 -117c84 0 106 14 106 117c0 102 -22 116 -106 116c-85 0 -108 -14 -108 -116zM684 241c0 102 -22 116 -106 116
c-85 0 -108 -14 -108 -116c0 -103 23 -117 108 -117c84 0 106 14 106 117z" />
    <glyph glyph-name="at" unicode="@" horiz-adv-x="994" 
d="M712 322c36 0 51 19 51 79v111c0 66 -36 107 -116 107h-294c-70 0 -116 -46 -116 -116v-307c0 -69 46 -115 116 -115h281c73 0 102 29 130 113h151c-47 -183 -155 -247 -403 -244c-334 4 -442 113 -442 400c0 292 127 400 445 400c298 0 409 -102 409 -275
c0 -139 -52 -224 -154 -224c-57 0 -72 20 -101 20c-18 0 -27 -6 -40 -21c-47 -55 -76 -58 -150 -58c-95 0 -144 47 -144 144c0 103 23 168 150 168c79 0 142 -18 162 -111c12 -56 33 -71 65 -71z" />
    <glyph glyph-name="ampersand" unicode="&#x26;" horiz-adv-x="1103" 
d="M783 241l274 -223v-18h-220l-117 95c-17 13 -25 18 -35 18c-12 0 -18 -3 -28 -24c-39 -79 -90 -99 -265 -99c-246 0 -332 80 -332 223c0 85 49 199 149 199c39 0 66 -7 95 -20c14 -6 26 -15 37 -15c9 0 14 5 14 15c0 15 -6 21 -35 39c-84 50 -105 96 -105 141
c0 92 54 138 244 138c188 0 289 -32 289 -154c0 -111 -54 -136 -99 -136c-25 0 -34 5 -43 5c-8 0 -14 -5 -14 -15c0 -11 5 -17 18 -27l65 -47c7 -5 11 -8 20 -8c10 0 18 5 37 26l133 146h181l6 -12l-150 -165c-32 -35 -54 -54 -78 -54c-18 0 -34 12 -47 12
c-9 0 -13 -5 -13 -12c0 -9 10 -20 19 -28zM421 520l90 -70c11 -9 20 -11 33 -11c16 0 25 11 25 34v56c0 39 -17 55 -91 55c-72 0 -85 -9 -85 -28c0 -9 7 -20 28 -36zM291 138h296c29 0 41 3 41 19c0 9 -7 30 -29 46l-126 92c-25 18 -47 30 -99 30h-62c-50 0 -72 -20 -72 -64
v-64c0 -41 14 -59 51 -59z" />
    <glyph glyph-name="section" unicode="&#xa7;" horiz-adv-x="901" 
d="M721 242c83 -28 100 -65 100 -112c0 -96 -132 -141 -350 -141c-208 0 -348 41 -383 120l-18 41h182c28 -31 35 -52 165 -52h161c59 0 63 8 63 35c0 23 -7 34 -78 39l-246 22c-151 13 -231 72 -231 141c0 54 28 96 92 117c-60 24 -82 57 -82 100c0 102 100 158 364 158
c200 0 295 -52 325 -127l16 -40h-181c-17 37 -46 51 -103 51l-188 -1c-45 0 -55 -7 -55 -28c0 -25 8 -43 81 -52l235 -25c201 -20 231 -79 231 -141c0 -46 -36 -85 -100 -105zM335 309l263 -21c59 -5 63 16 63 42c0 27 -7 34 -78 41l-284 25c-45 5 -55 -9 -55 -38
c0 -25 9 -42 91 -49z" />
    <glyph glyph-name="copyright" unicode="&#xa9;" horiz-adv-x="1030" 
d="M515 750c318 0 445 -108 445 -400c0 -287 -108 -396 -445 -400s-445 113 -445 400c0 292 127 400 445 400zM813 196v307c0 70 -46 116 -116 116h-364c-70 0 -116 -46 -116 -116v-307c0 -69 46 -115 116 -115h364c70 0 116 46 116 115zM416 400v-100c0 -29 19 -48 48 -48
h83c31 0 41 11 59 70h120c-21 -129 -72 -172 -209 -172c-155 0 -221 54 -221 200s66 200 221 200c143 4 192 -41 209 -172h-120c-15 49 -26 70 -59 70h-83c-29 0 -48 -19 -48 -48z" />
    <glyph glyph-name="registered" unicode="&#xae;" horiz-adv-x="1030" 
d="M515 -50c337 4 445 113 445 400c0 292 -127 400 -445 400s-445 -108 -445 -400c0 -287 108 -396 445 -400zM333 619h364c70 0 116 -46 116 -116v-307c0 -49 -46 -115 -116 -115h-364c-70 0 -116 46 -116 115v307c0 70 46 116 116 116zM415 153h-107v396h237
c131 0 179 -26 179 -121c0 -55 -31 -110 -104 -110c-21 0 -30 8 -40 8c-11 0 -18 -1 -21 -16c-3 -13 2 -19 20 -23c28 -6 60 -20 95 -51l80 -71v-12h-151l-105 99c-24 22 -41 31 -78 31h-5v-130zM415 451v-70h164c23 0 32 3 32 32v8c0 24 -10 30 -32 30h-164z" />
    <glyph glyph-name="trademark" unicode="&#x2122;" horiz-adv-x="1468" 
d="M1416 567l42 -353h-136l-35 343c-2 15 -5 18 -17 18h-26c-10 0 -14 -6 -17 -17l-71 -259c-17 -54 -55 -92 -144 -92s-127 38 -144 92l-71 259c-3 11 -7 17 -17 17h-26c-12 0 -15 -3 -17 -18l-35 -343h-136l42 353c12 104 85 140 156 140c61 0 126 -25 152 -118l71 -251
c1 -5 5 -7 9 -7h32c4 0 8 2 9 7l71 251c26 93 91 118 152 118c71 0 144 -36 156 -140zM229 582h-189v119h509v-119h-188v-368h-132v368z" />
    <glyph glyph-name="degree" unicode="&#xb0;" horiz-adv-x="555" 
d="M278 710c137 0 197 -55 197 -198s-60 -199 -197 -199c-138 0 -198 56 -198 199s60 198 198 198zM278 415c70 0 88 11 88 97c0 85 -18 96 -88 96c-71 0 -89 -11 -89 -96c0 -86 18 -97 89 -97z" />
    <glyph glyph-name="bar" unicode="|" horiz-adv-x="358" 
d="M258 -100h-158v900h158v-900z" />
    <glyph glyph-name="brokenbar" unicode="&#xa6;" horiz-adv-x="358" 
d="M258 430h-158v370h158v-370zM258 -100h-158v370h158v-370z" />
    <glyph glyph-name="ampersand.ss02" horiz-adv-x="1069" 
d="M775 244l248 -226v-18h-240l-92 91c-15 15 -24 24 -32 24c-12 0 -15 -6 -24 -23c-46 -83 -98 -101 -247 -101c-246 0 -328 42 -328 248c0 111 74 199 230 199c75 0 101 -6 172 -44c9 -5 13 -7 18 -7c13 0 25 11 25 27c0 6 -2 12 -7 20c-6 10 -30 27 -54 41
c-60 35 -92 78 -92 125c0 77 67 110 146 110c70 0 160 -30 158 -124c-2 -110 -110 -110 -110 -160c0 -11 6 -16 22 -16c27 0 41 -7 64 -30l65 -65c6 -6 11 -8 16 -8c11 0 20 7 31 27l96 166h172l7 -15l-89 -136c-48 -73 -80 -88 -104 -88c-18 0 -34 15 -47 15
c-12 0 -18 -20 -4 -32zM291 138h272c30 0 41 6 41 19c0 9 -3 23 -27 46l-77 74c-34 32 -77 47 -130 47h-58c-47 0 -72 -25 -72 -63v-60c0 -43 13 -63 51 -63z" />
    <glyph glyph-name="ampersand.ss03" horiz-adv-x="1069" 
d="M506 487c-91 0 -141 39 -141 111c0 74 50 112 141 112c94 0 140 -38 140 -112c0 -72 -46 -111 -140 -111zM775 244l248 -226v-18h-240l-92 89c-15 15 -24 26 -32 26c-12 0 -15 -6 -24 -23c-46 -83 -98 -101 -247 -101c-246 0 -328 42 -328 248c0 111 74 199 230 199
c218 0 272 -121 407 -121c27 0 44 11 67 51l76 132h176l6 -10l-92 -141c-48 -73 -80 -88 -104 -88c-18 0 -34 15 -47 15c-12 0 -18 -20 -4 -32zM291 138h272c30 0 41 6 41 19c0 9 -3 23 -27 46l-77 74c-34 32 -77 47 -130 47h-58c-47 0 -72 -25 -72 -63v-60
c0 -43 13 -63 51 -63z" />
    <glyph glyph-name="dieresis" unicode="&#xa8;" horiz-adv-x="600" 
d="M182 754c-54 0 -83 29 -83 83c0 55 29 84 83 84c55 0 82 -29 82 -84c0 -54 -27 -83 -82 -83zM420 754c-55 0 -83 29 -83 83c0 55 28 84 83 84s82 -29 82 -84c0 -54 -27 -83 -82 -83z" />
    <glyph glyph-name="dotaccent" unicode="&#x2d9;" horiz-adv-x="600" 
d="M300 744c-60 0 -92 32 -92 92c0 61 32 93 92 93c61 0 91 -32 91 -93c0 -60 -30 -92 -91 -92z" />
    <glyph glyph-name="grave" unicode="`" horiz-adv-x="600" 
d="M411 828l-30 -84c-103 21 -183 48 -267 85l49 100c66 -40 163 -79 248 -101z" />
    <glyph glyph-name="acute" unicode="&#xb4;" horiz-adv-x="600" 
d="M230 744l-30 84c85 22 182 61 248 101l49 -100c-84 -37 -164 -64 -267 -85z" />
    <glyph glyph-name="hungarumlaut" unicode="&#x2dd;" horiz-adv-x="600" 
 />
    <glyph glyph-name="circumflex" unicode="&#x2c6;" horiz-adv-x="600" 
d="M487 828l-30 -84c-61 16 -109 39 -157 65c-48 -26 -96 -49 -157 -65l-30 84c64 22 137 57 187 101c50 -44 123 -79 187 -101z" />
    <glyph glyph-name="caron" unicode="&#x2c7;" horiz-adv-x="600" 
d="M457 929l30 -84c-64 -22 -137 -57 -187 -101c-50 44 -123 79 -187 101l30 84c61 -16 109 -39 157 -65c48 26 96 49 157 65z" />
    <glyph glyph-name="breve" unicode="&#x2d8;" horiz-adv-x="600" 
d="M383 913h98c-20 -111 -60 -149 -181 -149s-161 38 -181 149h98c18 -58 27 -68 58 -68h50c31 0 40 10 58 68z" />
    <glyph glyph-name="ring" unicode="&#x2da;" horiz-adv-x="600" 
d="M300 663c-82 0 -126 39 -126 114c0 78 44 118 126 118c84 0 125 -40 125 -118c0 -75 -41 -114 -125 -114zM300 711c37 0 55 21 55 56c0 37 -18 58 -55 58s-56 -21 -56 -58c0 -35 19 -56 56 -56z" />
    <glyph glyph-name="tilde" unicode="&#x2dc;" horiz-adv-x="600" 
d="M86 913h98c18 -58 27 -68 47 -68c29 0 59 78 144 78c90 0 122 -49 140 -152h-98c-18 58 -27 68 -47 68c-29 0 -59 -78 -144 -78c-90 0 -122 49 -140 152z" />
    <glyph glyph-name="macron" unicode="&#xaf;" horiz-adv-x="600" 
d="M158 791v100h284v-100h-284z" />
    <glyph glyph-name="cedilla" unicode="&#xb8;" horiz-adv-x="600" 
d="M416 -42c63 0 84 -38 84 -75c0 -81 -65 -113 -216 -113c-134 0 -185 38 -205 149h98c18 -58 27 -68 58 -68h133c23 0 34 10 34 28c0 22 -9 30 -31 30c-16 0 -34 -8 -49 -25h-87l53 135h82l-36 -83c28 16 50 22 82 22z" />
    <glyph glyph-name="ogonek" unicode="&#x2db;" horiz-adv-x="600" 
 />
    </font>
</defs>
</svg>
